0
SECTION
2
HEADER
9
$INSUNITS
70
1
0
ENDSEC
0
SECTION
2
BLOCKS
0
BLOCK
8
1
2
AW27-213 -COST-5109S
70
0
10
0
20
0
30
0
0
POLYLINE
8
1
66
1
70
1
0
VERTEX
8
1
10
0
20
3.9037
30
0
0
VERTEX
8
1
10
1.3454
20
7.9438
30
0
0
VERTEX
8
1
10
11.6208
20
9.7603
30
0
0
VERTEX
8
1
10
30.3863
20
7.7886
30
0
0
VERTEX
8
1
10
30.3863
20
0
30
0
0
VERTEX
8
1
10
1.0418
20
0
30
0
0
VERTEX
8
1
10
1.0418
20
0
30
0
0
VERTEX
8
1
10
1.0391
20
0.698
30
0
0
VERTEX
8
1
10
1.0423
20
1.3457
30
0
0
VERTEX
8
1
10
1.0376
20
1.7423
30
0
0
VERTEX
8
1
10
1.0045
20
2.1703
30
0
0
VERTEX
8
1
10
0.9122
20
2.6757
30
0
0
VERTEX
8
1
10
0.7828
20
3.0207
30
0
0
VERTEX
8
1
10
0.5858
20
3.3783
30
0
0
VERTEX
8
1
10
0.2898
20
3.6806
30
0
0
VERTEX
8
1
10
0
20
3.9037
30
0
0
SEQEND
0
ENDBLK
0
BLOCK
8
1
2
AW27-213 -COSTAH BIN-5109S_M
70
0
10
0
20
0
30
0
0
POLYLINE
8
1
66
1
70
1
0
VERTEX
8
1
10
1.2178
20
26.7789
30
0
0
VERTEX
8
1
10
1.2178
20
0
30
0
0
VERTEX
8
1
10
0.0001
20
0
30
0
0
VERTEX
8
1
10
0.0001
20
26.7789
30
0
0
VERTEX
8
1
10
0
20
0.9999
30
0
0
VERTEX
8
1
10
0.0001
20
26.7789
30
0
0
VERTEX
8
1
10
1.2178
20
26.7789
30
0
0
SEQEND
0
ENDBLK
0
BLOCK
8
1
2
AW27-213 -COSTFNT-5109S
70
0
10
0
20
0
30
0
0
POLYLINE
8
1
66
1
70
1
0
VERTEX
8
1
10
0
20
3.7807
30
0
0
VERTEX
8
1
10
1.3949
20
7.9647
30
0
0
VERTEX
8
1
10
11.6597
20
9.7599
30
0
0
VERTEX
8
1
10
30.428
20
7.7886
30
0
0
VERTEX
8
1
10
30.428
20
0
30
0
0
VERTEX
8
1
10
4.2492
20
0
30
0
0
VERTEX
8
1
10
4.2492
20
0
30
0
0
VERTEX
8
1
10
0
20
3.7807
30
0
0
SEQEND
0
ENDBLK
0
BLOCK
8
1
2
AW27-213 -COSTNK BND-5109S_M
70
0
10
0
20
0
30
0
0
POLYLINE
8
1
66
1
70
1
0
VERTEX
8
1
10
0.5682
20
19.8983
30
0
0
VERTEX
8
1
10
1.1364
20
20.0399
30
0
0
VERTEX
8
1
10
1.1364
20
0
30
0
0
VERTEX
8
1
10
0.5682
20
0.1419
30
0
0
VERTEX
8
1
10
0
20
0
30
0
0
VERTEX
8
1
10
0
20
20.0399
30
0
0
VERTEX
8
1
10
0.5682
20
19.8983
30
0
0
SEQEND
0
ENDBLK
0
BLOCK
8
1
2
AW27-213 -COSTSID-5109S
70
0
10
0
20
0
30
0
0
POLYLINE
8
1
66
1
70
1
0
VERTEX
8
1
10
19.7976
20
0
30
0
0
VERTEX
8
1
10
0
20
2.0803
30
0
0
VERTEX
8
1
10
19.9047
20
2.3153
30
0
0
VERTEX
8
1
10
19.9047
20
2.3153
30
0
0
VERTEX
8
1
10
19.7976
20
0
30
0
0
VERTEX
8
1
10
0
20
2.0803
30
0
0
VERTEX
8
1
10
19.7976
20
0
30
0
0
SEQEND
0
ENDBLK
0
ENDSEC
0
SECTION
2
ENTITIES
0
INSERT
8
1
2
AW27-213 -COST-5109S
10
0
20
0
30
0
0
INSERT
8
1
2
AW27-213 -COSTAH BIN-5109S_M
10
32.3863
20
0
30
0
0
INSERT
8
1
2
AW27-213 -COSTFNT-5109S
10
35.6041
20
0
30
0
0
INSERT
8
1
2
AW27-213 -COSTNK BND-5109S_M
10
68.0321
20
0
30
0
0
INSERT
8
1
2
AW27-213 -COSTSID-5109S
10
71.1685
20
0
30
0
0
ENDSEC
0
EOF
