  0
SECTION
  2
HEADER
  0
ENDSEC
  0
SECTION
  2
BLOCKS
  0
BLOCK
  8
0
  2
8178V-P1- BACK  100525 BLOCK -3RD FIT-COS_M
 70
64
 10
0.0000
 20
0.0000
  0
TEXT
  8
1
 10
-0.3358
 20
13.9925
 40
0.250
 50
0.0000
  1
Piece Name: 8178V-P1- BACK  100525 BLOCK -3RD FIT-COS
  7
STANDARD
  0
TEXT
  8
1
 10
-0.3358
 20
14.1325
 40
0.250
 50
0.0000
  1
Quantity: 1,0
  7
STANDARD
  0
TEXT
  8
1
 10
-0.3358
 20
14.2725
 40
0.250
 50
0.0000
  1
ANNOTATION: CUT X02-A
  7
STANDARD
  0
TEXT
  8
1
 10
-0.3358
 20
14.4125
 40
0.250
 50
0.0000
  1
CATEGORY: BACK
  7
STANDARD
  0
TEXT
  8
1
 10
-0.3358
 20
14.5525
 40
0.250
 50
0.0000
  1
Fabric: A
  7
STANDARD
  0
TEXT
  8
1
 10
-0.3358
 20
14.6925
 40
0.250
 50
0.0000
  1
SIZE: M
  7
STANDARD
  0
POLYLINE
  8
1
 66
1
 70
0
  0
VERTEX
  8
1
 10
-8.2834
 20
8.8828
  0
VERTEX
  8
1
 10
-8.3168
 20
10.6473
  0
VERTEX
  8
1
 10
-8.3288
 20
11.2859
  0
VERTEX
  8
1
 10
-8.3493
 20
11.6487
  0
VERTEX
  8
1
 10
-8.3578
 20
11.8520
  0
VERTEX
  8
1
 10
-8.3965
 20
12.7722
  0
VERTEX
  8
1
 10
-8.4340
 20
13.6656
  0
VERTEX
  8
1
 10
-8.4947
 20
14.5374
  0
VERTEX
  8
1
 10
-8.5398
 20
15.1882
  0
VERTEX
  8
1
 10
-8.6255
 20
16.4285
  0
SEQEND
  8
1
  0
POLYLINE
  8
84
 66
1
 70
0
  0
VERTEX
  8
84
 10
-8.2834
 20
8.8828
  0
VERTEX
  8
84
 10
-8.3168
 20
10.6473
  0
VERTEX
  8
84
 10
-8.3288
 20
11.2859
  0
VERTEX
  8
84
 10
-8.3493
 20
11.6487
  0
VERTEX
  8
84
 10
-8.3578
 20
11.8520
  0
VERTEX
  8
84
 10
-8.3965
 20
12.7722
  0
VERTEX
  8
84
 10
-8.4340
 20
13.6656
  0
VERTEX
  8
84
 10
-8.4947
 20
14.5374
  0
VERTEX
  8
84
 10
-8.5398
 20
15.1882
  0
VERTEX
  8
84
 10
-8.6255
 20
16.4285
  0
SEQEND
  8
84
  0
TEXT
  8
1
 10
-8.2834
 20
8.8828
 40
0.250
 50
0.0000
  1
# 30
  7
STANDARD
  0
POINT
  8
2
 10
-8.2834
 20
8.8828
  0
POINT
  8
3
 10
-8.3168
 20
10.6473
  0
POINT
  8
3
 10
-8.3288
 20
11.2859
  0
POINT
  8
3
 10
-8.3493
 20
11.6487
  0
POINT
  8
3
 10
-8.3578
 20
11.8520
  0
POINT
  8
3
 10
-8.3965
 20
12.7722
  0
POINT
  8
3
 10
-8.4340
 20
13.6656
  0
POINT
  8
3
 10
-8.4947
 20
14.5374
  0
POINT
  8
3
 10
-8.5398
 20
15.1882
  0
TEXT
  8
1
 10
-8.6255
 20
16.4285
 40
0.250
 50
0.0000
  1
# 31
  7
STANDARD
  0
POINT
  8
2
 10
-8.6255
 20
16.4285
  0
POLYLINE
  8
1
 66
1
 70
0
  0
VERTEX
  8
1
 10
-8.6255
 20
16.4285
  0
VERTEX
  8
1
 10
-8.6255
 20
16.4285
  0
SEQEND
  8
1
  0
POLYLINE
  8
84
 66
1
 70
0
  0
VERTEX
  8
84
 10
-8.6255
 20
16.4285
  0
VERTEX
  8
84
 10
-8.6255
 20
16.4285
  0
SEQEND
  8
84
  0
TEXT
  8
1
 10
-8.6255
 20
16.4285
 40
0.250
 50
0.0000
  1
# 31
  7
STANDARD
  0
POINT
  8
2
 10
-8.6255
 20
16.4285
  0
TEXT
  8
1
 10
-8.6255
 20
16.4285
 40
0.250
 50
0.0000
  1
# 31
  7
STANDARD
  0
POINT
  8
2
 10
-8.6255
 20
16.4285
  0
POLYLINE
  8
1
 66
1
 70
0
  0
VERTEX
  8
1
 10
-8.6255
 20
16.4285
  0
VERTEX
  8
1
 10
-7.2379
 20
16.3360
  0
SEQEND
  8
1
  0
POLYLINE
  8
84
 66
1
 70
0
  0
VERTEX
  8
84
 10
-8.6255
 20
16.4285
  0
VERTEX
  8
84
 10
-7.2379
 20
16.3360
  0
SEQEND
  8
84
  0
TEXT
  8
1
 10
-8.6255
 20
16.4285
 40
0.250
 50
0.0000
  1
# 31
  7
STANDARD
  0
POINT
  8
2
 10
-8.6255
 20
16.4285
  0
TEXT
  8
1
 10
-7.2379
 20
16.3360
 40
0.250
 50
0.0000
  1
# 32
  7
STANDARD
  0
POINT
  8
2
 10
-7.2379
 20
16.3360
  0
POLYLINE
  8
1
 66
1
 70
0
  0
VERTEX
  8
1
 10
-7.2379
 20
16.3360
  0
VERTEX
  8
1
 10
-7.2379
 20
16.3360
  0
SEQEND
  8
1
  0
POLYLINE
  8
84
 66
1
 70
0
  0
VERTEX
  8
84
 10
-7.2379
 20
16.3360
  0
VERTEX
  8
84
 10
-7.2379
 20
16.3360
  0
SEQEND
  8
84
  0
TEXT
  8
1
 10
-7.2379
 20
16.3360
 40
0.250
 50
0.0000
  1
# 32
  7
STANDARD
  0
POINT
  8
2
 10
-7.2379
 20
16.3360
  0
TEXT
  8
1
 10
-7.2379
 20
16.3360
 40
0.250
 50
0.0000
  1
# 32
  7
STANDARD
  0
POINT
  8
2
 10
-7.2379
 20
16.3360
  0
POLYLINE
  8
1
 66
1
 70
0
  0
VERTEX
  8
1
 10
-7.2379
 20
16.3360
  0
VERTEX
  8
1
 10
-1.3142
 20
17.5647
  0
VERTEX
  8
1
 10
-0.7258
 20
17.6860
  0
VERTEX
  8
1
 10
2.9030
 20
18.4382
  0
VERTEX
  8
1
 10
3.7942
 20
18.6356
  0
SEQEND
  8
1
  0
POLYLINE
  8
84
 66
1
 70
0
  0
VERTEX
  8
84
 10
-7.2379
 20
16.3360
  0
VERTEX
  8
84
 10
-1.3142
 20
17.5647
  0
VERTEX
  8
84
 10
-0.7258
 20
17.6860
  0
VERTEX
  8
84
 10
2.9030
 20
18.4382
  0
VERTEX
  8
84
 10
3.7942
 20
18.6356
  0
SEQEND
  8
84
  0
TEXT
  8
1
 10
-7.2379
 20
16.3360
 40
0.250
 50
0.0000
  1
# 32
  7
STANDARD
  0
POINT
  8
2
 10
-7.2379
 20
16.3360
  0
TEXT
  8
1
 10
-1.3142
 20
17.5647
 40
0.250
 50
0.0000
  1
# 4
  7
STANDARD
  0
POINT
  8
3
 10
-1.3142
 20
17.5647
  0
POINT
  8
3
 10
-0.7258
 20
17.6860
  0
POINT
  8
3
 10
2.9030
 20
18.4382
  0
TEXT
  8
1
 10
3.7942
 20
18.6356
 40
0.250
 50
0.0000
  1
# 33
  7
STANDARD
  0
POINT
  8
2
 10
3.7942
 20
18.6356
  0
POLYLINE
  8
1
 66
1
 70
0
  0
VERTEX
  8
1
 10
3.7942
 20
18.6356
  0
VERTEX
  8
1
 10
3.7942
 20
18.6356
  0
SEQEND
  8
1
  0
POLYLINE
  8
84
 66
1
 70
0
  0
VERTEX
  8
84
 10
3.7942
 20
18.6356
  0
VERTEX
  8
84
 10
3.7942
 20
18.6356
  0
SEQEND
  8
84
  0
TEXT
  8
1
 10
3.7942
 20
18.6356
 40
0.250
 50
0.0000
  1
# 33
  7
STANDARD
  0
POINT
  8
2
 10
3.7942
 20
18.6356
  0
TEXT
  8
1
 10
3.7942
 20
18.6356
 40
0.250
 50
0.0000
  1
# 33
  7
STANDARD
  0
POINT
  8
2
 10
3.7942
 20
18.6356
  0
POLYLINE
  8
1
 66
1
 70
0
  0
VERTEX
  8
1
 10
3.7942
 20
18.6356
  0
VERTEX
  8
1
 10
4.4985
 20
19.1022
  0
SEQEND
  8
1
  0
POLYLINE
  8
84
 66
1
 70
0
  0
VERTEX
  8
84
 10
3.7942
 20
18.6356
  0
VERTEX
  8
84
 10
4.4985
 20
19.1022
  0
SEQEND
  8
84
  0
TEXT
  8
1
 10
3.7942
 20
18.6356
 40
0.250
 50
0.0000
  1
# 33
  7
STANDARD
  0
POINT
  8
2
 10
3.7942
 20
18.6356
  0
TEXT
  8
1
 10
4.4985
 20
19.1022
 40
0.250
 50
0.0000
  1
# 34
  7
STANDARD
  0
POINT
  8
2
 10
4.4985
 20
19.1022
  0
POLYLINE
  8
1
 66
1
 70
0
  0
VERTEX
  8
1
 10
4.4985
 20
19.1022
  0
VERTEX
  8
1
 10
4.4985
 20
19.1022
  0
SEQEND
  8
1
  0
POLYLINE
  8
84
 66
1
 70
0
  0
VERTEX
  8
84
 10
4.4985
 20
19.1022
  0
VERTEX
  8
84
 10
4.4985
 20
19.1022
  0
SEQEND
  8
84
  0
TEXT
  8
1
 10
4.4985
 20
19.1022
 40
0.250
 50
0.0000
  1
# 34
  7
STANDARD
  0
POINT
  8
2
 10
4.4985
 20
19.1022
  0
TEXT
  8
1
 10
4.4985
 20
19.1022
 40
0.250
 50
0.0000
  1
# 34
  7
STANDARD
  0
POINT
  8
2
 10
4.4985
 20
19.1022
  0
POLYLINE
  8
1
 66
1
 70
0
  0
VERTEX
  8
1
 10
4.4985
 20
19.1022
  0
VERTEX
  8
1
 10
4.6357
 20
18.4722
  0
VERTEX
  8
1
 10
5.0884
 20
16.7478
  0
VERTEX
  8
1
 10
5.4161
 20
15.7807
  0
VERTEX
  8
1
 10
5.6224
 20
15.1737
  0
VERTEX
  8
1
 10
5.8342
 20
14.6488
  0
VERTEX
  8
1
 10
6.0032
 20
14.2415
  0
VERTEX
  8
1
 10
6.3098
 20
13.4952
  0
VERTEX
  8
1
 10
6.5824
 20
12.9042
  0
VERTEX
  8
1
 10
6.8979
 20
12.2790
  0
VERTEX
  8
1
 10
7.9539
 20
10.5828
  0
SEQEND
  8
1
  0
POLYLINE
  8
84
 66
1
 70
0
  0
VERTEX
  8
84
 10
4.4985
 20
19.1022
  0
VERTEX
  8
84
 10
4.6357
 20
18.4722
  0
VERTEX
  8
84
 10
4.8502
 20
17.6069
  0
VERTEX
  8
84
 10
5.0884
 20
16.7478
  0
VERTEX
  8
84
 10
5.4161
 20
15.7807
  0
VERTEX
  8
84
 10
5.6224
 20
15.1737
  0
VERTEX
  8
84
 10
5.8342
 20
14.6488
  0
VERTEX
  8
84
 10
6.0032
 20
14.2415
  0
VERTEX
  8
84
 10
6.3098
 20
13.4952
  0
VERTEX
  8
84
 10
6.5824
 20
12.9042
  0
VERTEX
  8
84
 10
6.8979
 20
12.2790
  0
VERTEX
  8
84
 10
7.1519
 20
11.8491
  0
VERTEX
  8
84
 10
7.4165
 20
11.4253
  0
VERTEX
  8
84
 10
7.9539
 20
10.5828
  0
SEQEND
  8
84
  0
TEXT
  8
1
 10
4.4985
 20
19.1022
 40
0.250
 50
0.0000
  1
# 34
  7
STANDARD
  0
POINT
  8
2
 10
4.4985
 20
19.1022
  0
POINT
  8
3
 10
4.6357
 20
18.4722
  0
POINT
  8
3
 10
5.0884
 20
16.7478
  0
POINT
  8
3
 10
5.4161
 20
15.7807
  0
POINT
  8
3
 10
5.6224
 20
15.1737
  0
POINT
  8
3
 10
5.8342
 20
14.6488
  0
POINT
  8
3
 10
6.0032
 20
14.2415
  0
POINT
  8
3
 10
6.3098
 20
13.4952
  0
POINT
  8
3
 10
6.5824
 20
12.9042
  0
POINT
  8
3
 10
6.8979
 20
12.2790
  0
TEXT
  8
1
 10
7.9539
 20
10.5828
 40
0.250
 50
0.0000
  1
# 35
  7
STANDARD
  0
POINT
  8
2
 10
7.9539
 20
10.5828
  0
POLYLINE
  8
1
 66
1
 70
0
  0
VERTEX
  8
1
 10
7.9539
 20
10.5828
  0
VERTEX
  8
1
 10
7.9539
 20
10.5828
  0
SEQEND
  8
1
  0
POLYLINE
  8
84
 66
1
 70
0
  0
VERTEX
  8
84
 10
7.9539
 20
10.5828
  0
VERTEX
  8
84
 10
7.9539
 20
10.5828
  0
SEQEND
  8
84
  0
TEXT
  8
1
 10
7.9539
 20
10.5828
 40
0.250
 50
0.0000
  1
# 35
  7
STANDARD
  0
POINT
  8
2
 10
7.9539
 20
10.5828
  0
TEXT
  8
1
 10
7.9539
 20
10.5828
 40
0.250
 50
0.0000
  1
# 35
  7
STANDARD
  0
POINT
  8
2
 10
7.9539
 20
10.5828
  0
POLYLINE
  8
1
 66
1
 70
0
  0
VERTEX
  8
1
 10
7.9539
 20
10.5828
  0
VERTEX
  8
1
 10
7.1420
 20
10.3916
  0
SEQEND
  8
1
  0
POLYLINE
  8
84
 66
1
 70
0
  0
VERTEX
  8
84
 10
7.9539
 20
10.5828
  0
VERTEX
  8
84
 10
7.1420
 20
10.3916
  0
SEQEND
  8
84
  0
TEXT
  8
1
 10
7.9539
 20
10.5828
 40
0.250
 50
0.0000
  1
# 35
  7
STANDARD
  0
POINT
  8
2
 10
7.9539
 20
10.5828
  0
TEXT
  8
1
 10
7.1420
 20
10.3916
 40
0.250
 50
0.0000
  1
# 36
  7
STANDARD
  0
POINT
  8
2
 10
7.1420
 20
10.3916
  0
POLYLINE
  8
1
 66
1
 70
0
  0
VERTEX
  8
1
 10
7.1420
 20
10.3916
  0
VERTEX
  8
1
 10
7.1420
 20
10.3916
  0
SEQEND
  8
1
  0
POLYLINE
  8
84
 66
1
 70
0
  0
VERTEX
  8
84
 10
7.1420
 20
10.3916
  0
VERTEX
  8
84
 10
7.1420
 20
10.3916
  0
SEQEND
  8
84
  0
TEXT
  8
1
 10
7.1420
 20
10.3916
 40
0.250
 50
0.0000
  1
# 36
  7
STANDARD
  0
POINT
  8
2
 10
7.1420
 20
10.3916
  0
TEXT
  8
1
 10
7.1420
 20
10.3916
 40
0.250
 50
0.0000
  1
# 36
  7
STANDARD
  0
POINT
  8
2
 10
7.1420
 20
10.3916
  0
POLYLINE
  8
1
 66
1
 70
0
  0
VERTEX
  8
1
 10
7.1420
 20
10.3916
  0
VERTEX
  8
1
 10
6.8872
 20
10.1993
  0
VERTEX
  8
1
 10
6.6970
 20
10.0535
  0
VERTEX
  8
1
 10
6.6059
 20
9.9840
  0
VERTEX
  8
1
 10
6.5555
 20
9.9370
  0
VERTEX
  8
1
 10
6.5114
 20
9.8894
  0
VERTEX
  8
1
 10
6.4692
 20
9.8348
  0
VERTEX
  8
1
 10
6.4219
 20
9.7649
  0
VERTEX
  8
1
 10
6.3680
 20
9.6737
  0
VERTEX
  8
1
 10
6.3152
 20
9.5765
  0
VERTEX
  8
1
 10
6.2740
 20
9.4882
  0
VERTEX
  8
1
 10
6.2485
 20
9.4014
  0
VERTEX
  8
1
 10
6.2253
 20
9.2066
  0
VERTEX
  8
1
 10
6.2253
 20
9.1491
  0
VERTEX
  8
1
 10
6.2582
 20
8.8896
  0
SEQEND
  8
1
  0
POLYLINE
  8
84
 66
1
 70
0
  0
VERTEX
  8
84
 10
7.1420
 20
10.3916
  0
VERTEX
  8
84
 10
6.8872
 20
10.1993
  0
VERTEX
  8
84
 10
6.6970
 20
10.0535
  0
VERTEX
  8
84
 10
6.6059
 20
9.9840
  0
VERTEX
  8
84
 10
6.5555
 20
9.9370
  0
VERTEX
  8
84
 10
6.5114
 20
9.8894
  0
VERTEX
  8
84
 10
6.4692
 20
9.8348
  0
VERTEX
  8
84
 10
6.4219
 20
9.7649
  0
VERTEX
  8
84
 10
6.3680
 20
9.6737
  0
VERTEX
  8
84
 10
6.3152
 20
9.5765
  0
VERTEX
  8
84
 10
6.2740
 20
9.4882
  0
VERTEX
  8
84
 10
6.2485
 20
9.4014
  0
VERTEX
  8
84
 10
6.2253
 20
9.2066
  0
VERTEX
  8
84
 10
6.2253
 20
9.1491
  0
VERTEX
  8
84
 10
6.2582
 20
8.8896
  0
SEQEND
  8
84
  0
TEXT
  8
1
 10
7.1420
 20
10.3916
 40
0.250
 50
0.0000
  1
# 36
  7
STANDARD
  0
POINT
  8
2
 10
7.1420
 20
10.3916
  0
POINT
  8
3
 10
6.8872
 20
10.1993
  0
POINT
  8
3
 10
6.6970
 20
10.0535
  0
POINT
  8
3
 10
6.6059
 20
9.9840
  0
POINT
  8
3
 10
6.5555
 20
9.9370
  0
POINT
  8
3
 10
6.5114
 20
9.8894
  0
POINT
  8
3
 10
6.4692
 20
9.8348
  0
POINT
  8
3
 10
6.4219
 20
9.7649
  0
POINT
  8
3
 10
6.3680
 20
9.6737
  0
POINT
  8
3
 10
6.3152
 20
9.5765
  0
POINT
  8
3
 10
6.2740
 20
9.4882
  0
POINT
  8
3
 10
6.2485
 20
9.4014
  0
POINT
  8
3
 10
6.2253
 20
9.2066
  0
POINT
  8
3
 10
6.2253
 20
9.1491
  0
TEXT
  8
1
 10
6.2582
 20
8.8896
 40
0.250
 50
0.0000
  1
# 2
  7
STANDARD
  0
POINT
  8
2
 10
6.2582
 20
8.8896
  0
POLYLINE
  8
1
 66
1
 70
0
  0
VERTEX
  8
1
 10
6.2582
 20
8.8896
  0
VERTEX
  8
1
 10
-8.2834
 20
8.8828
  0
SEQEND
  8
1
  0
POLYLINE
  8
84
 66
1
 70
0
  0
VERTEX
  8
84
 10
6.2582
 20
8.8896
  0
VERTEX
  8
84
 10
-8.2834
 20
8.8828
  0
SEQEND
  8
84
  0
TEXT
  8
1
 10
6.2582
 20
8.8896
 40
0.250
 50
0.0000
  1
# 2
  7
STANDARD
  0
POINT
  8
2
 10
6.2582
 20
8.8896
  0
LINE
  8
7
 10
-3.6478
 20
13.4376
 11
3.4378
 21
13.4376
  0
LINE
  8
5
 10
-3.6478
 20
13.4376
 11
3.4378
 21
13.4376
  0
POINT
  8
2
 10
-3.6478
 20
13.4376
  0
POINT
  8
2
 10
3.4378
 20
13.4376
  0
POLYLINE
  8
8
 66
1
 70
0
  0
VERTEX
  8
8
 10
-0.8500
 20
8.8863
  0
VERTEX
  8
8
 10
-0.8860
 20
10.7689
  0
VERTEX
  8
8
 10
-0.9007
 20
11.5413
  0
VERTEX
  8
8
 10
-0.9261
 20
11.9848
  0
VERTEX
  8
8
 10
-0.9323
 20
12.1332
  0
VERTEX
  8
8
 10
-0.9710
 20
13.0433
  0
VERTEX
  8
8
 10
-1.0129
 20
14.0288
  0
VERTEX
  8
8
 10
-1.0806
 20
14.9917
  0
VERTEX
  8
8
 10
-1.1257
 20
15.6345
  0
VERTEX
  8
8
 10
-1.2418
 20
17.2924
  0
SEQEND
  8
8
  0
POLYLINE
  8
85
 66
1
 70
0
  0
VERTEX
  8
85
 10
-0.8500
 20
8.8863
  0
VERTEX
  8
85
 10
-0.8860
 20
10.7689
  0
VERTEX
  8
85
 10
-0.9007
 20
11.5413
  0
VERTEX
  8
85
 10
-0.9261
 20
11.9848
  0
VERTEX
  8
85
 10
-0.9323
 20
12.1332
  0
VERTEX
  8
85
 10
-0.9710
 20
13.0433
  0
VERTEX
  8
85
 10
-1.0129
 20
14.0288
  0
VERTEX
  8
85
 10
-1.0806
 20
14.9917
  0
VERTEX
  8
85
 10
-1.1257
 20
15.6345
  0
VERTEX
  8
85
 10
-1.2418
 20
17.2924
  0
SEQEND
  8
85
  0
TEXT
  8
8
 10
-0.8500
 20
8.8863
 40
0.250
 50
0.0000
  1
NM
  7
STANDARD
  0
TEXT
  8
85
 10
-0.8500
 20
8.8863
 40
0.250
 50
0.0000
  1
NM
  7
STANDARD
  0
TEXT
  8
8
 10
-0.8500
 20
8.8863
 40
0.250
 50
0.0000
  1
# 37
  7
STANDARD
  0
POINT
  8
2
 10
-0.8500
 20
8.8863
  0
POINT
  8
3
 10
-0.8860
 20
10.7689
  0
POINT
  8
3
 10
-0.9007
 20
11.5413
  0
POINT
  8
3
 10
-0.9261
 20
11.9848
  0
POINT
  8
3
 10
-0.9323
 20
12.1332
  0
POINT
  8
3
 10
-0.9710
 20
13.0433
  0
POINT
  8
3
 10
-1.0129
 20
14.0288
  0
POINT
  8
3
 10
-1.0806
 20
14.9917
  0
POINT
  8
3
 10
-1.1257
 20
15.6345
  0
TEXT
  8
8
 10
-1.2418
 20
17.2924
 40
0.250
 50
0.0000
  1
# 38
  7
STANDARD
  0
POINT
  8
2
 10
-1.2418
 20
17.2924
  0
POLYLINE
  8
14
 66
1
 70
0
  0
VERTEX
  8
14
 10
-6.9052
 20
8.8835
  0
VERTEX
  8
14
 10
-6.9391
 20
10.6732
  0
VERTEX
  8
14
 10
-6.9516
 20
11.3378
  0
VERTEX
  8
14
 10
-6.9730
 20
11.7164
  0
VERTEX
  8
14
 10
-6.9811
 20
11.9099
  0
VERTEX
  8
14
 10
-7.0198
 20
12.8300
  0
VERTEX
  8
14
 10
-7.0581
 20
13.7424
  0
VERTEX
  8
14
 10
-7.1200
 20
14.6327
  0
VERTEX
  8
14
 10
-7.1651
 20
15.2832
  0
VERTEX
  8
14
 10
-7.2187
 20
16.0586
  0
SEQEND
  8
14
  0
POLYLINE
  8
87
 66
1
 70
0
  0
VERTEX
  8
87
 10
-6.9052
 20
8.8835
  0
VERTEX
  8
87
 10
-6.9391
 20
10.6732
  0
VERTEX
  8
87
 10
-6.9516
 20
11.3378
  0
VERTEX
  8
87
 10
-6.9730
 20
11.7164
  0
VERTEX
  8
87
 10
-6.9811
 20
11.9099
  0
VERTEX
  8
87
 10
-7.0198
 20
12.8300
  0
VERTEX
  8
87
 10
-7.0581
 20
13.7424
  0
VERTEX
  8
87
 10
-7.1200
 20
14.6327
  0
VERTEX
  8
87
 10
-7.1651
 20
15.2832
  0
VERTEX
  8
87
 10
-7.2187
 20
16.0586
  0
SEQEND
  8
87
  0
TEXT
  8
14
 10
-6.9052
 20
8.8835
 40
0.250
 50
0.0000
  1
# 30
  7
STANDARD
  0
POINT
  8
2
 10
-6.9052
 20
8.8835
  0
POINT
  8
3
 10
-6.9391
 20
10.6732
  0
POINT
  8
3
 10
-6.9516
 20
11.3378
  0
POINT
  8
3
 10
-6.9730
 20
11.7164
  0
POINT
  8
3
 10
-6.9811
 20
11.9099
  0
POINT
  8
3
 10
-7.0198
 20
12.8300
  0
POINT
  8
3
 10
-7.0581
 20
13.7424
  0
POINT
  8
3
 10
-7.1200
 20
14.6327
  0
POINT
  8
3
 10
-7.1651
 20
15.2832
  0
TEXT
  8
14
 10
-7.2187
 20
16.0586
 40
0.250
 50
0.0000
  1
# 39
  7
STANDARD
  0
POINT
  8
2
 10
-7.2187
 20
16.0586
  0
POLYLINE
  8
14
 66
1
 70
0
  0
VERTEX
  8
14
 10
-7.2187
 20
16.0586
  0
VERTEX
  8
14
 10
-7.2187
 20
16.0586
  0
SEQEND
  8
14
  0
POLYLINE
  8
87
 66
1
 70
0
  0
VERTEX
  8
87
 10
-7.2187
 20
16.0586
  0
VERTEX
  8
87
 10
-7.2187
 20
16.0586
  0
SEQEND
  8
87
  0
TEXT
  8
14
 10
-7.2187
 20
16.0586
 40
0.250
 50
0.0000
  1
# 39
  7
STANDARD
  0
POINT
  8
2
 10
-7.2187
 20
16.0586
  0
TEXT
  8
14
 10
-7.2187
 20
16.0586
 40
0.250
 50
0.0000
  1
# 39
  7
STANDARD
  0
POINT
  8
2
 10
-7.2187
 20
16.0586
  0
POLYLINE
  8
14
 66
1
 70
0
  0
VERTEX
  8
14
 10
-7.2187
 20
16.0586
  0
VERTEX
  8
14
 10
-1.2586
 20
17.2948
  0
VERTEX
  8
14
 10
-0.6699
 20
17.4162
  0
VERTEX
  8
14
 10
2.9607
 20
18.1688
  0
VERTEX
  8
14
 10
3.8529
 20
18.3663
  0
SEQEND
  8
14
  0
POLYLINE
  8
87
 66
1
 70
0
  0
VERTEX
  8
87
 10
-7.2187
 20
16.0586
  0
VERTEX
  8
87
 10
-1.2586
 20
17.2948
  0
VERTEX
  8
87
 10
-0.6699
 20
17.4162
  0
VERTEX
  8
87
 10
2.9607
 20
18.1688
  0
VERTEX
  8
87
 10
3.8529
 20
18.3663
  0
SEQEND
  8
87
  0
TEXT
  8
14
 10
-7.2187
 20
16.0586
 40
0.250
 50
0.0000
  1
# 39
  7
STANDARD
  0
POINT
  8
2
 10
-7.2187
 20
16.0586
  0
TEXT
  8
14
 10
-1.2586
 20
17.2948
 40
0.250
 50
0.0000
  1
# 4
  7
STANDARD
  0
POINT
  8
3
 10
-1.2586
 20
17.2948
  0
POINT
  8
3
 10
-0.6699
 20
17.4162
  0
POINT
  8
3
 10
2.9607
 20
18.1688
  0
TEXT
  8
14
 10
3.8529
 20
18.3663
 40
0.250
 50
0.0000
  1
# 40
  7
STANDARD
  0
POINT
  8
2
 10
3.8529
 20
18.3663
  0
POLYLINE
  8
14
 66
1
 70
0
  0
VERTEX
  8
14
 10
3.8529
 20
18.3663
  0
VERTEX
  8
14
 10
3.8529
 20
18.3663
  0
SEQEND
  8
14
  0
POLYLINE
  8
87
 66
1
 70
0
  0
VERTEX
  8
87
 10
3.8529
 20
18.3663
  0
VERTEX
  8
87
 10
3.8529
 20
18.3663
  0
SEQEND
  8
87
  0
TEXT
  8
14
 10
3.8529
 20
18.3663
 40
0.250
 50
0.0000
  1
# 40
  7
STANDARD
  0
POINT
  8
2
 10
3.8529
 20
18.3663
  0
TEXT
  8
14
 10
3.8529
 20
18.3663
 40
0.250
 50
0.0000
  1
# 40
  7
STANDARD
  0
POINT
  8
2
 10
3.8529
 20
18.3663
  0
POLYLINE
  8
14
 66
1
 70
0
  0
VERTEX
  8
14
 10
3.8529
 20
18.3663
  0
VERTEX
  8
14
 10
3.8698
 20
18.2884
  0
VERTEX
  8
14
 10
4.3338
 20
16.5213
  0
VERTEX
  8
14
 10
4.6705
 20
15.5274
  0
VERTEX
  8
14
 10
4.8839
 20
14.8995
  0
VERTEX
  8
14
 10
5.1054
 20
14.3506
  0
VERTEX
  8
14
 10
5.2753
 20
13.9411
  0
VERTEX
  8
14
 10
5.5878
 20
13.1806
  0
VERTEX
  8
14
 10
5.8732
 20
12.5619
  0
VERTEX
  8
14
 10
6.2108
 20
11.8928
  0
VERTEX
  8
14
 10
6.9933
 20
10.6247
  0
SEQEND
  8
14
  0
POLYLINE
  8
87
 66
1
 70
0
  0
VERTEX
  8
87
 10
3.8529
 20
18.3663
  0
VERTEX
  8
87
 10
3.8698
 20
18.2884
  0
VERTEX
  8
87
 10
4.0897
 20
17.4016
  0
VERTEX
  8
87
 10
4.3338
 20
16.5213
  0
VERTEX
  8
87
 10
4.6705
 20
15.5274
  0
VERTEX
  8
87
 10
4.8839
 20
14.8995
  0
VERTEX
  8
87
 10
5.1054
 20
14.3506
  0
VERTEX
  8
87
 10
5.2753
 20
13.9411
  0
VERTEX
  8
87
 10
5.5878
 20
13.1806
  0
VERTEX
  8
87
 10
5.8732
 20
12.5619
  0
VERTEX
  8
87
 10
6.2108
 20
11.8928
  0
VERTEX
  8
87
 10
6.5953
 20
11.2548
  0
VERTEX
  8
87
 10
6.9933
 20
10.6247
  0
SEQEND
  8
87
  0
TEXT
  8
14
 10
3.8529
 20
18.3663
 40
0.250
 50
0.0000
  1
# 40
  7
STANDARD
  0
POINT
  8
2
 10
3.8529
 20
18.3663
  0
POINT
  8
3
 10
3.8698
 20
18.2884
  0
POINT
  8
3
 10
4.3338
 20
16.5213
  0
POINT
  8
3
 10
4.6705
 20
15.5274
  0
POINT
  8
3
 10
4.8839
 20
14.8995
  0
POINT
  8
3
 10
5.1054
 20
14.3506
  0
POINT
  8
3
 10
5.2753
 20
13.9411
  0
POINT
  8
3
 10
5.5878
 20
13.1806
  0
POINT
  8
3
 10
5.8732
 20
12.5619
  0
POINT
  8
3
 10
6.2108
 20
11.8928
  0
TEXT
  8
14
 10
6.9933
 20
10.6247
 40
0.250
 50
0.0000
  1
# 41
  7
STANDARD
  0
POINT
  8
2
 10
6.9933
 20
10.6247
  0
POLYLINE
  8
14
 66
1
 70
0
  0
VERTEX
  8
14
 10
6.9933
 20
10.6247
  0
VERTEX
  8
14
 10
6.9933
 20
10.6247
  0
SEQEND
  8
14
  0
POLYLINE
  8
87
 66
1
 70
0
  0
VERTEX
  8
87
 10
6.9933
 20
10.6247
  0
VERTEX
  8
87
 10
6.9933
 20
10.6247
  0
SEQEND
  8
87
  0
TEXT
  8
14
 10
6.9933
 20
10.6247
 40
0.250
 50
0.0000
  1
# 41
  7
STANDARD
  0
POINT
  8
2
 10
6.9933
 20
10.6247
  0
TEXT
  8
14
 10
6.9933
 20
10.6247
 40
0.250
 50
0.0000
  1
# 41
  7
STANDARD
  0
POINT
  8
2
 10
6.9933
 20
10.6247
  0
POLYLINE
  8
14
 66
1
 70
0
  0
VERTEX
  8
14
 10
6.9933
 20
10.6247
  0
VERTEX
  8
14
 10
6.7203
 20
10.4187
  0
VERTEX
  8
14
 10
6.5295
 20
10.2725
  0
VERTEX
  8
14
 10
6.4279
 20
10.1949
  0
VERTEX
  8
14
 10
6.3601
 20
10.1317
  0
VERTEX
  8
14
 10
6.3008
 20
10.0677
  0
VERTEX
  8
14
 10
6.2458
 20
9.9965
  0
VERTEX
  8
14
 10
6.1889
 20
9.9124
  0
VERTEX
  8
14
 10
6.1282
 20
9.8097
  0
VERTEX
  8
14
 10
6.0690
 20
9.7007
  0
VERTEX
  8
14
 10
6.0154
 20
9.5859
  0
VERTEX
  8
14
 10
5.9775
 20
9.4570
  0
VERTEX
  8
14
 10
5.9497
 20
9.2230
  0
VERTEX
  8
14
 10
5.9497
 20
9.1317
  0
VERTEX
  8
14
 10
5.9804
 20
8.8895
  0
SEQEND
  8
14
  0
POLYLINE
  8
87
 66
1
 70
0
  0
VERTEX
  8
87
 10
6.9933
 20
10.6247
  0
VERTEX
  8
87
 10
6.7203
 20
10.4187
  0
VERTEX
  8
87
 10
6.5295
 20
10.2725
  0
VERTEX
  8
87
 10
6.4279
 20
10.1949
  0
VERTEX
  8
87
 10
6.3601
 20
10.1317
  0
VERTEX
  8
87
 10
6.3008
 20
10.0677
  0
VERTEX
  8
87
 10
6.2458
 20
9.9965
  0
VERTEX
  8
87
 10
6.1889
 20
9.9124
  0
VERTEX
  8
87
 10
6.1282
 20
9.8097
  0
VERTEX
  8
87
 10
6.0690
 20
9.7007
  0
VERTEX
  8
87
 10
6.0154
 20
9.5859
  0
VERTEX
  8
87
 10
5.9775
 20
9.4570
  0
VERTEX
  8
87
 10
5.9497
 20
9.2230
  0
VERTEX
  8
87
 10
5.9497
 20
9.1317
  0
VERTEX
  8
87
 10
5.9804
 20
8.8895
  0
SEQEND
  8
87
  0
TEXT
  8
14
 10
6.9933
 20
10.6247
 40
0.250
 50
0.0000
  1
# 41
  7
STANDARD
  0
POINT
  8
2
 10
6.9933
 20
10.6247
  0
POINT
  8
3
 10
6.7203
 20
10.4187
  0
POINT
  8
3
 10
6.5295
 20
10.2725
  0
POINT
  8
3
 10
6.4279
 20
10.1949
  0
POINT
  8
3
 10
6.3601
 20
10.1317
  0
POINT
  8
3
 10
6.3008
 20
10.0677
  0
POINT
  8
3
 10
6.2458
 20
9.9965
  0
POINT
  8
3
 10
6.1889
 20
9.9124
  0
POINT
  8
3
 10
6.1282
 20
9.8097
  0
POINT
  8
3
 10
6.0690
 20
9.7007
  0
POINT
  8
3
 10
6.0154
 20
9.5859
  0
POINT
  8
3
 10
5.9775
 20
9.4570
  0
POINT
  8
3
 10
5.9497
 20
9.2230
  0
POINT
  8
3
 10
5.9497
 20
9.1317
  0
TEXT
  8
14
 10
5.9804
 20
8.8895
 40
0.250
 50
0.0000
  1
# 2
  7
STANDARD
  0
POINT
  8
2
 10
5.9804
 20
8.8895
  0
LINE
  8
6
 10
6.2582
 20
8.8896
 11
-8.2834
 21
8.8828
  0
ENDBLK
  0
BLOCK
  8
0
  2
8178V-P1- POUCH  100525 BLOCK-3RD FIT-COS_M
 70
64
 10
0.0000
 20
0.0000
  0
TEXT
  8
1
 10
15.6343
 20
16.4179
 40
0.250
 50
0.0000
  1
Piece Name: 8178V-P1- POUCH  100525 BLOCK-3RD FIT-COS
  7
STANDARD
  0
TEXT
  8
1
 10
15.6343
 20
16.5579
 40
0.250
 50
0.0000
  1
Quantity: 2,2
  7
STANDARD
  0
TEXT
  8
1
 10
15.6343
 20
16.6979
 40
0.250
 50
0.0000
  1
ANNOTATION: CUT X-04-A
  7
STANDARD
  0
TEXT
  8
1
 10
15.6343
 20
16.8379
 40
0.250
 50
0.0000
  1
CATEGORY: BACKPOU
  7
STANDARD
  0
TEXT
  8
1
 10
15.6343
 20
16.9779
 40
0.250
 50
0.0000
  1
Fabric: A
  7
STANDARD
  0
TEXT
  8
1
 10
15.6343
 20
17.1179
 40
0.250
 50
0.0000
  1
SIZE: M
  7
STANDARD
  0
POLYLINE
  8
1
 66
1
 70
0
  0
VERTEX
  8
1
 10
9.1562
 20
16.2650
  0
VERTEX
  8
1
 10
9.1175
 20
18.7385
  0
SEQEND
  8
1
  0
POLYLINE
  8
84
 66
1
 70
0
  0
VERTEX
  8
84
 10
9.1562
 20
16.2650
  0
VERTEX
  8
84
 10
9.1175
 20
18.7385
  0
SEQEND
  8
84
  0
POINT
  8
4
 10
9.1562
 20
16.2650
 30
0.1574
 39
0.0000
  0
TEXT
  8
1
 10
9.1562
 20
16.2650
 40
0.250
 50
0.0000
  1
# 2
  7
STANDARD
  0
POINT
  8
2
 10
9.1562
 20
16.2650
  0
TEXT
  8
1
 10
9.1175
 20
18.7385
 40
0.250
 50
0.0000
  1
# 22
  7
STANDARD
  0
POINT
  8
2
 10
9.1175
 20
18.7385
  0
POLYLINE
  8
1
 66
1
 70
0
  0
VERTEX
  8
1
 10
9.1175
 20
18.7385
  0
VERTEX
  8
1
 10
9.1175
 20
18.7385
  0
SEQEND
  8
1
  0
POLYLINE
  8
84
 66
1
 70
0
  0
VERTEX
  8
84
 10
9.1175
 20
18.7385
  0
VERTEX
  8
84
 10
9.1175
 20
18.7385
  0
SEQEND
  8
84
  0
TEXT
  8
1
 10
9.1175
 20
18.7385
 40
0.250
 50
0.0000
  1
# 22
  7
STANDARD
  0
POINT
  8
2
 10
9.1175
 20
18.7385
  0
POINT
  8
4
 10
9.1175
 20
18.7385
 30
0.1574
 39
0.0000
  0
TEXT
  8
1
 10
9.1175
 20
18.7385
 40
0.250
 50
0.0000
  1
# 22
  7
STANDARD
  0
POINT
  8
2
 10
9.1175
 20
18.7385
  0
POLYLINE
  8
1
 66
1
 70
0
  0
VERTEX
  8
1
 10
9.1175
 20
18.7385
  0
VERTEX
  8
1
 10
15.1447
 20
18.7412
  0
VERTEX
  8
1
 10
15.4472
 20
18.7373
  0
VERTEX
  8
1
 10
15.7448
 20
18.7333
  0
VERTEX
  8
1
 10
16.3293
 20
18.7390
  0
VERTEX
  8
1
 10
16.5377
 20
18.7461
  0
VERTEX
  8
1
 10
16.7528
 20
18.7359
  0
VERTEX
  8
1
 10
17.1113
 20
18.7047
  0
VERTEX
  8
1
 10
17.4860
 20
18.6746
  0
VERTEX
  8
1
 10
18.0929
 20
18.6232
  0
VERTEX
  8
1
 10
18.4847
 20
18.5686
  0
VERTEX
  8
1
 10
18.7780
 20
18.5139
  0
VERTEX
  8
1
 10
19.1673
 20
18.4048
  0
VERTEX
  8
1
 10
19.3370
 20
18.3137
  0
VERTEX
  8
1
 10
19.3370
 20
18.3137
  0
VERTEX
  8
1
 10
19.4705
 20
18.2390
  0
VERTEX
  8
1
 10
19.6863
 20
18.0836
  0
VERTEX
  8
1
 10
19.8160
 20
17.9722
  0
VERTEX
  8
1
 10
19.8844
 20
17.9138
  0
VERTEX
  8
1
 10
20.0727
 20
17.7277
  0
VERTEX
  8
1
 10
20.3037
 20
17.4926
  0
VERTEX
  8
1
 10
20.5466
 20
17.2433
  0
VERTEX
  8
1
 10
20.8845
 20
16.8708
  0
VERTEX
  8
1
 10
21.3962
 20
16.3239
  0
VERTEX
  8
1
 10
21.7193
 20
15.9638
  0
VERTEX
  8
1
 10
22.1511
 20
15.4464
  0
SEQEND
  8
1
  0
POLYLINE
  8
84
 66
1
 70
0
  0
VERTEX
  8
84
 10
9.1175
 20
18.7385
  0
VERTEX
  8
84
 10
15.1447
 20
18.7412
  0
VERTEX
  8
84
 10
15.4472
 20
18.7373
  0
VERTEX
  8
84
 10
15.7448
 20
18.7333
  0
VERTEX
  8
84
 10
16.3293
 20
18.7390
  0
VERTEX
  8
84
 10
16.5377
 20
18.7461
  0
VERTEX
  8
84
 10
16.7528
 20
18.7359
  0
VERTEX
  8
84
 10
17.1113
 20
18.7047
  0
VERTEX
  8
84
 10
17.4860
 20
18.6746
  0
VERTEX
  8
84
 10
18.0929
 20
18.6232
  0
VERTEX
  8
84
 10
18.4847
 20
18.5686
  0
VERTEX
  8
84
 10
18.7780
 20
18.5139
  0
VERTEX
  8
84
 10
18.9749
 20
18.4666
  0
VERTEX
  8
84
 10
19.1673
 20
18.4048
  0
VERTEX
  8
84
 10
19.3370
 20
18.3137
  0
VERTEX
  8
84
 10
19.3370
 20
18.3137
  0
VERTEX
  8
84
 10
19.4705
 20
18.2390
  0
VERTEX
  8
84
 10
19.6863
 20
18.0836
  0
VERTEX
  8
84
 10
19.8160
 20
17.9722
  0
VERTEX
  8
84
 10
19.8844
 20
17.9138
  0
VERTEX
  8
84
 10
20.0727
 20
17.7277
  0
VERTEX
  8
84
 10
20.3037
 20
17.4926
  0
VERTEX
  8
84
 10
20.5466
 20
17.2433
  0
VERTEX
  8
84
 10
20.8845
 20
16.8708
  0
VERTEX
  8
84
 10
21.3962
 20
16.3239
  0
VERTEX
  8
84
 10
21.7193
 20
15.9638
  0
VERTEX
  8
84
 10
22.1511
 20
15.4464
  0
SEQEND
  8
84
  0
POINT
  8
4
 10
9.1175
 20
18.7385
 30
0.1574
 39
0.0000
  0
TEXT
  8
1
 10
9.1175
 20
18.7385
 40
0.250
 50
0.0000
  1
# 22
  7
STANDARD
  0
POINT
  8
2
 10
9.1175
 20
18.7385
  0
POINT
  8
3
 10
15.1447
 20
18.7412
  0
POINT
  8
3
 10
15.4472
 20
18.7373
  0
POINT
  8
3
 10
15.7448
 20
18.7333
  0
POINT
  8
3
 10
16.3293
 20
18.7390
  0
POINT
  8
3
 10
16.5377
 20
18.7461
  0
POINT
  8
3
 10
16.7528
 20
18.7359
  0
TEXT
  8
1
 10
17.1113
 20
18.7047
 40
0.250
 50
0.0000
  1
# 23
  7
STANDARD
  0
POINT
  8
3
 10
17.1113
 20
18.7047
  0
POINT
  8
3
 10
17.4860
 20
18.6746
  0
POINT
  8
3
 10
18.0929
 20
18.6232
  0
POINT
  8
3
 10
18.4847
 20
18.5686
  0
POINT
  8
3
 10
18.7780
 20
18.5139
  0
TEXT
  8
1
 10
19.1673
 20
18.4048
 40
0.250
 50
0.0000
  1
# 24
  7
STANDARD
  0
POINT
  8
3
 10
19.1673
 20
18.4048
  0
POINT
  8
3
 10
19.3370
 20
18.3137
  0
POINT
  8
2
 10
19.3370
 20
18.3137
  0
POINT
  8
3
 10
19.4705
 20
18.2390
  0
POINT
  8
3
 10
19.6863
 20
18.0836
  0
POINT
  8
3
 10
19.8160
 20
17.9722
  0
POINT
  8
3
 10
19.8844
 20
17.9138
  0
POINT
  8
3
 10
20.0727
 20
17.7277
  0
POINT
  8
3
 10
20.3037
 20
17.4926
  0
POINT
  8
3
 10
20.5466
 20
17.2433
  0
POINT
  8
3
 10
20.8845
 20
16.8708
  0
POINT
  8
3
 10
21.3962
 20
16.3239
  0
POINT
  8
3
 10
21.7193
 20
15.9638
  0
TEXT
  8
1
 10
22.1511
 20
15.4464
 40
0.250
 50
0.0000
  1
# 25
  7
STANDARD
  0
POINT
  8
2
 10
22.1511
 20
15.4464
  0
POLYLINE
  8
1
 66
1
 70
0
  0
VERTEX
  8
1
 10
22.1511
 20
15.4464
  0
VERTEX
  8
1
 10
22.1511
 20
15.4464
  0
SEQEND
  8
1
  0
POLYLINE
  8
84
 66
1
 70
0
  0
VERTEX
  8
84
 10
22.1511
 20
15.4464
  0
VERTEX
  8
84
 10
22.1511
 20
15.4464
  0
SEQEND
  8
84
  0
TEXT
  8
1
 10
22.1511
 20
15.4464
 40
0.250
 50
0.0000
  1
# 25
  7
STANDARD
  0
POINT
  8
2
 10
22.1511
 20
15.4464
  0
TEXT
  8
1
 10
22.1511
 20
15.4464
 40
0.250
 50
0.0000
  1
# 25
  7
STANDARD
  0
POINT
  8
2
 10
22.1511
 20
15.4464
  0
POLYLINE
  8
1
 66
1
 70
0
  0
VERTEX
  8
1
 10
22.1511
 20
15.4464
  0
VERTEX
  8
1
 10
21.2124
 20
14.0897
  0
SEQEND
  8
1
  0
POLYLINE
  8
84
 66
1
 70
0
  0
VERTEX
  8
84
 10
22.1511
 20
15.4464
  0
VERTEX
  8
84
 10
21.2124
 20
14.0897
  0
SEQEND
  8
84
  0
TEXT
  8
1
 10
22.1511
 20
15.4464
 40
0.250
 50
0.0000
  1
# 25
  7
STANDARD
  0
POINT
  8
2
 10
22.1511
 20
15.4464
  0
TEXT
  8
1
 10
21.2124
 20
14.0897
 40
0.250
 50
0.0000
  1
# 25
  7
STANDARD
  0
POINT
  8
2
 10
21.2124
 20
14.0897
  0
POLYLINE
  8
1
 66
1
 70
0
  0
VERTEX
  8
1
 10
21.2124
 20
14.0897
  0
VERTEX
  8
1
 10
21.2124
 20
14.0897
  0
SEQEND
  8
1
  0
POLYLINE
  8
84
 66
1
 70
0
  0
VERTEX
  8
84
 10
21.2124
 20
14.0897
  0
VERTEX
  8
84
 10
21.2124
 20
14.0897
  0
SEQEND
  8
84
  0
TEXT
  8
1
 10
21.2124
 20
14.0897
 40
0.250
 50
0.0000
  1
# 25
  7
STANDARD
  0
POINT
  8
2
 10
21.2124
 20
14.0897
  0
TEXT
  8
1
 10
21.2124
 20
14.0897
 40
0.250
 50
0.0000
  1
# 25
  7
STANDARD
  0
POINT
  8
2
 10
21.2124
 20
14.0897
  0
POLYLINE
  8
1
 66
1
 70
0
  0
VERTEX
  8
1
 10
21.2124
 20
14.0897
  0
VERTEX
  8
1
 10
20.7073
 20
14.5786
  0
VERTEX
  8
1
 10
20.4782
 20
14.7712
  0
VERTEX
  8
1
 10
20.3350
 20
14.8851
  0
VERTEX
  8
1
 10
20.2454
 20
14.9515
  0
VERTEX
  8
1
 10
20.1315
 20
15.0391
  0
VERTEX
  8
1
 10
19.9986
 20
15.1350
  0
VERTEX
  8
1
 10
19.7235
 20
15.3058
  0
VERTEX
  8
1
 10
19.2854
 20
15.5447
  0
VERTEX
  8
1
 10
19.0732
 20
15.6435
  0
VERTEX
  8
1
 10
18.9580
 20
15.6972
  0
VERTEX
  8
1
 10
18.7884
 20
15.7592
  0
VERTEX
  8
1
 10
18.6623
 20
15.8049
  0
VERTEX
  8
1
 10
18.6012
 20
15.8242
  0
VERTEX
  8
1
 10
18.0642
 20
15.9932
  0
VERTEX
  8
1
 10
18.0642
 20
15.9932
  0
VERTEX
  8
1
 10
17.9289
 20
16.0266
  0
VERTEX
  8
1
 10
17.6375
 20
16.0848
  0
VERTEX
  8
1
 10
17.3168
 20
16.1374
  0
VERTEX
  8
1
 10
16.7161
 20
16.2193
  0
VERTEX
  8
1
 10
16.5417
 20
16.2418
  0
VERTEX
  8
1
 10
15.1577
 20
16.2746
  0
VERTEX
  8
1
 10
14.6654
 20
16.2698
  0
VERTEX
  8
1
 10
13.3174
 20
16.2744
  0
VERTEX
  8
1
 10
9.1562
 20
16.2650
  0
SEQEND
  8
1
  0
POLYLINE
  8
84
 66
1
 70
0
  0
VERTEX
  8
84
 10
21.2124
 20
14.0897
  0
VERTEX
  8
84
 10
20.7073
 20
14.5786
  0
VERTEX
  8
84
 10
20.4782
 20
14.7712
  0
VERTEX
  8
84
 10
20.3350
 20
14.8851
  0
VERTEX
  8
84
 10
20.2454
 20
14.9515
  0
VERTEX
  8
84
 10
20.1315
 20
15.0391
  0
VERTEX
  8
84
 10
19.9986
 20
15.1350
  0
VERTEX
  8
84
 10
19.7235
 20
15.3058
  0
VERTEX
  8
84
 10
19.2854
 20
15.5447
  0
VERTEX
  8
84
 10
19.0732
 20
15.6435
  0
VERTEX
  8
84
 10
18.9580
 20
15.6972
  0
VERTEX
  8
84
 10
18.7884
 20
15.7592
  0
VERTEX
  8
84
 10
18.6623
 20
15.8049
  0
VERTEX
  8
84
 10
18.6012
 20
15.8242
  0
VERTEX
  8
84
 10
18.0642
 20
15.9932
  0
VERTEX
  8
84
 10
18.0642
 20
15.9932
  0
VERTEX
  8
84
 10
17.9289
 20
16.0266
  0
VERTEX
  8
84
 10
17.6375
 20
16.0848
  0
VERTEX
  8
84
 10
17.3168
 20
16.1374
  0
VERTEX
  8
84
 10
16.7161
 20
16.2193
  0
VERTEX
  8
84
 10
16.5417
 20
16.2418
  0
VERTEX
  8
84
 10
15.8502
 20
16.2699
  0
VERTEX
  8
84
 10
15.1577
 20
16.2746
  0
VERTEX
  8
84
 10
14.6654
 20
16.2698
  0
VERTEX
  8
84
 10
13.3174
 20
16.2744
  0
VERTEX
  8
84
 10
9.1562
 20
16.2650
  0
SEQEND
  8
84
  0
TEXT
  8
1
 10
21.2124
 20
14.0897
 40
0.250
 50
0.0000
  1
# 25
  7
STANDARD
  0
POINT
  8
2
 10
21.2124
 20
14.0897
  0
POINT
  8
3
 10
20.7073
 20
14.5786
  0
POINT
  8
3
 10
20.4782
 20
14.7712
  0
POINT
  8
3
 10
20.3350
 20
14.8851
  0
POINT
  8
3
 10
20.2454
 20
14.9515
  0
POINT
  8
3
 10
20.1315
 20
15.0391
  0
POINT
  8
3
 10
19.9986
 20
15.1350
  0
POINT
  8
3
 10
19.7235
 20
15.3058
  0
POINT
  8
3
 10
19.2854
 20
15.5447
  0
POINT
  8
3
 10
19.0732
 20
15.6435
  0
POINT
  8
3
 10
18.9580
 20
15.6972
  0
POINT
  8
3
 10
18.7884
 20
15.7592
  0
POINT
  8
3
 10
18.6623
 20
15.8049
  0
POINT
  8
3
 10
18.6012
 20
15.8242
  0
TEXT
  8
1
 10
18.0642
 20
15.9932
 40
0.250
 50
0.0000
  1
# 26
  7
STANDARD
  0
POINT
  8
3
 10
18.0642
 20
15.9932
  0
POINT
  8
2
 10
18.0642
 20
15.9932
  0
POINT
  8
3
 10
17.9289
 20
16.0266
  0
POINT
  8
3
 10
17.6375
 20
16.0848
  0
POINT
  8
3
 10
17.3168
 20
16.1374
  0
TEXT
  8
1
 10
16.7161
 20
16.2193
 40
0.250
 50
0.0000
  1
# 27
  7
STANDARD
  0
POINT
  8
3
 10
16.7161
 20
16.2193
  0
POINT
  8
3
 10
16.5417
 20
16.2418
  0
POINT
  8
3
 10
15.1577
 20
16.2746
  0
POINT
  8
3
 10
14.6654
 20
16.2698
  0
POINT
  8
3
 10
13.3174
 20
16.2744
  0
POINT
  8
2
 10
9.1562
 20
16.2650
  0
LINE
  8
7
 10
13.4551
 20
16.9778
 11
19.1885
 21
16.9778
  0
LINE
  8
5
 10
13.4551
 20
16.9778
 11
19.1885
 21
16.9778
  0
POINT
  8
2
 10
13.4551
 20
16.9778
  0
POINT
  8
2
 10
19.1885
 20
16.9778
  0
LINE
  8
8
 10
15.1277
 20
18.4599
 11
15.1268
 21
16.5553
  0
POLYLINE
  8
85
 66
1
 70
0
  0
VERTEX
  8
85
 10
15.1277
 20
18.4599
  0
VERTEX
  8
85
 10
15.1268
 20
16.5553
  0
SEQEND
  8
85
  0
TEXT
  8
8
 10
15.1277
 20
18.4599
 40
0.250
 50
0.0000
  1
NM
  7
STANDARD
  0
TEXT
  8
85
 10
15.1277
 20
18.4599
 40
0.250
 50
0.0000
  1
NM
  7
STANDARD
  0
POINT
  8
2
 10
15.1277
 20
18.4599
  0
POINT
  8
2
 10
15.1268
 20
16.5553
  0
LINE
  8
8
 10
16.5853
 20
16.5221
 11
16.5549
 21
18.4653
  0
POLYLINE
  8
85
 66
1
 70
0
  0
VERTEX
  8
85
 10
16.5853
 20
16.5221
  0
VERTEX
  8
85
 10
16.5549
 20
18.4653
  0
SEQEND
  8
85
  0
TEXT
  8
8
 10
16.5853
 20
16.5221
 40
0.250
 50
0.0000
  1
NM
  7
STANDARD
  0
TEXT
  8
85
 10
16.5853
 20
16.5221
 40
0.250
 50
0.0000
  1
NM
  7
STANDARD
  0
TEXT
  8
8
 10
16.5853
 20
16.5221
 40
0.250
 50
0.0000
  1
# 28
  7
STANDARD
  0
POINT
  8
2
 10
16.5853
 20
16.5221
  0
TEXT
  8
8
 10
16.5549
 20
18.4653
 40
0.250
 50
0.0000
  1
# 29
  7
STANDARD
  0
POINT
  8
2
 10
16.5549
 20
18.4653
  0
POLYLINE
  8
14
 66
1
 70
0
  0
VERTEX
  8
14
 10
10.5300
 20
16.5437
  0
VERTEX
  8
14
 10
10.5000
 20
18.4635
  0
SEQEND
  8
14
  0
POLYLINE
  8
87
 66
1
 70
0
  0
VERTEX
  8
87
 10
10.5300
 20
16.5437
  0
VERTEX
  8
87
 10
10.5000
 20
18.4635
  0
SEQEND
  8
87
  0
POINT
  8
4
 10
10.5300
 20
16.5437
 30
0.1574
 39
0.0000
  0
TEXT
  8
14
 10
10.5300
 20
16.5437
 40
0.250
 50
0.0000
  1
# 2
  7
STANDARD
  0
POINT
  8
2
 10
10.5300
 20
16.5437
  0
TEXT
  8
14
 10
10.5000
 20
18.4635
 40
0.250
 50
0.0000
  1
# 22
  7
STANDARD
  0
POINT
  8
2
 10
10.5000
 20
18.4635
  0
POLYLINE
  8
14
 66
1
 70
0
  0
VERTEX
  8
14
 10
10.5000
 20
18.4635
  0
VERTEX
  8
14
 10
10.5000
 20
18.4635
  0
SEQEND
  8
14
  0
POLYLINE
  8
87
 66
1
 70
0
  0
VERTEX
  8
87
 10
10.5000
 20
18.4635
  0
VERTEX
  8
87
 10
10.5000
 20
18.4635
  0
SEQEND
  8
87
  0
TEXT
  8
14
 10
10.5000
 20
18.4635
 40
0.250
 50
0.0000
  1
# 22
  7
STANDARD
  0
POINT
  8
2
 10
10.5000
 20
18.4635
  0
POINT
  8
4
 10
10.5000
 20
18.4635
 30
0.1574
 39
0.0000
  0
TEXT
  8
14
 10
10.5000
 20
18.4635
 40
0.250
 50
0.0000
  1
# 22
  7
STANDARD
  0
POINT
  8
2
 10
10.5000
 20
18.4635
  0
POLYLINE
  8
14
 66
1
 70
0
  0
VERTEX
  8
14
 10
10.5000
 20
18.4635
  0
VERTEX
  8
14
 10
15.1430
 20
18.4656
  0
VERTEX
  8
14
 10
15.4435
 20
18.4617
  0
VERTEX
  8
14
 10
15.7443
 20
18.4577
  0
VERTEX
  8
14
 10
16.3353
 20
18.4634
  0
VERTEX
  8
14
 10
16.5359
 20
18.4703
  0
VERTEX
  8
14
 10
16.7343
 20
18.4609
  0
VERTEX
  8
14
 10
17.0883
 20
18.4301
  0
VERTEX
  8
14
 10
17.4633
 20
18.3999
  0
VERTEX
  8
14
 10
18.0622
 20
18.3492
  0
VERTEX
  8
14
 10
18.4404
 20
18.2965
  0
VERTEX
  8
14
 10
18.7154
 20
18.2452
  0
VERTEX
  8
14
 10
19.0637
 20
18.1476
  0
VERTEX
  8
14
 10
19.2045
 20
18.0720
  0
VERTEX
  8
14
 10
19.2045
 20
18.0720
  0
VERTEX
  8
14
 10
19.3222
 20
18.0062
  0
VERTEX
  8
14
 10
19.5157
 20
17.8668
  0
VERTEX
  8
14
 10
19.6367
 20
17.7629
  0
VERTEX
  8
14
 10
19.6978
 20
17.7107
  0
VERTEX
  8
14
 10
19.8775
 20
17.5331
  0
VERTEX
  8
14
 10
20.1067
 20
17.2999
  0
VERTEX
  8
14
 10
20.3458
 20
17.0545
  0
VERTEX
  8
14
 10
20.6818
 20
16.6841
  0
VERTEX
  8
14
 10
21.1930
 20
16.1377
  0
VERTEX
  8
14
 10
21.5109
 20
15.7834
  0
VERTEX
  8
14
 10
21.8052
 20
15.4308
  0
SEQEND
  8
14
  0
POLYLINE
  8
87
 66
1
 70
0
  0
VERTEX
  8
87
 10
10.5000
 20
18.4635
  0
VERTEX
  8
87
 10
15.1430
 20
18.4656
  0
VERTEX
  8
87
 10
15.4435
 20
18.4617
  0
VERTEX
  8
87
 10
15.7443
 20
18.4577
  0
VERTEX
  8
87
 10
16.3353
 20
18.4634
  0
VERTEX
  8
87
 10
16.5359
 20
18.4703
  0
VERTEX
  8
87
 10
16.7343
 20
18.4609
  0
VERTEX
  8
87
 10
17.0883
 20
18.4301
  0
VERTEX
  8
87
 10
17.4633
 20
18.3999
  0
VERTEX
  8
87
 10
18.0622
 20
18.3492
  0
VERTEX
  8
87
 10
18.4404
 20
18.2965
  0
VERTEX
  8
87
 10
18.7154
 20
18.2452
  0
VERTEX
  8
87
 10
18.8916
 20
18.2029
  0
VERTEX
  8
87
 10
19.0637
 20
18.1476
  0
VERTEX
  8
87
 10
19.2045
 20
18.0720
  0
VERTEX
  8
87
 10
19.2045
 20
18.0720
  0
VERTEX
  8
87
 10
19.3222
 20
18.0062
  0
VERTEX
  8
87
 10
19.5157
 20
17.8668
  0
VERTEX
  8
87
 10
19.6367
 20
17.7629
  0
VERTEX
  8
87
 10
19.6978
 20
17.7107
  0
VERTEX
  8
87
 10
19.8775
 20
17.5331
  0
VERTEX
  8
87
 10
20.1067
 20
17.2999
  0
VERTEX
  8
87
 10
20.3458
 20
17.0545
  0
VERTEX
  8
87
 10
20.6818
 20
16.6841
  0
VERTEX
  8
87
 10
21.1930
 20
16.1377
  0
VERTEX
  8
87
 10
21.5109
 20
15.7834
  0
VERTEX
  8
87
 10
21.8052
 20
15.4308
  0
SEQEND
  8
87
  0
POINT
  8
4
 10
10.5000
 20
18.4635
 30
0.1574
 39
0.0000
  0
TEXT
  8
14
 10
10.5000
 20
18.4635
 40
0.250
 50
0.0000
  1
# 22
  7
STANDARD
  0
POINT
  8
2
 10
10.5000
 20
18.4635
  0
POINT
  8
3
 10
15.1430
 20
18.4656
  0
POINT
  8
3
 10
15.4435
 20
18.4617
  0
POINT
  8
3
 10
15.7443
 20
18.4577
  0
POINT
  8
3
 10
16.3353
 20
18.4634
  0
POINT
  8
3
 10
16.5359
 20
18.4703
  0
POINT
  8
3
 10
16.7343
 20
18.4609
  0
TEXT
  8
14
 10
17.0883
 20
18.4301
 40
0.250
 50
0.0000
  1
# 23
  7
STANDARD
  0
POINT
  8
3
 10
17.0883
 20
18.4301
  0
POINT
  8
3
 10
17.4633
 20
18.3999
  0
POINT
  8
3
 10
18.0622
 20
18.3492
  0
POINT
  8
3
 10
18.4404
 20
18.2965
  0
POINT
  8
3
 10
18.7154
 20
18.2452
  0
TEXT
  8
14
 10
19.0637
 20
18.1476
 40
0.250
 50
0.0000
  1
# 24
  7
STANDARD
  0
POINT
  8
3
 10
19.0637
 20
18.1476
  0
POINT
  8
3
 10
19.2045
 20
18.0720
  0
POINT
  8
2
 10
19.2045
 20
18.0720
  0
POINT
  8
3
 10
19.3222
 20
18.0062
  0
POINT
  8
3
 10
19.5157
 20
17.8668
  0
POINT
  8
3
 10
19.6367
 20
17.7629
  0
POINT
  8
3
 10
19.6978
 20
17.7107
  0
POINT
  8
3
 10
19.8775
 20
17.5331
  0
POINT
  8
3
 10
20.1067
 20
17.2999
  0
POINT
  8
3
 10
20.3458
 20
17.0545
  0
POINT
  8
3
 10
20.6818
 20
16.6841
  0
POINT
  8
3
 10
21.1930
 20
16.1377
  0
POINT
  8
3
 10
21.5109
 20
15.7834
  0
TEXT
  8
14
 10
21.8052
 20
15.4308
 40
0.250
 50
0.0000
  1
# 25
  7
STANDARD
  0
POINT
  8
2
 10
21.8052
 20
15.4308
  0
POLYLINE
  8
14
 66
1
 70
0
  0
VERTEX
  8
14
 10
21.8052
 20
15.4308
  0
VERTEX
  8
14
 10
21.8052
 20
15.4308
  0
SEQEND
  8
14
  0
POLYLINE
  8
87
 66
1
 70
0
  0
VERTEX
  8
87
 10
21.8052
 20
15.4308
  0
VERTEX
  8
87
 10
21.8052
 20
15.4308
  0
SEQEND
  8
87
  0
TEXT
  8
14
 10
21.8052
 20
15.4308
 40
0.250
 50
0.0000
  1
# 25
  7
STANDARD
  0
POINT
  8
2
 10
21.8052
 20
15.4308
  0
TEXT
  8
14
 10
21.8052
 20
15.4308
 40
0.250
 50
0.0000
  1
# 25
  7
STANDARD
  0
POINT
  8
2
 10
21.8052
 20
15.4308
  0
POLYLINE
  8
14
 66
1
 70
0
  0
VERTEX
  8
14
 10
21.8052
 20
15.4308
  0
VERTEX
  8
14
 10
21.1706
 20
14.5137
  0
SEQEND
  8
14
  0
POLYLINE
  8
87
 66
1
 70
0
  0
VERTEX
  8
87
 10
21.8052
 20
15.4308
  0
VERTEX
  8
87
 10
21.1706
 20
14.5137
  0
SEQEND
  8
87
  0
TEXT
  8
14
 10
21.8052
 20
15.4308
 40
0.250
 50
0.0000
  1
# 25
  7
STANDARD
  0
POINT
  8
2
 10
21.8052
 20
15.4308
  0
TEXT
  8
14
 10
21.1706
 20
14.5137
 40
0.250
 50
0.0000
  1
# 25
  7
STANDARD
  0
POINT
  8
2
 10
21.1706
 20
14.5137
  0
POLYLINE
  8
14
 66
1
 70
0
  0
VERTEX
  8
14
 10
21.1706
 20
14.5137
  0
VERTEX
  8
14
 10
21.1706
 20
14.5137
  0
SEQEND
  8
14
  0
POLYLINE
  8
87
 66
1
 70
0
  0
VERTEX
  8
87
 10
21.1706
 20
14.5137
  0
VERTEX
  8
87
 10
21.1706
 20
14.5137
  0
SEQEND
  8
87
  0
TEXT
  8
14
 10
21.1706
 20
14.5137
 40
0.250
 50
0.0000
  1
# 25
  7
STANDARD
  0
POINT
  8
2
 10
21.1706
 20
14.5137
  0
TEXT
  8
14
 10
21.1706
 20
14.5137
 40
0.250
 50
0.0000
  1
# 25
  7
STANDARD
  0
POINT
  8
2
 10
21.1706
 20
14.5137
  0
POLYLINE
  8
14
 66
1
 70
0
  0
VERTEX
  8
14
 10
21.1706
 20
14.5137
  0
VERTEX
  8
14
 10
20.8920
 20
14.7833
  0
VERTEX
  8
14
 10
20.6527
 20
14.9846
  0
VERTEX
  8
14
 10
20.5029
 20
15.1037
  0
VERTEX
  8
14
 10
20.4115
 20
15.1715
  0
VERTEX
  8
14
 10
20.2962
 20
15.2601
  0
VERTEX
  8
14
 10
20.1521
 20
15.3641
  0
VERTEX
  8
14
 10
19.8623
 20
15.5440
  0
VERTEX
  8
14
 10
19.4097
 20
15.7909
  0
VERTEX
  8
14
 10
19.1896
 20
15.8933
  0
VERTEX
  8
14
 10
19.0637
 20
15.9520
  0
VERTEX
  8
14
 10
18.8827
 20
16.0182
  0
VERTEX
  8
14
 10
18.7508
 20
16.0660
  0
VERTEX
  8
14
 10
18.6839
 20
16.0871
  0
VERTEX
  8
14
 10
18.1387
 20
16.2587
  0
VERTEX
  8
14
 10
18.1387
 20
16.2587
  0
VERTEX
  8
14
 10
17.9889
 20
16.2957
  0
VERTEX
  8
14
 10
17.6868
 20
16.3560
  0
VERTEX
  8
14
 10
17.3577
 20
16.4100
  0
VERTEX
  8
14
 10
16.7523
 20
16.4925
  0
VERTEX
  8
14
 10
16.5627
 20
16.5170
  0
VERTEX
  8
14
 10
15.1596
 20
16.5502
  0
VERTEX
  8
14
 10
14.6645
 20
16.5454
  0
VERTEX
  8
14
 10
13.3176
 20
16.5500
  0
VERTEX
  8
14
 10
10.5300
 20
16.5437
  0
SEQEND
  8
14
  0
POLYLINE
  8
87
 66
1
 70
0
  0
VERTEX
  8
87
 10
21.1706
 20
14.5137
  0
VERTEX
  8
87
 10
20.8920
 20
14.7833
  0
VERTEX
  8
87
 10
20.6527
 20
14.9846
  0
VERTEX
  8
87
 10
20.5029
 20
15.1037
  0
VERTEX
  8
87
 10
20.4115
 20
15.1715
  0
VERTEX
  8
87
 10
20.2962
 20
15.2601
  0
VERTEX
  8
87
 10
20.1521
 20
15.3641
  0
VERTEX
  8
87
 10
19.8623
 20
15.5440
  0
VERTEX
  8
87
 10
19.4097
 20
15.7909
  0
VERTEX
  8
87
 10
19.1896
 20
15.8933
  0
VERTEX
  8
87
 10
19.0637
 20
15.9520
  0
VERTEX
  8
87
 10
18.8827
 20
16.0182
  0
VERTEX
  8
87
 10
18.7508
 20
16.0660
  0
VERTEX
  8
87
 10
18.6839
 20
16.0871
  0
VERTEX
  8
87
 10
18.1387
 20
16.2587
  0
VERTEX
  8
87
 10
18.1387
 20
16.2587
  0
VERTEX
  8
87
 10
17.9889
 20
16.2957
  0
VERTEX
  8
87
 10
17.6868
 20
16.3560
  0
VERTEX
  8
87
 10
17.3577
 20
16.4100
  0
VERTEX
  8
87
 10
16.7523
 20
16.4925
  0
VERTEX
  8
87
 10
16.5627
 20
16.5170
  0
VERTEX
  8
87
 10
15.8616
 20
16.5455
  0
VERTEX
  8
87
 10
15.1596
 20
16.5502
  0
VERTEX
  8
87
 10
14.6645
 20
16.5454
  0
VERTEX
  8
87
 10
13.3176
 20
16.5500
  0
VERTEX
  8
87
 10
10.5300
 20
16.5437
  0
SEQEND
  8
87
  0
TEXT
  8
14
 10
21.1706
 20
14.5137
 40
0.250
 50
0.0000
  1
# 25
  7
STANDARD
  0
POINT
  8
2
 10
21.1706
 20
14.5137
  0
POINT
  8
3
 10
20.8920
 20
14.7833
  0
POINT
  8
3
 10
20.6527
 20
14.9846
  0
POINT
  8
3
 10
20.5029
 20
15.1037
  0
POINT
  8
3
 10
20.4115
 20
15.1715
  0
POINT
  8
3
 10
20.2962
 20
15.2601
  0
POINT
  8
3
 10
20.1521
 20
15.3641
  0
POINT
  8
3
 10
19.8623
 20
15.5440
  0
POINT
  8
3
 10
19.4097
 20
15.7909
  0
POINT
  8
3
 10
19.1896
 20
15.8933
  0
POINT
  8
3
 10
19.0637
 20
15.9520
  0
POINT
  8
3
 10
18.8827
 20
16.0182
  0
POINT
  8
3
 10
18.7508
 20
16.0660
  0
POINT
  8
3
 10
18.6839
 20
16.0871
  0
TEXT
  8
14
 10
18.1387
 20
16.2587
 40
0.250
 50
0.0000
  1
# 26
  7
STANDARD
  0
POINT
  8
3
 10
18.1387
 20
16.2587
  0
POINT
  8
2
 10
18.1387
 20
16.2587
  0
POINT
  8
3
 10
17.9889
 20
16.2957
  0
POINT
  8
3
 10
17.6868
 20
16.3560
  0
POINT
  8
3
 10
17.3577
 20
16.4100
  0
TEXT
  8
14
 10
16.7523
 20
16.4925
 40
0.250
 50
0.0000
  1
# 27
  7
STANDARD
  0
POINT
  8
3
 10
16.7523
 20
16.4925
  0
POINT
  8
3
 10
16.5627
 20
16.5170
  0
POINT
  8
3
 10
15.1596
 20
16.5502
  0
POINT
  8
3
 10
14.6645
 20
16.5454
  0
POINT
  8
3
 10
13.3176
 20
16.5500
  0
POINT
  8
2
 10
10.5300
 20
16.5437
  0
ENDBLK
  0
BLOCK
  8
0
  2
8178V-P1- FRONT 100525 BLOCK 3RD FIT-COS_M
 70
64
 10
0.0000
 20
0.0000
  0
TEXT
  8
1
 10
34.1045
 20
13.7687
 40
0.250
 50
0.0000
  1
Piece Name: 8178V-P1- FRONT 100525 BLOCK 3RD FIT-COS
  7
STANDARD
  0
TEXT
  8
1
 10
34.1045
 20
13.9087
 40
0.250
 50
0.0000
  1
Quantity: 1,1
  7
STANDARD
  0
TEXT
  8
1
 10
34.1045
 20
14.0487
 40
0.250
 50
0.0000
  1
ANNOTATION: CUT X 02
  7
STANDARD
  0
TEXT
  8
1
 10
34.1045
 20
14.1887
 40
0.250
 50
0.0000
  1
CATEGORY: FRONT
  7
STANDARD
  0
TEXT
  8
1
 10
34.1045
 20
14.3287
 40
0.250
 50
0.0000
  1
Fabric: A
  7
STANDARD
  0
TEXT
  8
1
 10
34.1045
 20
14.4687
 40
0.250
 50
0.0000
  1
SIZE: M
  7
STANDARD
  0
POLYLINE
  8
1
 66
1
 70
0
  0
VERTEX
  8
1
 10
39.1846
 20
8.8503
  0
VERTEX
  8
1
 10
35.4601
 20
9.3418
  0
VERTEX
  8
1
 10
33.9600
 20
9.5562
  0
VERTEX
  8
1
 10
32.5507
 20
9.7577
  0
VERTEX
  8
1
 10
26.5847
 20
10.6247
  0
SEQEND
  8
1
  0
POLYLINE
  8
84
 66
1
 70
0
  0
VERTEX
  8
84
 10
39.1846
 20
8.8503
  0
VERTEX
  8
84
 10
35.4601
 20
9.3418
  0
VERTEX
  8
84
 10
33.9600
 20
9.5562
  0
VERTEX
  8
84
 10
32.5507
 20
9.7577
  0
VERTEX
  8
84
 10
26.5847
 20
10.6247
  0
SEQEND
  8
84
  0
TEXT
  8
1
 10
39.1846
 20
8.8503
 40
0.250
 50
0.0000
  1
# 1
  7
STANDARD
  0
POINT
  8
2
 10
39.1846
 20
8.8503
  0
TEXT
  8
1
 10
35.4601
 20
9.3418
 40
0.250
 50
0.0000
  1
# 2
  7
STANDARD
  0
POINT
  8
3
 10
35.4601
 20
9.3418
  0
POINT
  8
3
 10
33.9600
 20
9.5562
  0
TEXT
  8
1
 10
32.5507
 20
9.7577
 40
0.250
 50
0.0000
  1
# 3
  7
STANDARD
  0
POINT
  8
3
 10
32.5507
 20
9.7577
  0
TEXT
  8
1
 10
26.5847
 20
10.6247
 40
0.250
 50
0.0000
  1
# 3
  7
STANDARD
  0
POINT
  8
2
 10
26.5847
 20
10.6247
  0
POLYLINE
  8
1
 66
1
 70
0
  0
VERTEX
  8
1
 10
26.5847
 20
10.6247
  0
VERTEX
  8
1
 10
26.5847
 20
10.6247
  0
SEQEND
  8
1
  0
POLYLINE
  8
84
 66
1
 70
0
  0
VERTEX
  8
84
 10
26.5847
 20
10.6247
  0
VERTEX
  8
84
 10
26.5847
 20
10.6247
  0
SEQEND
  8
84
  0
TEXT
  8
1
 10
26.5847
 20
10.6247
 40
0.250
 50
0.0000
  1
# 3
  7
STANDARD
  0
POINT
  8
2
 10
26.5847
 20
10.6247
  0
TEXT
  8
1
 10
26.5847
 20
10.6247
 40
0.250
 50
0.0000
  1
# 3
  7
STANDARD
  0
POINT
  8
2
 10
26.5847
 20
10.6247
  0
POLYLINE
  8
1
 66
1
 70
0
  0
VERTEX
  8
1
 10
26.5847
 20
10.6247
  0
VERTEX
  8
1
 10
26.9623
 20
12.7814
  0
VERTEX
  8
1
 10
27.2094
 20
14.4180
  0
VERTEX
  8
1
 10
27.4580
 20
16.2826
  0
VERTEX
  8
1
 10
27.4653
 20
16.7105
  0
SEQEND
  8
1
  0
POLYLINE
  8
84
 66
1
 70
0
  0
VERTEX
  8
84
 10
26.5847
 20
10.6247
  0
VERTEX
  8
84
 10
26.9623
 20
12.7814
  0
VERTEX
  8
84
 10
27.2094
 20
14.4180
  0
VERTEX
  8
84
 10
27.3489
 20
15.3486
  0
VERTEX
  8
84
 10
27.4110
 20
15.8149
  0
VERTEX
  8
84
 10
27.4580
 20
16.2826
  0
VERTEX
  8
84
 10
27.4653
 20
16.7105
  0
SEQEND
  8
84
  0
TEXT
  8
1
 10
26.5847
 20
10.6247
 40
0.250
 50
0.0000
  1
# 3
  7
STANDARD
  0
POINT
  8
2
 10
26.5847
 20
10.6247
  0
POINT
  8
3
 10
26.9623
 20
12.7814
  0
POINT
  8
3
 10
27.2094
 20
14.4180
  0
POINT
  8
3
 10
27.4580
 20
16.2826
  0
TEXT
  8
1
 10
27.4653
 20
16.7105
 40
0.250
 50
0.0000
  1
# 4
  7
STANDARD
  0
POINT
  8
2
 10
27.4653
 20
16.7105
  0
POLYLINE
  8
1
 66
1
 70
0
  0
VERTEX
  8
1
 10
27.4653
 20
16.7105
  0
VERTEX
  8
1
 10
27.4653
 20
16.7105
  0
SEQEND
  8
1
  0
POLYLINE
  8
84
 66
1
 70
0
  0
VERTEX
  8
84
 10
27.4653
 20
16.7105
  0
VERTEX
  8
84
 10
27.4653
 20
16.7105
  0
SEQEND
  8
84
  0
TEXT
  8
1
 10
27.4653
 20
16.7105
 40
0.250
 50
0.0000
  1
# 4
  7
STANDARD
  0
POINT
  8
2
 10
27.4653
 20
16.7105
  0
TEXT
  8
1
 10
27.4653
 20
16.7105
 40
0.250
 50
0.0000
  1
# 4
  7
STANDARD
  0
POINT
  8
2
 10
27.4653
 20
16.7105
  0
POLYLINE
  8
1
 66
1
 70
0
  0
VERTEX
  8
1
 10
27.4653
 20
16.7105
  0
VERTEX
  8
1
 10
30.4299
 20
16.6928
  0
VERTEX
  8
1
 10
30.9931
 20
16.7296
  0
VERTEX
  8
1
 10
32.1972
 20
16.7748
  0
VERTEX
  8
1
 10
33.4119
 20
16.8583
  0
VERTEX
  8
1
 10
33.7209
 20
16.8795
  0
VERTEX
  8
1
 10
34.7396
 20
16.9564
  0
VERTEX
  8
1
 10
35.2276
 20
16.9992
  0
VERTEX
  8
1
 10
35.4797
 20
17.0303
  0
VERTEX
  8
1
 10
36.0199
 20
17.1137
  0
VERTEX
  8
1
 10
36.5080
 20
17.2265
  0
VERTEX
  8
1
 10
36.5330
 20
17.2323
  0
VERTEX
  8
1
 10
37.3577
 20
17.4638
  0
VERTEX
  8
1
 10
37.9230
 20
17.6949
  0
VERTEX
  8
1
 10
38.3061
 20
17.9185
  0
VERTEX
  8
1
 10
38.4919
 20
18.0441
  0
VERTEX
  8
1
 10
39.0150
 20
18.4686
  0
VERTEX
  8
1
 10
39.2154
 20
18.6485
  0
VERTEX
  8
1
 10
39.6508
 20
19.0848
  0
SEQEND
  8
1
  0
POLYLINE
  8
84
 66
1
 70
0
  0
VERTEX
  8
84
 10
27.4653
 20
16.7105
  0
VERTEX
  8
84
 10
28.9477
 20
16.6887
  0
VERTEX
  8
84
 10
29.6889
 20
16.6835
  0
VERTEX
  8
84
 10
30.4299
 20
16.6928
  0
VERTEX
  8
84
 10
30.9931
 20
16.7296
  0
VERTEX
  8
84
 10
32.1972
 20
16.7748
  0
VERTEX
  8
84
 10
33.4119
 20
16.8583
  0
VERTEX
  8
84
 10
33.7209
 20
16.8795
  0
VERTEX
  8
84
 10
34.7396
 20
16.9564
  0
VERTEX
  8
84
 10
35.2276
 20
16.9992
  0
VERTEX
  8
84
 10
35.4797
 20
17.0303
  0
VERTEX
  8
84
 10
36.0199
 20
17.1137
  0
VERTEX
  8
84
 10
36.5080
 20
17.2265
  0
VERTEX
  8
84
 10
36.5330
 20
17.2323
  0
VERTEX
  8
84
 10
36.9477
 20
17.3400
  0
VERTEX
  8
84
 10
37.3577
 20
17.4638
  0
VERTEX
  8
84
 10
37.6440
 20
17.5705
  0
VERTEX
  8
84
 10
37.9230
 20
17.6949
  0
VERTEX
  8
84
 10
38.3061
 20
17.9185
  0
VERTEX
  8
84
 10
38.4919
 20
18.0441
  0
VERTEX
  8
84
 10
39.0150
 20
18.4686
  0
VERTEX
  8
84
 10
39.2154
 20
18.6485
  0
VERTEX
  8
84
 10
39.6508
 20
19.0848
  0
SEQEND
  8
84
  0
TEXT
  8
1
 10
27.4653
 20
16.7105
 40
0.250
 50
0.0000
  1
# 4
  7
STANDARD
  0
POINT
  8
2
 10
27.4653
 20
16.7105
  0
POINT
  8
3
 10
30.4299
 20
16.6928
  0
POINT
  8
3
 10
30.9931
 20
16.7296
  0
POINT
  8
3
 10
32.1972
 20
16.7748
  0
TEXT
  8
1
 10
33.4119
 20
16.8583
 40
0.250
 50
0.0000
  1
# 4
  7
STANDARD
  0
POINT
  8
3
 10
33.4119
 20
16.8583
  0
POINT
  8
3
 10
33.7209
 20
16.8795
  0
POINT
  8
3
 10
34.7396
 20
16.9564
  0
POINT
  8
3
 10
35.2276
 20
16.9992
  0
POINT
  8
3
 10
35.4797
 20
17.0303
  0
POINT
  8
3
 10
36.0199
 20
17.1137
  0
POINT
  8
4
 10
36.5080
 20
17.2265
 30
0.1574
 39
0.0000
  0
TEXT
  8
1
 10
36.5080
 20
17.2265
 40
0.250
 50
0.0000
  1
# 5
  7
STANDARD
  0
POINT
  8
3
 10
36.5080
 20
17.2265
  0
POINT
  8
3
 10
36.5330
 20
17.2323
  0
TEXT
  8
1
 10
37.3577
 20
17.4638
 40
0.250
 50
0.0000
  1
# 5
  7
STANDARD
  0
POINT
  8
3
 10
37.3577
 20
17.4638
  0
POINT
  8
3
 10
37.9230
 20
17.6949
  0
POINT
  8
3
 10
38.3061
 20
17.9185
  0
POINT
  8
3
 10
38.4919
 20
18.0441
  0
POINT
  8
3
 10
39.0150
 20
18.4686
  0
POINT
  8
3
 10
39.2154
 20
18.6485
  0
TEXT
  8
1
 10
39.6508
 20
19.0848
 40
0.250
 50
0.0000
  1
# 6
  7
STANDARD
  0
POINT
  8
2
 10
39.6508
 20
19.0848
  0
POLYLINE
  8
1
 66
1
 70
0
  0
VERTEX
  8
1
 10
39.6508
 20
19.0848
  0
VERTEX
  8
1
 10
39.6508
 20
19.0848
  0
SEQEND
  8
1
  0
POLYLINE
  8
84
 66
1
 70
0
  0
VERTEX
  8
84
 10
39.6508
 20
19.0848
  0
VERTEX
  8
84
 10
39.6508
 20
19.0848
  0
SEQEND
  8
84
  0
TEXT
  8
1
 10
39.6508
 20
19.0848
 40
0.250
 50
0.0000
  1
# 6
  7
STANDARD
  0
POINT
  8
2
 10
39.6508
 20
19.0848
  0
TEXT
  8
1
 10
39.6508
 20
19.0848
 40
0.250
 50
0.0000
  1
# 6
  7
STANDARD
  0
POINT
  8
2
 10
39.6508
 20
19.0848
  0
POLYLINE
  8
1
 66
1
 70
0
  0
VERTEX
  8
1
 10
39.6508
 20
19.0848
  0
VERTEX
  8
1
 10
40.3218
 20
18.4923
  0
VERTEX
  8
1
 10
40.7979
 20
18.1535
  0
SEQEND
  8
1
  0
POLYLINE
  8
84
 66
1
 70
0
  0
VERTEX
  8
84
 10
39.6508
 20
19.0848
  0
VERTEX
  8
84
 10
40.3218
 20
18.4923
  0
VERTEX
  8
84
 10
40.7979
 20
18.1535
  0
SEQEND
  8
84
  0
TEXT
  8
1
 10
39.6508
 20
19.0848
 40
0.250
 50
0.0000
  1
# 6
  7
STANDARD
  0
POINT
  8
2
 10
39.6508
 20
19.0848
  0
POINT
  8
3
 10
40.3218
 20
18.4923
  0
TEXT
  8
1
 10
40.7979
 20
18.1535
 40
0.250
 50
0.0000
  1
# 7
  7
STANDARD
  0
POINT
  8
2
 10
40.7979
 20
18.1535
  0
POLYLINE
  8
1
 66
1
 70
0
  0
VERTEX
  8
1
 10
40.7979
 20
18.1535
  0
VERTEX
  8
1
 10
40.7979
 20
18.1535
  0
SEQEND
  8
1
  0
POLYLINE
  8
84
 66
1
 70
0
  0
VERTEX
  8
84
 10
40.7979
 20
18.1535
  0
VERTEX
  8
84
 10
40.7979
 20
18.1535
  0
SEQEND
  8
84
  0
TEXT
  8
1
 10
40.7979
 20
18.1535
 40
0.250
 50
0.0000
  1
# 7
  7
STANDARD
  0
POINT
  8
2
 10
40.7979
 20
18.1535
  0
TEXT
  8
1
 10
40.7979
 20
18.1535
 40
0.250
 50
0.0000
  1
# 7
  7
STANDARD
  0
POINT
  8
2
 10
40.7979
 20
18.1535
  0
POLYLINE
  8
1
 66
1
 70
0
  0
VERTEX
  8
1
 10
40.7979
 20
18.1535
  0
VERTEX
  8
1
 10
41.3813
 20
18.1182
  0
VERTEX
  8
1
 10
41.6243
 20
18.1291
  0
SEQEND
  8
1
  0
POLYLINE
  8
84
 66
1
 70
0
  0
VERTEX
  8
84
 10
40.7979
 20
18.1535
  0
VERTEX
  8
84
 10
41.3813
 20
18.1182
  0
VERTEX
  8
84
 10
41.6243
 20
18.1291
  0
SEQEND
  8
84
  0
TEXT
  8
1
 10
40.7979
 20
18.1535
 40
0.250
 50
0.0000
  1
# 7
  7
STANDARD
  0
POINT
  8
2
 10
40.7979
 20
18.1535
  0
POINT
  8
3
 10
41.3813
 20
18.1182
  0
TEXT
  8
1
 10
41.6243
 20
18.1291
 40
0.250
 50
0.0000
  1
# 8
  7
STANDARD
  0
POINT
  8
2
 10
41.6243
 20
18.1291
  0
POLYLINE
  8
1
 66
1
 70
0
  0
VERTEX
  8
1
 10
41.6243
 20
18.1291
  0
VERTEX
  8
1
 10
41.6243
 20
18.1291
  0
SEQEND
  8
1
  0
POLYLINE
  8
84
 66
1
 70
0
  0
VERTEX
  8
84
 10
41.6243
 20
18.1291
  0
VERTEX
  8
84
 10
41.6243
 20
18.1291
  0
SEQEND
  8
84
  0
TEXT
  8
1
 10
41.6243
 20
18.1291
 40
0.250
 50
0.0000
  1
# 8
  7
STANDARD
  0
POINT
  8
2
 10
41.6243
 20
18.1291
  0
TEXT
  8
1
 10
41.6243
 20
18.1291
 40
0.250
 50
0.0000
  1
# 8
  7
STANDARD
  0
POINT
  8
2
 10
41.6243
 20
18.1291
  0
POLYLINE
  8
1
 66
1
 70
0
  0
VERTEX
  8
1
 10
41.6243
 20
18.1291
  0
VERTEX
  8
1
 10
41.2027
 20
16.9346
  0
VERTEX
  8
1
 10
41.1078
 20
16.5834
  0
VERTEX
  8
1
 10
40.8144
 20
15.2448
  0
VERTEX
  8
1
 10
40.5611
 20
13.9357
  0
VERTEX
  8
1
 10
40.3925
 20
12.7841
  0
VERTEX
  8
1
 10
40.2647
 20
11.9224
  0
VERTEX
  8
1
 10
40.1111
 20
10.8005
  0
VERTEX
  8
1
 10
40.0299
 20
9.8489
  0
VERTEX
  8
1
 10
39.9959
 20
9.3577
  0
VERTEX
  8
1
 10
39.9547
 20
8.4526
  0
SEQEND
  8
1
  0
POLYLINE
  8
84
 66
1
 70
0
  0
VERTEX
  8
84
 10
41.6243
 20
18.1291
  0
VERTEX
  8
84
 10
41.2027
 20
16.9346
  0
VERTEX
  8
84
 10
41.1078
 20
16.5834
  0
VERTEX
  8
84
 10
40.9551
 20
15.9154
  0
VERTEX
  8
84
 10
40.8144
 20
15.2448
  0
VERTEX
  8
84
 10
40.5611
 20
13.9357
  0
VERTEX
  8
84
 10
40.3925
 20
12.7841
  0
VERTEX
  8
84
 10
40.2647
 20
11.9224
  0
VERTEX
  8
84
 10
40.1111
 20
10.8005
  0
VERTEX
  8
84
 10
40.0299
 20
9.8489
  0
VERTEX
  8
84
 10
39.9959
 20
9.3577
  0
VERTEX
  8
84
 10
39.9547
 20
8.4526
  0
SEQEND
  8
84
  0
TEXT
  8
1
 10
41.6243
 20
18.1291
 40
0.250
 50
0.0000
  1
# 8
  7
STANDARD
  0
POINT
  8
2
 10
41.6243
 20
18.1291
  0
POINT
  8
3
 10
41.2027
 20
16.9346
  0
POINT
  8
3
 10
41.1078
 20
16.5834
  0
POINT
  8
3
 10
40.8144
 20
15.2448
  0
POINT
  8
3
 10
40.5611
 20
13.9357
  0
POINT
  8
3
 10
40.3925
 20
12.7841
  0
POINT
  8
3
 10
40.2647
 20
11.9224
  0
POINT
  8
3
 10
40.1111
 20
10.8005
  0
POINT
  8
3
 10
40.0299
 20
9.8489
  0
POINT
  8
3
 10
39.9959
 20
9.3577
  0
TEXT
  8
1
 10
39.9547
 20
8.4526
 40
0.250
 50
0.0000
  1
# 9
  7
STANDARD
  0
POINT
  8
2
 10
39.9547
 20
8.4526
  0
POLYLINE
  8
1
 66
1
 70
0
  0
VERTEX
  8
1
 10
39.9547
 20
8.4526
  0
VERTEX
  8
1
 10
39.9547
 20
8.4526
  0
SEQEND
  8
1
  0
POLYLINE
  8
84
 66
1
 70
0
  0
VERTEX
  8
84
 10
39.9547
 20
8.4526
  0
VERTEX
  8
84
 10
39.9547
 20
8.4526
  0
SEQEND
  8
84
  0
TEXT
  8
1
 10
39.9547
 20
8.4526
 40
0.250
 50
0.0000
  1
# 9
  7
STANDARD
  0
POINT
  8
2
 10
39.9547
 20
8.4526
  0
TEXT
  8
1
 10
39.9547
 20
8.4526
 40
0.250
 50
0.0000
  1
# 9
  7
STANDARD
  0
POINT
  8
2
 10
39.9547
 20
8.4526
  0
POLYLINE
  8
1
 66
1
 70
0
  0
VERTEX
  8
1
 10
39.9547
 20
8.4526
  0
VERTEX
  8
1
 10
39.1846
 20
8.8503
  0
SEQEND
  8
1
  0
POLYLINE
  8
84
 66
1
 70
0
  0
VERTEX
  8
84
 10
39.9547
 20
8.4526
  0
VERTEX
  8
84
 10
39.1846
 20
8.8503
  0
SEQEND
  8
84
  0
TEXT
  8
1
 10
39.9547
 20
8.4526
 40
0.250
 50
0.0000
  1
# 9
  7
STANDARD
  0
POINT
  8
2
 10
39.9547
 20
8.4526
  0
POINT
  8
2
 10
39.1846
 20
8.8503
  0
LINE
  8
7
 10
31.0308
 20
13.8583
 11
37.4683
 21
13.8583
  0
LINE
  8
5
 10
31.0308
 20
13.8583
 11
37.4683
 21
13.8583
  0
POINT
  8
2
 10
31.0308
 20
13.8583
  0
POINT
  8
2
 10
37.4683
 20
13.8583
  0
POLYLINE
  8
8
 66
1
 70
0
  0
VERTEX
  8
8
 10
34.0204
 20
9.8317
  0
VERTEX
  8
8
 10
34.3518
 20
11.6974
  0
VERTEX
  8
8
 10
34.6151
 20
13.4172
  0
VERTEX
  8
8
 10
34.9396
 20
15.8985
  0
VERTEX
  8
8
 10
34.9645
 20
16.6938
  0
SEQEND
  8
8
  0
POLYLINE
  8
85
 66
1
 70
0
  0
VERTEX
  8
85
 10
34.0204
 20
9.8317
  0
VERTEX
  8
85
 10
34.3518
 20
11.6974
  0
VERTEX
  8
85
 10
34.6151
 20
13.4172
  0
VERTEX
  8
85
 10
34.7957
 20
14.6558
  0
VERTEX
  8
85
 10
34.8763
 20
15.2763
  0
VERTEX
  8
85
 10
34.9396
 20
15.8985
  0
VERTEX
  8
85
 10
34.9645
 20
16.6938
  0
SEQEND
  8
85
  0
TEXT
  8
8
 10
34.0204
 20
9.8317
 40
0.250
 50
0.0000
  1
NM
  7
STANDARD
  0
TEXT
  8
85
 10
34.0204
 20
9.8317
 40
0.250
 50
0.0000
  1
NM
  7
STANDARD
  0
TEXT
  8
8
 10
34.0204
 20
9.8317
 40
0.250
 50
0.0000
  1
# 10
  7
STANDARD
  0
POINT
  8
2
 10
34.0204
 20
9.8317
  0
POINT
  8
3
 10
34.3518
 20
11.6974
  0
POINT
  8
3
 10
34.6151
 20
13.4172
  0
POINT
  8
3
 10
34.9396
 20
15.8985
  0
TEXT
  8
8
 10
34.9645
 20
16.6938
 40
0.250
 50
0.0000
  1
# 11
  7
STANDARD
  0
POINT
  8
2
 10
34.9645
 20
16.6938
  0
POLYLINE
  8
14
 66
1
 70
0
  0
VERTEX
  8
14
 10
39.1971
 20
9.1266
  0
VERTEX
  8
14
 10
35.4976
 20
9.6148
  0
VERTEX
  8
14
 10
33.9990
 20
9.8290
  0
VERTEX
  8
14
 10
32.5900
 20
10.0305
  0
VERTEX
  8
14
 10
27.9965
 20
10.6980
  0
SEQEND
  8
14
  0
POLYLINE
  8
87
 66
1
 70
0
  0
VERTEX
  8
87
 10
39.1971
 20
9.1266
  0
VERTEX
  8
87
 10
35.4976
 20
9.6148
  0
VERTEX
  8
87
 10
33.9990
 20
9.8290
  0
VERTEX
  8
87
 10
32.5900
 20
10.0305
  0
VERTEX
  8
87
 10
27.9965
 20
10.6980
  0
SEQEND
  8
87
  0
TEXT
  8
14
 10
39.1971
 20
9.1266
 40
0.250
 50
0.0000
  1
# 12
  7
STANDARD
  0
POINT
  8
2
 10
39.1971
 20
9.1266
  0
TEXT
  8
14
 10
35.4976
 20
9.6148
 40
0.250
 50
0.0000
  1
# 13
  7
STANDARD
  0
POINT
  8
3
 10
35.4976
 20
9.6148
  0
POINT
  8
3
 10
33.9990
 20
9.8290
  0
TEXT
  8
14
 10
32.5900
 20
10.0305
 40
0.250
 50
0.0000
  1
# 14
  7
STANDARD
  0
POINT
  8
3
 10
32.5900
 20
10.0305
  0
TEXT
  8
14
 10
27.9965
 20
10.6980
 40
0.250
 50
0.0000
  1
# 15
  7
STANDARD
  0
POINT
  8
2
 10
27.9965
 20
10.6980
  0
POLYLINE
  8
14
 66
1
 70
0
  0
VERTEX
  8
14
 10
27.9965
 20
10.6980
  0
VERTEX
  8
14
 10
27.9965
 20
10.6980
  0
SEQEND
  8
14
  0
POLYLINE
  8
87
 66
1
 70
0
  0
VERTEX
  8
87
 10
27.9965
 20
10.6980
  0
VERTEX
  8
87
 10
27.9965
 20
10.6980
  0
SEQEND
  8
87
  0
TEXT
  8
14
 10
27.9965
 20
10.6980
 40
0.250
 50
0.0000
  1
# 15
  7
STANDARD
  0
POINT
  8
2
 10
27.9965
 20
10.6980
  0
TEXT
  8
14
 10
27.9965
 20
10.6980
 40
0.250
 50
0.0000
  1
# 15
  7
STANDARD
  0
POINT
  8
2
 10
27.9965
 20
10.6980
  0
POLYLINE
  8
14
 66
1
 70
0
  0
VERTEX
  8
14
 10
27.9965
 20
10.6980
  0
VERTEX
  8
14
 10
28.3224
 20
12.5597
  0
VERTEX
  8
14
 10
28.5737
 20
14.2240
  0
VERTEX
  8
14
 10
28.8344
 20
16.1794
  0
VERTEX
  8
14
 10
28.8384
 20
16.4147
  0
SEQEND
  8
14
  0
POLYLINE
  8
87
 66
1
 70
0
  0
VERTEX
  8
87
 10
27.9965
 20
10.6980
  0
VERTEX
  8
87
 10
28.3224
 20
12.5597
  0
VERTEX
  8
87
 10
28.5737
 20
14.2240
  0
VERTEX
  8
87
 10
28.7200
 20
15.2000
  0
VERTEX
  8
87
 10
28.7851
 20
15.6889
  0
VERTEX
  8
87
 10
28.8344
 20
16.1794
  0
VERTEX
  8
87
 10
28.8384
 20
16.4147
  0
SEQEND
  8
87
  0
TEXT
  8
14
 10
27.9965
 20
10.6980
 40
0.250
 50
0.0000
  1
# 15
  7
STANDARD
  0
POINT
  8
2
 10
27.9965
 20
10.6980
  0
POINT
  8
3
 10
28.3224
 20
12.5597
  0
POINT
  8
3
 10
28.5737
 20
14.2240
  0
POINT
  8
3
 10
28.8344
 20
16.1794
  0
TEXT
  8
14
 10
28.8384
 20
16.4147
 40
0.250
 50
0.0000
  1
# 16
  7
STANDARD
  0
POINT
  8
2
 10
28.8384
 20
16.4147
  0
POLYLINE
  8
14
 66
1
 70
0
  0
VERTEX
  8
14
 10
28.8384
 20
16.4147
  0
VERTEX
  8
14
 10
28.8384
 20
16.4147
  0
SEQEND
  8
14
  0
POLYLINE
  8
87
 66
1
 70
0
  0
VERTEX
  8
87
 10
28.8384
 20
16.4147
  0
VERTEX
  8
87
 10
28.8384
 20
16.4147
  0
SEQEND
  8
87
  0
TEXT
  8
14
 10
28.8384
 20
16.4147
 40
0.250
 50
0.0000
  1
# 16
  7
STANDARD
  0
POINT
  8
2
 10
28.8384
 20
16.4147
  0
TEXT
  8
14
 10
28.8384
 20
16.4147
 40
0.250
 50
0.0000
  1
# 16
  7
STANDARD
  0
POINT
  8
2
 10
28.8384
 20
16.4147
  0
POLYLINE
  8
14
 66
1
 70
0
  0
VERTEX
  8
14
 10
28.8384
 20
16.4147
  0
VERTEX
  8
14
 10
30.4380
 20
16.4171
  0
VERTEX
  8
14
 10
31.0072
 20
16.4543
  0
VERTEX
  8
14
 10
32.2118
 20
16.4995
  0
VERTEX
  8
14
 10
33.4307
 20
16.5833
  0
VERTEX
  8
14
 10
33.7407
 20
16.6046
  0
VERTEX
  8
14
 10
34.7620
 20
16.6817
  0
VERTEX
  8
14
 10
35.2565
 20
16.7251
  0
VERTEX
  8
14
 10
35.5176
 20
16.7573
  0
VERTEX
  8
14
 10
36.0720
 20
16.8429
  0
VERTEX
  8
14
 10
36.5702
 20
16.9580
  0
VERTEX
  8
14
 10
36.6014
 20
16.9652
  0
VERTEX
  8
14
 10
37.4473
 20
17.2027
  0
VERTEX
  8
14
 10
38.0452
 20
17.4471
  0
VERTEX
  8
14
 10
38.4528
 20
17.6851
  0
VERTEX
  8
14
 10
38.6562
 20
17.8225
  0
VERTEX
  8
14
 10
39.1939
 20
18.2589
  0
VERTEX
  8
14
 10
39.4051
 20
18.4485
  0
VERTEX
  8
14
 10
39.6627
 20
18.7066
  0
SEQEND
  8
14
  0
POLYLINE
  8
87
 66
1
 70
0
  0
VERTEX
  8
87
 10
28.8384
 20
16.4147
  0
VERTEX
  8
87
 10
29.6383
 20
16.4097
  0
VERTEX
  8
87
 10
30.4380
 20
16.4171
  0
VERTEX
  8
87
 10
31.0072
 20
16.4543
  0
VERTEX
  8
87
 10
32.2118
 20
16.4995
  0
VERTEX
  8
87
 10
33.4307
 20
16.5833
  0
VERTEX
  8
87
 10
33.7407
 20
16.6046
  0
VERTEX
  8
87
 10
34.7620
 20
16.6817
  0
VERTEX
  8
87
 10
35.2565
 20
16.7251
  0
VERTEX
  8
87
 10
35.5176
 20
16.7573
  0
VERTEX
  8
87
 10
36.0720
 20
16.8429
  0
VERTEX
  8
87
 10
36.5702
 20
16.9580
  0
VERTEX
  8
87
 10
36.6014
 20
16.9652
  0
VERTEX
  8
87
 10
37.0268
 20
17.0757
  0
VERTEX
  8
87
 10
37.4473
 20
17.2027
  0
VERTEX
  8
87
 10
37.7501
 20
17.3156
  0
VERTEX
  8
87
 10
38.0452
 20
17.4471
  0
VERTEX
  8
87
 10
38.4528
 20
17.6851
  0
VERTEX
  8
87
 10
38.6562
 20
17.8225
  0
VERTEX
  8
87
 10
39.1939
 20
18.2589
  0
VERTEX
  8
87
 10
39.4051
 20
18.4485
  0
VERTEX
  8
87
 10
39.6627
 20
18.7066
  0
SEQEND
  8
87
  0
TEXT
  8
14
 10
28.8384
 20
16.4147
 40
0.250
 50
0.0000
  1
# 16
  7
STANDARD
  0
POINT
  8
2
 10
28.8384
 20
16.4147
  0
POINT
  8
3
 10
30.4380
 20
16.4171
  0
POINT
  8
3
 10
31.0072
 20
16.4543
  0
POINT
  8
3
 10
32.2118
 20
16.4995
  0
TEXT
  8
14
 10
33.4307
 20
16.5833
 40
0.250
 50
0.0000
  1
# 17
  7
STANDARD
  0
POINT
  8
3
 10
33.4307
 20
16.5833
  0
POINT
  8
3
 10
33.7407
 20
16.6046
  0
POINT
  8
3
 10
34.7620
 20
16.6817
  0
POINT
  8
3
 10
35.2565
 20
16.7251
  0
POINT
  8
3
 10
35.5176
 20
16.7573
  0
POINT
  8
3
 10
36.0720
 20
16.8429
  0
POINT
  8
4
 10
36.5702
 20
16.9580
 30
0.1574
 39
0.0000
  0
TEXT
  8
14
 10
36.5702
 20
16.9580
 40
0.250
 50
0.0000
  1
# 18
  7
STANDARD
  0
POINT
  8
3
 10
36.5702
 20
16.9580
  0
POINT
  8
3
 10
36.6014
 20
16.9652
  0
TEXT
  8
14
 10
37.4473
 20
17.2027
 40
0.250
 50
0.0000
  1
# 19
  7
STANDARD
  0
POINT
  8
3
 10
37.4473
 20
17.2027
  0
POINT
  8
3
 10
38.0452
 20
17.4471
  0
POINT
  8
3
 10
38.4528
 20
17.6851
  0
POINT
  8
3
 10
38.6562
 20
17.8225
  0
POINT
  8
3
 10
39.1939
 20
18.2589
  0
POINT
  8
3
 10
39.4051
 20
18.4485
  0
TEXT
  8
14
 10
39.6627
 20
18.7066
 40
0.250
 50
0.0000
  1
# 20
  7
STANDARD
  0
POINT
  8
2
 10
39.6627
 20
18.7066
  0
POLYLINE
  8
14
 66
1
 70
0
  0
VERTEX
  8
14
 10
39.6627
 20
18.7066
  0
VERTEX
  8
14
 10
39.6627
 20
18.7066
  0
SEQEND
  8
14
  0
POLYLINE
  8
87
 66
1
 70
0
  0
VERTEX
  8
87
 10
39.6627
 20
18.7066
  0
VERTEX
  8
87
 10
39.6627
 20
18.7066
  0
SEQEND
  8
87
  0
TEXT
  8
14
 10
39.6627
 20
18.7066
 40
0.250
 50
0.0000
  1
# 20
  7
STANDARD
  0
POINT
  8
2
 10
39.6627
 20
18.7066
  0
TEXT
  8
14
 10
39.6627
 20
18.7066
 40
0.250
 50
0.0000
  1
# 20
  7
STANDARD
  0
POINT
  8
2
 10
39.6627
 20
18.7066
  0
POLYLINE
  8
14
 66
1
 70
0
  0
VERTEX
  8
14
 10
39.6627
 20
18.7066
  0
VERTEX
  8
14
 10
40.1502
 20
18.2761
  0
VERTEX
  8
14
 10
40.7025
 20
17.8832
  0
SEQEND
  8
14
  0
POLYLINE
  8
87
 66
1
 70
0
  0
VERTEX
  8
87
 10
39.6627
 20
18.7066
  0
VERTEX
  8
87
 10
40.1502
 20
18.2761
  0
VERTEX
  8
87
 10
40.7025
 20
17.8832
  0
SEQEND
  8
87
  0
TEXT
  8
14
 10
39.6627
 20
18.7066
 40
0.250
 50
0.0000
  1
# 20
  7
STANDARD
  0
POINT
  8
2
 10
39.6627
 20
18.7066
  0
POINT
  8
3
 10
40.1502
 20
18.2761
  0
TEXT
  8
14
 10
40.7025
 20
17.8832
 40
0.250
 50
0.0000
  1
# 21
  7
STANDARD
  0
POINT
  8
2
 10
40.7025
 20
17.8832
  0
POLYLINE
  8
14
 66
1
 70
0
  0
VERTEX
  8
14
 10
40.7025
 20
17.8832
  0
VERTEX
  8
14
 10
40.7025
 20
17.8832
  0
SEQEND
  8
14
  0
POLYLINE
  8
87
 66
1
 70
0
  0
VERTEX
  8
87
 10
40.7025
 20
17.8832
  0
VERTEX
  8
87
 10
40.7025
 20
17.8832
  0
SEQEND
  8
87
  0
TEXT
  8
14
 10
40.7025
 20
17.8832
 40
0.250
 50
0.0000
  1
# 21
  7
STANDARD
  0
POINT
  8
2
 10
40.7025
 20
17.8832
  0
TEXT
  8
14
 10
40.7025
 20
17.8832
 40
0.250
 50
0.0000
  1
# 21
  7
STANDARD
  0
POINT
  8
2
 10
40.7025
 20
17.8832
  0
POLYLINE
  8
14
 66
1
 70
0
  0
VERTEX
  8
14
 10
40.7025
 20
17.8832
  0
VERTEX
  8
14
 10
40.4503
 20
17.1687
  0
VERTEX
  8
14
 10
40.3427
 20
16.7705
  0
VERTEX
  8
14
 10
40.0431
 20
15.4039
  0
VERTEX
  8
14
 10
39.7846
 20
14.0676
  0
VERTEX
  8
14
 10
39.6136
 20
12.8996
  0
VERTEX
  8
14
 10
39.4851
 20
12.0335
  0
VERTEX
  8
14
 10
39.3282
 20
10.8874
  0
VERTEX
  8
14
 10
39.2448
 20
9.9095
  0
VERTEX
  8
14
 10
39.2097
 20
9.4027
  0
VERTEX
  8
14
 10
39.1971
 20
9.1266
  0
SEQEND
  8
14
  0
POLYLINE
  8
87
 66
1
 70
0
  0
VERTEX
  8
87
 10
40.7025
 20
17.8832
  0
VERTEX
  8
87
 10
40.4503
 20
17.1687
  0
VERTEX
  8
87
 10
40.3427
 20
16.7705
  0
VERTEX
  8
87
 10
40.1868
 20
16.0886
  0
VERTEX
  8
87
 10
40.0431
 20
15.4039
  0
VERTEX
  8
87
 10
39.7846
 20
14.0676
  0
VERTEX
  8
87
 10
39.6136
 20
12.8996
  0
VERTEX
  8
87
 10
39.4851
 20
12.0335
  0
VERTEX
  8
87
 10
39.3282
 20
10.8874
  0
VERTEX
  8
87
 10
39.2448
 20
9.9095
  0
VERTEX
  8
87
 10
39.2097
 20
9.4027
  0
VERTEX
  8
87
 10
39.1971
 20
9.1266
  0
SEQEND
  8
87
  0
TEXT
  8
14
 10
40.7025
 20
17.8832
 40
0.250
 50
0.0000
  1
# 21
  7
STANDARD
  0
POINT
  8
2
 10
40.7025
 20
17.8832
  0
POINT
  8
3
 10
40.4503
 20
17.1687
  0
POINT
  8
3
 10
40.3427
 20
16.7705
  0
POINT
  8
3
 10
40.0431
 20
15.4039
  0
POINT
  8
3
 10
39.7846
 20
14.0676
  0
POINT
  8
3
 10
39.6136
 20
12.8996
  0
POINT
  8
3
 10
39.4851
 20
12.0335
  0
POINT
  8
3
 10
39.3282
 20
10.8874
  0
POINT
  8
3
 10
39.2448
 20
9.9095
  0
POINT
  8
3
 10
39.2097
 20
9.4027
  0
POINT
  8
2
 10
39.1971
 20
9.1266
  0
ENDBLK
  0
ENDSEC
  0
SECTION
  2
ENTITIES
  0
TEXT
  8
1
 10
0.0000
 20
0.0000
 40
0.250
 50
0.0000
  1
Style Name: 8178V
  7
STANDARD
  0
TEXT
  8
1
 10
0.0000
 20
0.1400
 40
0.250
 50
0.0000
  1
Creation Date: 30-06-2026
  7
STANDARD
  0
TEXT
  8
1
 10
0.0000
 20
0.2800
 40
0.250
 50
0.0000
  1
Creation Time: 15:49
  7
STANDARD
  0
TEXT
  8
1
 10
0.0000
 20
0.4200
 40
0.250
 50
0.0000
  1
Author: GERBER TECHNOLOGY ; ACCUMARK ; 12.0.0
  7
STANDARD
  0
TEXT
  8
1
 10
0.0000
 20
0.5600
 40
0.250
 50
0.0000
  1
Sample Size: M
  7
STANDARD
  0
TEXT
  8
1
 10
0.0000
 20
0.7000
 40
0.250
 50
0.0000
  1
Grade Rule Table: NEW
  7
STANDARD
  0
TEXT
  8
1
 10
0.0000
 20
0.8400
 40
0.250
 50
0.0000
  1
Units: ENGLISH
  7
STANDARD
  0
TEXT
  8
1
 10
0.0000
 20
0.9800
 40
0.250
 50
0.0000
  1
Curve Tolerance: .006
  7
STANDARD
  0
TEXT
  8
1
 10
0.0000
 20
1.1200
 40
0.250
 50
0.0000
  1
ASTM/D13Proposal 1 Version: D 6673-04
  7
STANDARD
  0
INSERT
  8
1
  2
8178V-P1- BACK  100525 BLOCK -3RD FIT-COS_M
 10
0.0000
 20
0.0000
  0
INSERT
  8
1
  2
8178V-P1- POUCH  100525 BLOCK-3RD FIT-COS_M
 10
0.0000
 20
0.0000
  0
INSERT
  8
1
  2
8178V-P1- FRONT 100525 BLOCK 3RD FIT-COS_M
 10
0.0000
 20
0.0000
  0
ENDSEC
  0
EOF
