999
SYNTHETIC fixture — hand-written to spec, not a CAD export. See synthetic-curves.dxf.md
0
SECTION
2
HEADER
9
$INSUNITS
70
4
0
ENDSEC
0
SECTION
2
BLOCKS
0
BLOCK
8
0
2
SPLINE-CUBIC
70
0
10
0.0
20
0.0
30
0.0
3
SPLINE-CUBIC
1

0
POLYLINE
8
1
66
1
10
0.0
20
0.0
30
0.0
70
0
0
VERTEX
8
1
10
0.0
20
0.0
30
0.0
0
VERTEX
8
1
10
80.0
20
0.0
30
0.0
0
SEQEND
8
1
0
SPLINE
8
1
70
8
71
3
72
8
73
4
74
0
40
0.0
40
0.0
40
0.0
40
0.0
40
1.0
40
1.0
40
1.0
40
1.0
10
80.0
20
0.0
30
0.0
10
60.0
20
40.0
30
0.0
10
10.0
20
40.0
30
0.0
10
0.0
20
0.0
30
0.0
0
ENDBLK
8
0
0
ENDSEC
0
SECTION
2
ENTITIES
0
INSERT
8
1
2
SPLINE-CUBIC
10
0.0
20
0.0
30
0.0
0
ENDSEC
0
EOF
