999
SYNTHETIC fixture — hand-written to spec, not a CAD export. See synthetic-curves.dxf.md
0
SECTION
2
HEADER
9
$INSUNITS
70
4
0
ENDSEC
0
SECTION
2
BLOCKS
0
BLOCK
8
0
2
ARC-CHAIN
70
0
10
0.0
20
0.0
30
0.0
3
ARC-CHAIN
1

0
POLYLINE
8
1
66
1
10
0.0
20
0.0
30
0.0
70
0
0
VERTEX
8
1
10
0.0
20
0.0
30
0.0
0
VERTEX
8
1
10
100.0
20
0.0
30
0.0
0
SEQEND
8
1
0
ARC
8
1
10
100.0
20
50.0
30
0.0
40
50.0
50
270.0
51
90.0
0
POLYLINE
8
1
66
1
10
0.0
20
0.0
30
0.0
70
0
0
VERTEX
8
1
10
100.0
20
100.0
30
0.0
0
VERTEX
8
1
10
0.0
20
100.0
30
0.0
0
VERTEX
8
1
10
0.0
20
0.0
30
0.0
0
SEQEND
8
1
0
ENDBLK
8
0
0
ENDSEC
0
SECTION
2
ENTITIES
0
INSERT
8
1
2
ARC-CHAIN
10
0.0
20
0.0
30
0.0
0
ENDSEC
0
EOF
