999
SYNTHETIC fixture — hand-written to spec, not a CAD export. See synthetic-curves.dxf.md
0
SECTION
2
HEADER
9
$INSUNITS
70
4
0
ENDSEC
0
SECTION
2
BLOCKS
0
BLOCK
8
0
2
SPLINE-NURBS
70
0
10
0.0
20
0.0
30
0.0
3
SPLINE-NURBS
1

0
POLYLINE
8
1
66
1
10
0.0
20
0.0
30
0.0
70
0
0
VERTEX
8
1
10
0.0
20
0.0
30
0.0
0
VERTEX
8
1
10
150.0
20
20.0
30
0.0
0
SEQEND
8
1
0
SPLINE
8
1
70
8
71
3
72
10
73
6
74
0
40
0.0
40
0.0
40
0.0
40
0.0
40
1.0
40
2.0
40
3.0
40
3.0
40
3.0
40
3.0
10
150.0
20
20.0
30
0.0
10
120.0
20
-20.0
30
0.0
10
90.0
20
60.0
30
0.0
10
50.0
20
-40.0
30
0.0
10
20.0
20
60.0
30
0.0
10
0.0
20
0.0
30
0.0
0
ENDBLK
8
0
0
ENDSEC
0
SECTION
2
ENTITIES
0
INSERT
8
1
2
SPLINE-NURBS
10
0.0
20
0.0
30
0.0
0
ENDSEC
0
EOF
