999
Seamline AAMA/ASTM marker | TSHIRT-DEMO | METRIC
0
SECTION
2
HEADER
9
$ACADVER
1
AC1012
9
$EXTMIN
10
0.0
20
0.0
30
0.0
9
$EXTMAX
10
2893.60
20
1600.00
30
0.0
0
ENDSEC
0
SECTION
2
TABLES
0
TABLE
2
LTYPE
70
1
0
LTYPE
2
CONTINUOUS
70
64
3
Solid line
72
65
73
0
40
0.0
0
ENDTAB
0
TABLE
2
LAYER
70
4
0
LAYER
2
1
70
64
62
1
6
CONTINUOUS
0
LAYER
2
5
70
64
62
3
6
CONTINUOUS
0
LAYER
2
7
70
64
62
5
6
CONTINUOUS
0
LAYER
2
15
70
64
62
7
6
CONTINUOUS
0
ENDTAB
0
ENDSEC
0
SECTION
2
BLOCKS
0
BLOCK
8
0
2
M0001_Front
70
0
10
0.0
20
0.0
30
0.0
3
M0001_Front
1

0
POLYLINE
8
1
66
1
10
0.0
20
0.0
30
0.0
70
1
0
VERTEX
8
1
10
2261.80
20
793.90
30
0.0
0
VERTEX
8
1
10
2252.00
20
755.50
30
0.0
0
VERTEX
8
1
10
2228.50
20
726.70
30
0.0
0
VERTEX
8
1
10
2197.10
20
711.30
30
0.0
0
VERTEX
8
1
10
2183.40
20
701.70
30
0.0
0
VERTEX
8
1
10
2216.70
20
592.30
30
0.0
0
VERTEX
8
1
10
2252.00
20
576.90
30
0.0
0
VERTEX
8
1
10
2291.20
20
567.30
30
0.0
0
VERTEX
8
1
10
2330.40
20
555.80
30
0.0
0
VERTEX
8
1
10
2373.50
20
538.50
30
0.0
0
VERTEX
8
1
10
2408.80
20
525.10
30
0.0
0
VERTEX
8
1
10
2634.20
20
530.90
30
0.0
0
VERTEX
8
1
10
2889.00
20
534.70
30
0.0
0
VERTEX
8
1
10
2889.00
20
793.90
30
0.0
0
VERTEX
8
1
10
2889.00
20
1053.10
30
0.0
0
VERTEX
8
1
10
2634.20
20
1056.90
30
0.0
0
VERTEX
8
1
10
2408.80
20
1062.70
30
0.0
0
VERTEX
8
1
10
2373.50
20
1049.30
30
0.0
0
VERTEX
8
1
10
2330.40
20
1032.00
30
0.0
0
VERTEX
8
1
10
2291.20
20
1020.50
30
0.0
0
VERTEX
8
1
10
2252.00
20
1010.90
30
0.0
0
VERTEX
8
1
10
2216.70
20
995.50
30
0.0
0
VERTEX
8
1
10
2183.40
20
886.10
30
0.0
0
VERTEX
8
1
10
2197.10
20
876.50
30
0.0
0
VERTEX
8
1
10
2228.50
20
861.10
30
0.0
0
VERTEX
8
1
10
2252.00
20
832.30
30
0.0
0
SEQEND
8
1
0
TEXT
8
1
10
2560.44
20
793.90
30
0.0
40
5.00
1
Piece Name:Front
0
TEXT
8
1
10
2560.44
20
786.90
30
0.0
40
5.00
1
Size Name:S
0
TEXT
8
1
10
2560.44
20
779.90
30
0.0
40
5.00
1
Quantity:1,0
0
TEXT
8
1
10
2560.44
20
772.90
30
0.0
40
5.00
1
Rotation:180
0
TEXT
8
1
10
2261.80
20
793.90
30
0.0
40
0.80
1
# 0
0
TEXT
8
1
10
2252.00
20
755.50
30
0.0
40
0.80
1
# 0
0
TEXT
8
1
10
2228.50
20
726.70
30
0.0
40
0.80
1
# 0
0
TEXT
8
1
10
2197.10
20
711.30
30
0.0
40
0.80
1
# 0
0
TEXT
8
1
10
2183.40
20
701.70
30
0.0
40
0.80
1
# 0
0
TEXT
8
1
10
2216.70
20
592.30
30
0.0
40
0.80
1
# 0
0
TEXT
8
1
10
2252.00
20
576.90
30
0.0
40
0.80
1
# 0
0
TEXT
8
1
10
2291.20
20
567.30
30
0.0
40
0.80
1
# 0
0
TEXT
8
1
10
2330.40
20
555.80
30
0.0
40
0.80
1
# 0
0
TEXT
8
1
10
2373.50
20
538.50
30
0.0
40
0.80
1
# 0
0
TEXT
8
1
10
2408.80
20
525.10
30
0.0
40
0.80
1
# 0
0
TEXT
8
1
10
2634.20
20
530.90
30
0.0
40
0.80
1
# 0
0
TEXT
8
1
10
2889.00
20
534.70
30
0.0
40
0.80
1
# 0
0
TEXT
8
1
10
2889.00
20
793.90
30
0.0
40
0.80
1
# 0
0
TEXT
8
1
10
2889.00
20
1053.10
30
0.0
40
0.80
1
# 0
0
TEXT
8
1
10
2634.20
20
1056.90
30
0.0
40
0.80
1
# 0
0
TEXT
8
1
10
2408.80
20
1062.70
30
0.0
40
0.80
1
# 0
0
TEXT
8
1
10
2373.50
20
1049.30
30
0.0
40
0.80
1
# 0
0
TEXT
8
1
10
2330.40
20
1032.00
30
0.0
40
0.80
1
# 0
0
TEXT
8
1
10
2291.20
20
1020.50
30
0.0
40
0.80
1
# 0
0
TEXT
8
1
10
2252.00
20
1010.90
30
0.0
40
0.80
1
# 0
0
TEXT
8
1
10
2216.70
20
995.50
30
0.0
40
0.80
1
# 0
0
TEXT
8
1
10
2183.40
20
886.10
30
0.0
40
0.80
1
# 0
0
TEXT
8
1
10
2197.10
20
876.50
30
0.0
40
0.80
1
# 0
0
TEXT
8
1
10
2228.50
20
861.10
30
0.0
40
0.80
1
# 0
0
TEXT
8
1
10
2252.00
20
832.30
30
0.0
40
0.80
1
# 0
0
LINE
8
5
10
2183.40
20
793.90
30
0.0
11
2889.00
21
793.90
31
0.0
0
LINE
8
7
10
2289.24
20
793.90
30
0.0
11
2783.16
21
793.90
31
0.0
0
TEXT
8
15
10
2560.44
20
801.40
30
0.0
40
5.00
1
1 Front S b1
0
ENDBLK
8
0
0
BLOCK
8
0
2
M0002_Back
70
0
10
0.0
20
0.0
30
0.0
3
M0002_Back
1

0
POLYLINE
8
1
66
1
10
0.0
20
0.0
30
0.0
70
1
0
VERTEX
8
1
10
2190.00
20
1331.20
30
0.0
0
VERTEX
8
1
10
2185.10
20
1288.00
30
0.0
0
VERTEX
8
1
10
2178.20
20
1259.20
30
0.0
0
VERTEX
8
1
10
2168.40
20
1239.00
30
0.0
0
VERTEX
8
1
10
2201.70
20
1129.60
30
0.0
0
VERTEX
8
1
10
2237.00
20
1114.20
30
0.0
0
VERTEX
8
1
10
2276.20
20
1104.60
30
0.0
0
VERTEX
8
1
10
2315.40
20
1093.10
30
0.0
0
VERTEX
8
1
10
2358.50
20
1075.80
30
0.0
0
VERTEX
8
1
10
2393.80
20
1062.40
30
0.0
0
VERTEX
8
1
10
2619.20
20
1068.20
30
0.0
0
VERTEX
8
1
10
2893.60
20
1072.00
30
0.0
0
VERTEX
8
1
10
2893.60
20
1331.20
30
0.0
0
VERTEX
8
1
10
2893.60
20
1590.40
30
0.0
0
VERTEX
8
1
10
2619.20
20
1594.20
30
0.0
0
VERTEX
8
1
10
2393.80
20
1600.00
30
0.0
0
VERTEX
8
1
10
2358.50
20
1586.60
30
0.0
0
VERTEX
8
1
10
2315.40
20
1569.30
30
0.0
0
VERTEX
8
1
10
2276.20
20
1557.80
30
0.0
0
VERTEX
8
1
10
2237.00
20
1548.20
30
0.0
0
VERTEX
8
1
10
2201.70
20
1532.80
30
0.0
0
VERTEX
8
1
10
2168.40
20
1423.40
30
0.0
0
VERTEX
8
1
10
2178.20
20
1403.20
30
0.0
0
VERTEX
8
1
10
2185.10
20
1374.40
30
0.0
0
SEQEND
8
1
0
TEXT
8
1
10
2548.17
20
1331.20
30
0.0
40
5.00
1
Piece Name:Back
0
TEXT
8
1
10
2548.17
20
1324.20
30
0.0
40
5.00
1
Size Name:S
0
TEXT
8
1
10
2548.17
20
1317.20
30
0.0
40
5.00
1
Quantity:1,0
0
TEXT
8
1
10
2548.17
20
1310.20
30
0.0
40
5.00
1
Rotation:180
0
TEXT
8
1
10
2190.00
20
1331.20
30
0.0
40
0.80
1
# 0
0
TEXT
8
1
10
2185.10
20
1288.00
30
0.0
40
0.80
1
# 0
0
TEXT
8
1
10
2178.20
20
1259.20
30
0.0
40
0.80
1
# 0
0
TEXT
8
1
10
2168.40
20
1239.00
30
0.0
40
0.80
1
# 0
0
TEXT
8
1
10
2201.70
20
1129.60
30
0.0
40
0.80
1
# 0
0
TEXT
8
1
10
2237.00
20
1114.20
30
0.0
40
0.80
1
# 0
0
TEXT
8
1
10
2276.20
20
1104.60
30
0.0
40
0.80
1
# 0
0
TEXT
8
1
10
2315.40
20
1093.10
30
0.0
40
0.80
1
# 0
0
TEXT
8
1
10
2358.50
20
1075.80
30
0.0
40
0.80
1
# 0
0
TEXT
8
1
10
2393.80
20
1062.40
30
0.0
40
0.80
1
# 0
0
TEXT
8
1
10
2619.20
20
1068.20
30
0.0
40
0.80
1
# 0
0
TEXT
8
1
10
2893.60
20
1072.00
30
0.0
40
0.80
1
# 0
0
TEXT
8
1
10
2893.60
20
1331.20
30
0.0
40
0.80
1
# 0
0
TEXT
8
1
10
2893.60
20
1590.40
30
0.0
40
0.80
1
# 0
0
TEXT
8
1
10
2619.20
20
1594.20
30
0.0
40
0.80
1
# 0
0
TEXT
8
1
10
2393.80
20
1600.00
30
0.0
40
0.80
1
# 0
0
TEXT
8
1
10
2358.50
20
1586.60
30
0.0
40
0.80
1
# 0
0
TEXT
8
1
10
2315.40
20
1569.30
30
0.0
40
0.80
1
# 0
0
TEXT
8
1
10
2276.20
20
1557.80
30
0.0
40
0.80
1
# 0
0
TEXT
8
1
10
2237.00
20
1548.20
30
0.0
40
0.80
1
# 0
0
TEXT
8
1
10
2201.70
20
1532.80
30
0.0
40
0.80
1
# 0
0
TEXT
8
1
10
2168.40
20
1423.40
30
0.0
40
0.80
1
# 0
0
TEXT
8
1
10
2178.20
20
1403.20
30
0.0
40
0.80
1
# 0
0
TEXT
8
1
10
2185.10
20
1374.40
30
0.0
40
0.80
1
# 0
0
LINE
8
5
10
2168.40
20
1331.20
30
0.0
11
2893.60
21
1331.20
31
0.0
0
LINE
8
7
10
2277.18
20
1331.20
30
0.0
11
2784.82
21
1331.20
31
0.0
0
TEXT
8
15
10
2548.17
20
1338.70
30
0.0
40
5.00
1
2 Back S b1
0
ENDBLK
8
0
0
BLOCK
8
0
2
M0003_Sleeve
70
0
10
0.0
20
0.0
30
0.0
3
M0003_Sleeve
1

0
POLYLINE
8
1
66
1
10
0.0
20
0.0
30
0.0
70
1
0
VERTEX
8
1
10
2183.40
20
343.70
30
0.0
0
VERTEX
8
1
10
2193.20
20
295.70
30
0.0
0
VERTEX
8
1
10
2214.80
20
247.70
30
0.0
0
VERTEX
8
1
10
2248.10
20
199.70
30
0.0
0
VERTEX
8
1
10
2275.50
20
165.10
30
0.0
0
VERTEX
8
1
10
2293.20
20
151.70
30
0.0
0
VERTEX
8
1
10
2401.00
20
159.40
30
0.0
0
VERTEX
8
1
10
2406.80
20
228.50
30
0.0
0
VERTEX
8
1
10
2410.80
20
343.70
30
0.0
0
VERTEX
8
1
10
2406.80
20
458.90
30
0.0
0
VERTEX
8
1
10
2401.00
20
528.00
30
0.0
0
VERTEX
8
1
10
2293.20
20
535.70
30
0.0
0
VERTEX
8
1
10
2275.50
20
522.30
30
0.0
0
VERTEX
8
1
10
2248.10
20
487.70
30
0.0
0
VERTEX
8
1
10
2214.80
20
439.70
30
0.0
0
VERTEX
8
1
10
2193.20
20
391.70
30
0.0
0
SEQEND
8
1
0
TEXT
8
1
10
2311.54
20
343.70
30
0.0
40
5.00
1
Piece Name:Sleeve
0
TEXT
8
1
10
2311.54
20
336.70
30
0.0
40
5.00
1
Size Name:S
0
TEXT
8
1
10
2311.54
20
329.70
30
0.0
40
5.00
1
Quantity:1,0
0
TEXT
8
1
10
2311.54
20
322.70
30
0.0
40
5.00
1
Rotation:180
0
TEXT
8
1
10
2183.40
20
343.70
30
0.0
40
0.80
1
# 0
0
TEXT
8
1
10
2193.20
20
295.70
30
0.0
40
0.80
1
# 0
0
TEXT
8
1
10
2214.80
20
247.70
30
0.0
40
0.80
1
# 0
0
TEXT
8
1
10
2248.10
20
199.70
30
0.0
40
0.80
1
# 0
0
TEXT
8
1
10
2275.50
20
165.10
30
0.0
40
0.80
1
# 0
0
TEXT
8
1
10
2293.20
20
151.70
30
0.0
40
0.80
1
# 0
0
TEXT
8
1
10
2401.00
20
159.40
30
0.0
40
0.80
1
# 0
0
TEXT
8
1
10
2406.80
20
228.50
30
0.0
40
0.80
1
# 0
0
TEXT
8
1
10
2410.80
20
343.70
30
0.0
40
0.80
1
# 0
0
TEXT
8
1
10
2406.80
20
458.90
30
0.0
40
0.80
1
# 0
0
TEXT
8
1
10
2401.00
20
528.00
30
0.0
40
0.80
1
# 0
0
TEXT
8
1
10
2293.20
20
535.70
30
0.0
40
0.80
1
# 0
0
TEXT
8
1
10
2275.50
20
522.30
30
0.0
40
0.80
1
# 0
0
TEXT
8
1
10
2248.10
20
487.70
30
0.0
40
0.80
1
# 0
0
TEXT
8
1
10
2214.80
20
439.70
30
0.0
40
0.80
1
# 0
0
TEXT
8
1
10
2193.20
20
391.70
30
0.0
40
0.80
1
# 0
0
LINE
8
5
10
2183.40
20
343.70
30
0.0
11
2410.80
21
343.70
31
0.0
0
LINE
8
7
10
2217.51
20
343.70
30
0.0
11
2376.69
21
343.70
31
0.0
0
TEXT
8
15
10
2311.54
20
351.20
30
0.0
40
5.00
1
3 Sleeve S b1
0
ENDBLK
8
0
0
BLOCK
8
0
2
M0004_Sleeve
70
0
10
0.0
20
0.0
30
0.0
3
M0004_Sleeve
1

0
POLYLINE
8
1
66
1
10
0.0
20
0.0
30
0.0
70
1
0
VERTEX
8
1
10
2410.50
20
335.00
30
0.0
0
VERTEX
8
1
10
2420.30
20
287.00
30
0.0
0
VERTEX
8
1
10
2441.90
20
239.00
30
0.0
0
VERTEX
8
1
10
2475.20
20
191.00
30
0.0
0
VERTEX
8
1
10
2502.60
20
156.40
30
0.0
0
VERTEX
8
1
10
2520.30
20
143.00
30
0.0
0
VERTEX
8
1
10
2628.10
20
150.70
30
0.0
0
VERTEX
8
1
10
2633.90
20
219.80
30
0.0
0
VERTEX
8
1
10
2637.90
20
335.00
30
0.0
0
VERTEX
8
1
10
2633.90
20
450.20
30
0.0
0
VERTEX
8
1
10
2628.10
20
519.30
30
0.0
0
VERTEX
8
1
10
2520.30
20
527.00
30
0.0
0
VERTEX
8
1
10
2502.60
20
513.60
30
0.0
0
VERTEX
8
1
10
2475.20
20
479.00
30
0.0
0
VERTEX
8
1
10
2441.90
20
431.00
30
0.0
0
VERTEX
8
1
10
2420.30
20
383.00
30
0.0
0
SEQEND
8
1
0
TEXT
8
1
10
2538.64
20
335.00
30
0.0
40
5.00
1
Piece Name:Sleeve
0
TEXT
8
1
10
2538.64
20
328.00
30
0.0
40
5.00
1
Size Name:S
0
TEXT
8
1
10
2538.64
20
321.00
30
0.0
40
5.00
1
Quantity:1,0
0
TEXT
8
1
10
2538.64
20
314.00
30
0.0
40
5.00
1
Rotation:180
0
TEXT
8
1
10
2410.50
20
335.00
30
0.0
40
0.80
1
# 0
0
TEXT
8
1
10
2420.30
20
287.00
30
0.0
40
0.80
1
# 0
0
TEXT
8
1
10
2441.90
20
239.00
30
0.0
40
0.80
1
# 0
0
TEXT
8
1
10
2475.20
20
191.00
30
0.0
40
0.80
1
# 0
0
TEXT
8
1
10
2502.60
20
156.40
30
0.0
40
0.80
1
# 0
0
TEXT
8
1
10
2520.30
20
143.00
30
0.0
40
0.80
1
# 0
0
TEXT
8
1
10
2628.10
20
150.70
30
0.0
40
0.80
1
# 0
0
TEXT
8
1
10
2633.90
20
219.80
30
0.0
40
0.80
1
# 0
0
TEXT
8
1
10
2637.90
20
335.00
30
0.0
40
0.80
1
# 0
0
TEXT
8
1
10
2633.90
20
450.20
30
0.0
40
0.80
1
# 0
0
TEXT
8
1
10
2628.10
20
519.30
30
0.0
40
0.80
1
# 0
0
TEXT
8
1
10
2520.30
20
527.00
30
0.0
40
0.80
1
# 0
0
TEXT
8
1
10
2502.60
20
513.60
30
0.0
40
0.80
1
# 0
0
TEXT
8
1
10
2475.20
20
479.00
30
0.0
40
0.80
1
# 0
0
TEXT
8
1
10
2441.90
20
431.00
30
0.0
40
0.80
1
# 0
0
TEXT
8
1
10
2420.30
20
383.00
30
0.0
40
0.80
1
# 0
0
LINE
8
5
10
2410.50
20
335.00
30
0.0
11
2637.90
21
335.00
31
0.0
0
LINE
8
7
10
2444.61
20
335.00
30
0.0
11
2603.79
21
335.00
31
0.0
0
TEXT
8
15
10
2538.64
20
342.50
30
0.0
40
5.00
1
4 Sleeve S b1
0
ENDBLK
8
0
0
BLOCK
8
0
2
M0005_Neck-band
70
0
10
0.0
20
0.0
30
0.0
3
M0005_Neck-band
1

0
POLYLINE
8
1
66
1
10
0.0
20
0.0
30
0.0
70
1
0
VERTEX
8
1
10
2077.80
20
62.80
30
0.0
0
VERTEX
8
1
10
1463.40
20
62.80
30
0.0
0
VERTEX
8
1
10
1463.40
20
27.50
30
0.0
0
VERTEX
8
1
10
2077.80
20
27.50
30
0.0
0
SEQEND
8
1
0
TEXT
8
1
10
1770.60
20
45.15
30
0.0
40
5.00
1
Piece Name:Neck band
0
TEXT
8
1
10
1770.60
20
38.15
30
0.0
40
5.00
1
Size Name:S
0
TEXT
8
1
10
1770.60
20
31.15
30
0.0
40
5.00
1
Quantity:1,0
0
TEXT
8
1
10
1770.60
20
24.15
30
0.0
40
5.00
1
Rotation:1
0
TEXT
8
1
10
2077.80
20
62.80
30
0.0
40
0.80
1
# 0
0
TEXT
8
1
10
1463.40
20
62.80
30
0.0
40
0.80
1
# 0
0
TEXT
8
1
10
1463.40
20
27.50
30
0.0
40
0.80
1
# 0
0
TEXT
8
1
10
2077.80
20
27.50
30
0.0
40
0.80
1
# 0
0
LINE
8
5
10
1463.40
20
45.15
30
0.0
11
2077.80
21
45.15
31
0.0
0
LINE
8
7
10
1555.56
20
45.15
30
0.0
11
1985.64
21
45.15
31
0.0
0
TEXT
8
15
10
1770.60
20
52.65
30
0.0
40
5.00
1
5 Neck band S b1
0
ENDBLK
8
0
0
BLOCK
8
0
2
M0006_Front
70
0
10
0.0
20
0.0
30
0.0
3
M0006_Front
1

0
POLYLINE
8
1
66
1
10
0.0
20
0.0
30
0.0
70
1
0
VERTEX
8
1
10
1528.40
20
1320.00
30
0.0
0
VERTEX
8
1
10
1518.40
20
1280.00
30
0.0
0
VERTEX
8
1
10
1494.40
20
1250.00
30
0.0
0
VERTEX
8
1
10
1462.40
20
1234.00
30
0.0
0
VERTEX
8
1
10
1448.40
20
1224.00
30
0.0
0
VERTEX
8
1
10
1482.40
20
1110.00
30
0.0
0
VERTEX
8
1
10
1518.40
20
1094.00
30
0.0
0
VERTEX
8
1
10
1558.40
20
1084.00
30
0.0
0
VERTEX
8
1
10
1598.40
20
1072.00
30
0.0
0
VERTEX
8
1
10
1642.40
20
1054.00
30
0.0
0
VERTEX
8
1
10
1678.40
20
1040.00
30
0.0
0
VERTEX
8
1
10
1908.40
20
1046.00
30
0.0
0
VERTEX
8
1
10
2168.40
20
1050.00
30
0.0
0
VERTEX
8
1
10
2168.40
20
1320.00
30
0.0
0
VERTEX
8
1
10
2168.40
20
1590.00
30
0.0
0
VERTEX
8
1
10
1908.40
20
1594.00
30
0.0
0
VERTEX
8
1
10
1678.40
20
1600.00
30
0.0
0
VERTEX
8
1
10
1642.40
20
1586.00
30
0.0
0
VERTEX
8
1
10
1598.40
20
1568.00
30
0.0
0
VERTEX
8
1
10
1558.40
20
1556.00
30
0.0
0
VERTEX
8
1
10
1518.40
20
1546.00
30
0.0
0
VERTEX
8
1
10
1482.40
20
1530.00
30
0.0
0
VERTEX
8
1
10
1448.40
20
1416.00
30
0.0
0
VERTEX
8
1
10
1462.40
20
1406.00
30
0.0
0
VERTEX
8
1
10
1494.40
20
1390.00
30
0.0
0
VERTEX
8
1
10
1518.40
20
1360.00
30
0.0
0
SEQEND
8
1
0
TEXT
8
1
10
1833.15
20
1320.00
30
0.0
40
5.00
1
Piece Name:Front
0
TEXT
8
1
10
1833.15
20
1313.00
30
0.0
40
5.00
1
Size Name:M
0
TEXT
8
1
10
1833.15
20
1306.00
30
0.0
40
5.00
1
Quantity:1,0
0
TEXT
8
1
10
1833.15
20
1299.00
30
0.0
40
5.00
1
Rotation:180
0
TEXT
8
1
10
1528.40
20
1320.00
30
0.0
40
0.80
1
# 0
0
TEXT
8
1
10
1518.40
20
1280.00
30
0.0
40
0.80
1
# 0
0
TEXT
8
1
10
1494.40
20
1250.00
30
0.0
40
0.80
1
# 0
0
TEXT
8
1
10
1462.40
20
1234.00
30
0.0
40
0.80
1
# 0
0
TEXT
8
1
10
1448.40
20
1224.00
30
0.0
40
0.80
1
# 0
0
TEXT
8
1
10
1482.40
20
1110.00
30
0.0
40
0.80
1
# 0
0
TEXT
8
1
10
1518.40
20
1094.00
30
0.0
40
0.80
1
# 0
0
TEXT
8
1
10
1558.40
20
1084.00
30
0.0
40
0.80
1
# 0
0
TEXT
8
1
10
1598.40
20
1072.00
30
0.0
40
0.80
1
# 0
0
TEXT
8
1
10
1642.40
20
1054.00
30
0.0
40
0.80
1
# 0
0
TEXT
8
1
10
1678.40
20
1040.00
30
0.0
40
0.80
1
# 0
0
TEXT
8
1
10
1908.40
20
1046.00
30
0.0
40
0.80
1
# 0
0
TEXT
8
1
10
2168.40
20
1050.00
30
0.0
40
0.80
1
# 0
0
TEXT
8
1
10
2168.40
20
1320.00
30
0.0
40
0.80
1
# 0
0
TEXT
8
1
10
2168.40
20
1590.00
30
0.0
40
0.80
1
# 0
0
TEXT
8
1
10
1908.40
20
1594.00
30
0.0
40
0.80
1
# 0
0
TEXT
8
1
10
1678.40
20
1600.00
30
0.0
40
0.80
1
# 0
0
TEXT
8
1
10
1642.40
20
1586.00
30
0.0
40
0.80
1
# 0
0
TEXT
8
1
10
1598.40
20
1568.00
30
0.0
40
0.80
1
# 0
0
TEXT
8
1
10
1558.40
20
1556.00
30
0.0
40
0.80
1
# 0
0
TEXT
8
1
10
1518.40
20
1546.00
30
0.0
40
0.80
1
# 0
0
TEXT
8
1
10
1482.40
20
1530.00
30
0.0
40
0.80
1
# 0
0
TEXT
8
1
10
1448.40
20
1416.00
30
0.0
40
0.80
1
# 0
0
TEXT
8
1
10
1462.40
20
1406.00
30
0.0
40
0.80
1
# 0
0
TEXT
8
1
10
1494.40
20
1390.00
30
0.0
40
0.80
1
# 0
0
TEXT
8
1
10
1518.40
20
1360.00
30
0.0
40
0.80
1
# 0
0
LINE
8
5
10
1448.40
20
1320.00
30
0.0
11
2168.40
21
1320.00
31
0.0
0
LINE
8
7
10
1556.40
20
1320.00
30
0.0
11
2060.40
21
1320.00
31
0.0
0
TEXT
8
15
10
1833.15
20
1327.50
30
0.0
40
5.00
1
6 Front M b1
0
ENDBLK
8
0
0
BLOCK
8
0
2
M0007_Back
70
0
10
0.0
20
0.0
30
0.0
3
M0007_Back
1

0
POLYLINE
8
1
66
1
10
0.0
20
0.0
30
0.0
70
1
0
VERTEX
8
1
10
758.20
20
860.70
30
0.0
0
VERTEX
8
1
10
753.20
20
815.70
30
0.0
0
VERTEX
8
1
10
746.20
20
785.70
30
0.0
0
VERTEX
8
1
10
736.20
20
764.70
30
0.0
0
VERTEX
8
1
10
770.20
20
650.70
30
0.0
0
VERTEX
8
1
10
806.20
20
634.70
30
0.0
0
VERTEX
8
1
10
846.20
20
624.70
30
0.0
0
VERTEX
8
1
10
886.20
20
612.70
30
0.0
0
VERTEX
8
1
10
930.20
20
594.70
30
0.0
0
VERTEX
8
1
10
966.20
20
580.70
30
0.0
0
VERTEX
8
1
10
1196.20
20
586.70
30
0.0
0
VERTEX
8
1
10
1476.20
20
590.70
30
0.0
0
VERTEX
8
1
10
1476.20
20
860.70
30
0.0
0
VERTEX
8
1
10
1476.20
20
1130.70
30
0.0
0
VERTEX
8
1
10
1196.20
20
1134.70
30
0.0
0
VERTEX
8
1
10
966.20
20
1140.70
30
0.0
0
VERTEX
8
1
10
930.20
20
1126.70
30
0.0
0
VERTEX
8
1
10
886.20
20
1108.70
30
0.0
0
VERTEX
8
1
10
846.20
20
1096.70
30
0.0
0
VERTEX
8
1
10
806.20
20
1086.70
30
0.0
0
VERTEX
8
1
10
770.20
20
1070.70
30
0.0
0
VERTEX
8
1
10
736.20
20
956.70
30
0.0
0
VERTEX
8
1
10
746.20
20
935.70
30
0.0
0
VERTEX
8
1
10
753.20
20
905.70
30
0.0
0
SEQEND
8
1
0
TEXT
8
1
10
1123.73
20
860.70
30
0.0
40
5.00
1
Piece Name:Back
0
TEXT
8
1
10
1123.73
20
853.70
30
0.0
40
5.00
1
Size Name:M
0
TEXT
8
1
10
1123.73
20
846.70
30
0.0
40
5.00
1
Quantity:1,0
0
TEXT
8
1
10
1123.73
20
839.70
30
0.0
40
5.00
1
Rotation:180
0
TEXT
8
1
10
758.20
20
860.70
30
0.0
40
0.80
1
# 0
0
TEXT
8
1
10
753.20
20
815.70
30
0.0
40
0.80
1
# 0
0
TEXT
8
1
10
746.20
20
785.70
30
0.0
40
0.80
1
# 0
0
TEXT
8
1
10
736.20
20
764.70
30
0.0
40
0.80
1
# 0
0
TEXT
8
1
10
770.20
20
650.70
30
0.0
40
0.80
1
# 0
0
TEXT
8
1
10
806.20
20
634.70
30
0.0
40
0.80
1
# 0
0
TEXT
8
1
10
846.20
20
624.70
30
0.0
40
0.80
1
# 0
0
TEXT
8
1
10
886.20
20
612.70
30
0.0
40
0.80
1
# 0
0
TEXT
8
1
10
930.20
20
594.70
30
0.0
40
0.80
1
# 0
0
TEXT
8
1
10
966.20
20
580.70
30
0.0
40
0.80
1
# 0
0
TEXT
8
1
10
1196.20
20
586.70
30
0.0
40
0.80
1
# 0
0
TEXT
8
1
10
1476.20
20
590.70
30
0.0
40
0.80
1
# 0
0
TEXT
8
1
10
1476.20
20
860.70
30
0.0
40
0.80
1
# 0
0
TEXT
8
1
10
1476.20
20
1130.70
30
0.0
40
0.80
1
# 0
0
TEXT
8
1
10
1196.20
20
1134.70
30
0.0
40
0.80
1
# 0
0
TEXT
8
1
10
966.20
20
1140.70
30
0.0
40
0.80
1
# 0
0
TEXT
8
1
10
930.20
20
1126.70
30
0.0
40
0.80
1
# 0
0
TEXT
8
1
10
886.20
20
1108.70
30
0.0
40
0.80
1
# 0
0
TEXT
8
1
10
846.20
20
1096.70
30
0.0
40
0.80
1
# 0
0
TEXT
8
1
10
806.20
20
1086.70
30
0.0
40
0.80
1
# 0
0
TEXT
8
1
10
770.20
20
1070.70
30
0.0
40
0.80
1
# 0
0
TEXT
8
1
10
736.20
20
956.70
30
0.0
40
0.80
1
# 0
0
TEXT
8
1
10
746.20
20
935.70
30
0.0
40
0.80
1
# 0
0
TEXT
8
1
10
753.20
20
905.70
30
0.0
40
0.80
1
# 0
0
LINE
8
5
10
736.20
20
860.70
30
0.0
11
1476.20
21
860.70
31
0.0
0
LINE
8
7
10
847.20
20
860.70
30
0.0
11
1365.20
21
860.70
31
0.0
0
TEXT
8
15
10
1123.73
20
868.20
30
0.0
40
5.00
1
7 Back M b1
0
ENDBLK
8
0
0
BLOCK
8
0
2
M0008_Sleeve
70
0
10
0.0
20
0.0
30
0.0
3
M0008_Sleeve
1

0
POLYLINE
8
1
66
1
10
0.0
20
0.0
30
0.0
70
1
0
VERTEX
8
1
10
473.80
20
237.70
30
0.0
0
VERTEX
8
1
10
483.80
20
187.70
30
0.0
0
VERTEX
8
1
10
505.80
20
137.70
30
0.0
0
VERTEX
8
1
10
539.80
20
87.70
30
0.0
0
VERTEX
8
1
10
567.80
20
51.70
30
0.0
0
VERTEX
8
1
10
585.80
20
37.70
30
0.0
0
VERTEX
8
1
10
695.80
20
45.70
30
0.0
0
VERTEX
8
1
10
701.80
20
117.70
30
0.0
0
VERTEX
8
1
10
705.80
20
237.70
30
0.0
0
VERTEX
8
1
10
701.80
20
357.70
30
0.0
0
VERTEX
8
1
10
695.80
20
429.70
30
0.0
0
VERTEX
8
1
10
585.80
20
437.70
30
0.0
0
VERTEX
8
1
10
567.80
20
423.70
30
0.0
0
VERTEX
8
1
10
539.80
20
387.70
30
0.0
0
VERTEX
8
1
10
505.80
20
337.70
30
0.0
0
VERTEX
8
1
10
483.80
20
287.70
30
0.0
0
SEQEND
8
1
0
TEXT
8
1
10
604.55
20
237.70
30
0.0
40
5.00
1
Piece Name:Sleeve
0
TEXT
8
1
10
604.55
20
230.70
30
0.0
40
5.00
1
Size Name:M
0
TEXT
8
1
10
604.55
20
223.70
30
0.0
40
5.00
1
Quantity:1,0
0
TEXT
8
1
10
604.55
20
216.70
30
0.0
40
5.00
1
Rotation:180
0
TEXT
8
1
10
473.80
20
237.70
30
0.0
40
0.80
1
# 0
0
TEXT
8
1
10
483.80
20
187.70
30
0.0
40
0.80
1
# 0
0
TEXT
8
1
10
505.80
20
137.70
30
0.0
40
0.80
1
# 0
0
TEXT
8
1
10
539.80
20
87.70
30
0.0
40
0.80
1
# 0
0
TEXT
8
1
10
567.80
20
51.70
30
0.0
40
0.80
1
# 0
0
TEXT
8
1
10
585.80
20
37.70
30
0.0
40
0.80
1
# 0
0
TEXT
8
1
10
695.80
20
45.70
30
0.0
40
0.80
1
# 0
0
TEXT
8
1
10
701.80
20
117.70
30
0.0
40
0.80
1
# 0
0
TEXT
8
1
10
705.80
20
237.70
30
0.0
40
0.80
1
# 0
0
TEXT
8
1
10
701.80
20
357.70
30
0.0
40
0.80
1
# 0
0
TEXT
8
1
10
695.80
20
429.70
30
0.0
40
0.80
1
# 0
0
TEXT
8
1
10
585.80
20
437.70
30
0.0
40
0.80
1
# 0
0
TEXT
8
1
10
567.80
20
423.70
30
0.0
40
0.80
1
# 0
0
TEXT
8
1
10
539.80
20
387.70
30
0.0
40
0.80
1
# 0
0
TEXT
8
1
10
505.80
20
337.70
30
0.0
40
0.80
1
# 0
0
TEXT
8
1
10
483.80
20
287.70
30
0.0
40
0.80
1
# 0
0
LINE
8
5
10
473.80
20
237.70
30
0.0
11
705.80
21
237.70
31
0.0
0
LINE
8
7
10
508.60
20
237.70
30
0.0
11
671.00
21
237.70
31
0.0
0
TEXT
8
15
10
604.55
20
245.20
30
0.0
40
5.00
1
8 Sleeve M b1
0
ENDBLK
8
0
0
BLOCK
8
0
2
M0009_Sleeve
70
0
10
0.0
20
0.0
30
0.0
3
M0009_Sleeve
1

0
POLYLINE
8
1
66
1
10
0.0
20
0.0
30
0.0
70
1
0
VERTEX
8
1
10
756.60
20
1400.00
30
0.0
0
VERTEX
8
1
10
766.60
20
1350.00
30
0.0
0
VERTEX
8
1
10
788.60
20
1300.00
30
0.0
0
VERTEX
8
1
10
822.60
20
1250.00
30
0.0
0
VERTEX
8
1
10
850.60
20
1214.00
30
0.0
0
VERTEX
8
1
10
868.60
20
1200.00
30
0.0
0
VERTEX
8
1
10
978.60
20
1208.00
30
0.0
0
VERTEX
8
1
10
984.60
20
1280.00
30
0.0
0
VERTEX
8
1
10
988.60
20
1400.00
30
0.0
0
VERTEX
8
1
10
984.60
20
1520.00
30
0.0
0
VERTEX
8
1
10
978.60
20
1592.00
30
0.0
0
VERTEX
8
1
10
868.60
20
1600.00
30
0.0
0
VERTEX
8
1
10
850.60
20
1586.00
30
0.0
0
VERTEX
8
1
10
822.60
20
1550.00
30
0.0
0
VERTEX
8
1
10
788.60
20
1500.00
30
0.0
0
VERTEX
8
1
10
766.60
20
1450.00
30
0.0
0
SEQEND
8
1
0
TEXT
8
1
10
887.35
20
1400.00
30
0.0
40
5.00
1
Piece Name:Sleeve
0
TEXT
8
1
10
887.35
20
1393.00
30
0.0
40
5.00
1
Size Name:M
0
TEXT
8
1
10
887.35
20
1386.00
30
0.0
40
5.00
1
Quantity:1,0
0
TEXT
8
1
10
887.35
20
1379.00
30
0.0
40
5.00
1
Rotation:180
0
TEXT
8
1
10
756.60
20
1400.00
30
0.0
40
0.80
1
# 0
0
TEXT
8
1
10
766.60
20
1350.00
30
0.0
40
0.80
1
# 0
0
TEXT
8
1
10
788.60
20
1300.00
30
0.0
40
0.80
1
# 0
0
TEXT
8
1
10
822.60
20
1250.00
30
0.0
40
0.80
1
# 0
0
TEXT
8
1
10
850.60
20
1214.00
30
0.0
40
0.80
1
# 0
0
TEXT
8
1
10
868.60
20
1200.00
30
0.0
40
0.80
1
# 0
0
TEXT
8
1
10
978.60
20
1208.00
30
0.0
40
0.80
1
# 0
0
TEXT
8
1
10
984.60
20
1280.00
30
0.0
40
0.80
1
# 0
0
TEXT
8
1
10
988.60
20
1400.00
30
0.0
40
0.80
1
# 0
0
TEXT
8
1
10
984.60
20
1520.00
30
0.0
40
0.80
1
# 0
0
TEXT
8
1
10
978.60
20
1592.00
30
0.0
40
0.80
1
# 0
0
TEXT
8
1
10
868.60
20
1600.00
30
0.0
40
0.80
1
# 0
0
TEXT
8
1
10
850.60
20
1586.00
30
0.0
40
0.80
1
# 0
0
TEXT
8
1
10
822.60
20
1550.00
30
0.0
40
0.80
1
# 0
0
TEXT
8
1
10
788.60
20
1500.00
30
0.0
40
0.80
1
# 0
0
TEXT
8
1
10
766.60
20
1450.00
30
0.0
40
0.80
1
# 0
0
LINE
8
5
10
756.60
20
1400.00
30
0.0
11
988.60
21
1400.00
31
0.0
0
LINE
8
7
10
791.40
20
1400.00
30
0.0
11
953.80
21
1400.00
31
0.0
0
TEXT
8
15
10
887.35
20
1407.50
30
0.0
40
5.00
1
9 Sleeve M b1
0
ENDBLK
8
0
0
BLOCK
8
0
2
M0010_Neck-band
70
0
10
0.0
20
0.0
30
0.0
3
M0010_Neck-band
1

0
POLYLINE
8
1
66
1
10
0.0
20
0.0
30
0.0
70
1
0
VERTEX
8
1
10
2103.40
20
134.80
30
0.0
0
VERTEX
8
1
10
1463.40
20
134.80
30
0.0
0
VERTEX
8
1
10
1463.40
20
98.80
30
0.0
0
VERTEX
8
1
10
2103.40
20
98.80
30
0.0
0
SEQEND
8
1
0
TEXT
8
1
10
1783.40
20
116.80
30
0.0
40
5.00
1
Piece Name:Neck band
0
TEXT
8
1
10
1783.40
20
109.80
30
0.0
40
5.00
1
Size Name:M
0
TEXT
8
1
10
1783.40
20
102.80
30
0.0
40
5.00
1
Quantity:1,0
0
TEXT
8
1
10
1783.40
20
95.80
30
0.0
40
5.00
1
Rotation:1
0
TEXT
8
1
10
2103.40
20
134.80
30
0.0
40
0.80
1
# 0
0
TEXT
8
1
10
1463.40
20
134.80
30
0.0
40
0.80
1
# 0
0
TEXT
8
1
10
1463.40
20
98.80
30
0.0
40
0.80
1
# 0
0
TEXT
8
1
10
2103.40
20
98.80
30
0.0
40
0.80
1
# 0
0
LINE
8
5
10
1463.40
20
116.80
30
0.0
11
2103.40
21
116.80
31
0.0
0
LINE
8
7
10
1559.40
20
116.80
30
0.0
11
2007.40
21
116.80
31
0.0
0
TEXT
8
15
10
1783.40
20
124.30
30
0.0
40
5.00
1
10 Neck band M b1
0
ENDBLK
8
0
0
BLOCK
8
0
2
M0011_Front
70
0
10
0.0
20
0.0
30
0.0
3
M0011_Front
1

0
POLYLINE
8
1
66
1
10
0.0
20
0.0
30
0.0
70
1
0
VERTEX
8
1
10
1543.40
20
451.60
30
0.0
0
VERTEX
8
1
10
1533.40
20
411.60
30
0.0
0
VERTEX
8
1
10
1509.40
20
381.60
30
0.0
0
VERTEX
8
1
10
1477.40
20
365.60
30
0.0
0
VERTEX
8
1
10
1463.40
20
355.60
30
0.0
0
VERTEX
8
1
10
1497.40
20
241.60
30
0.0
0
VERTEX
8
1
10
1533.40
20
225.60
30
0.0
0
VERTEX
8
1
10
1573.40
20
215.60
30
0.0
0
VERTEX
8
1
10
1613.40
20
203.60
30
0.0
0
VERTEX
8
1
10
1657.40
20
185.60
30
0.0
0
VERTEX
8
1
10
1693.40
20
171.60
30
0.0
0
VERTEX
8
1
10
1923.40
20
177.60
30
0.0
0
VERTEX
8
1
10
2183.40
20
181.60
30
0.0
0
VERTEX
8
1
10
2183.40
20
451.60
30
0.0
0
VERTEX
8
1
10
2183.40
20
721.60
30
0.0
0
VERTEX
8
1
10
1923.40
20
725.60
30
0.0
0
VERTEX
8
1
10
1693.40
20
731.60
30
0.0
0
VERTEX
8
1
10
1657.40
20
717.60
30
0.0
0
VERTEX
8
1
10
1613.40
20
699.60
30
0.0
0
VERTEX
8
1
10
1573.40
20
687.60
30
0.0
0
VERTEX
8
1
10
1533.40
20
677.60
30
0.0
0
VERTEX
8
1
10
1497.40
20
661.60
30
0.0
0
VERTEX
8
1
10
1463.40
20
547.60
30
0.0
0
VERTEX
8
1
10
1477.40
20
537.60
30
0.0
0
VERTEX
8
1
10
1509.40
20
521.60
30
0.0
0
VERTEX
8
1
10
1533.40
20
491.60
30
0.0
0
SEQEND
8
1
0
TEXT
8
1
10
1848.15
20
451.60
30
0.0
40
5.00
1
Piece Name:Front
0
TEXT
8
1
10
1848.15
20
444.60
30
0.0
40
5.00
1
Size Name:M
0
TEXT
8
1
10
1848.15
20
437.60
30
0.0
40
5.00
1
Quantity:1,0
0
TEXT
8
1
10
1848.15
20
430.60
30
0.0
40
5.00
1
Rotation:180
0
TEXT
8
1
10
1543.40
20
451.60
30
0.0
40
0.80
1
# 0
0
TEXT
8
1
10
1533.40
20
411.60
30
0.0
40
0.80
1
# 0
0
TEXT
8
1
10
1509.40
20
381.60
30
0.0
40
0.80
1
# 0
0
TEXT
8
1
10
1477.40
20
365.60
30
0.0
40
0.80
1
# 0
0
TEXT
8
1
10
1463.40
20
355.60
30
0.0
40
0.80
1
# 0
0
TEXT
8
1
10
1497.40
20
241.60
30
0.0
40
0.80
1
# 0
0
TEXT
8
1
10
1533.40
20
225.60
30
0.0
40
0.80
1
# 0
0
TEXT
8
1
10
1573.40
20
215.60
30
0.0
40
0.80
1
# 0
0
TEXT
8
1
10
1613.40
20
203.60
30
0.0
40
0.80
1
# 0
0
TEXT
8
1
10
1657.40
20
185.60
30
0.0
40
0.80
1
# 0
0
TEXT
8
1
10
1693.40
20
171.60
30
0.0
40
0.80
1
# 0
0
TEXT
8
1
10
1923.40
20
177.60
30
0.0
40
0.80
1
# 0
0
TEXT
8
1
10
2183.40
20
181.60
30
0.0
40
0.80
1
# 0
0
TEXT
8
1
10
2183.40
20
451.60
30
0.0
40
0.80
1
# 0
0
TEXT
8
1
10
2183.40
20
721.60
30
0.0
40
0.80
1
# 0
0
TEXT
8
1
10
1923.40
20
725.60
30
0.0
40
0.80
1
# 0
0
TEXT
8
1
10
1693.40
20
731.60
30
0.0
40
0.80
1
# 0
0
TEXT
8
1
10
1657.40
20
717.60
30
0.0
40
0.80
1
# 0
0
TEXT
8
1
10
1613.40
20
699.60
30
0.0
40
0.80
1
# 0
0
TEXT
8
1
10
1573.40
20
687.60
30
0.0
40
0.80
1
# 0
0
TEXT
8
1
10
1533.40
20
677.60
30
0.0
40
0.80
1
# 0
0
TEXT
8
1
10
1497.40
20
661.60
30
0.0
40
0.80
1
# 0
0
TEXT
8
1
10
1463.40
20
547.60
30
0.0
40
0.80
1
# 0
0
TEXT
8
1
10
1477.40
20
537.60
30
0.0
40
0.80
1
# 0
0
TEXT
8
1
10
1509.40
20
521.60
30
0.0
40
0.80
1
# 0
0
TEXT
8
1
10
1533.40
20
491.60
30
0.0
40
0.80
1
# 0
0
LINE
8
5
10
1463.40
20
451.60
30
0.0
11
2183.40
21
451.60
31
0.0
0
LINE
8
7
10
1571.40
20
451.60
30
0.0
11
2075.40
21
451.60
31
0.0
0
TEXT
8
15
10
1848.15
20
459.10
30
0.0
40
5.00
1
11 Front M b2
0
ENDBLK
8
0
0
BLOCK
8
0
2
M0012_Back
70
0
10
0.0
20
0.0
30
0.0
3
M0012_Back
1

0
POLYLINE
8
1
66
1
10
0.0
20
0.0
30
0.0
70
1
0
VERTEX
8
1
10
745.40
20
301.00
30
0.0
0
VERTEX
8
1
10
740.40
20
256.00
30
0.0
0
VERTEX
8
1
10
733.40
20
226.00
30
0.0
0
VERTEX
8
1
10
723.40
20
205.00
30
0.0
0
VERTEX
8
1
10
757.40
20
91.00
30
0.0
0
VERTEX
8
1
10
793.40
20
75.00
30
0.0
0
VERTEX
8
1
10
833.40
20
65.00
30
0.0
0
VERTEX
8
1
10
873.40
20
53.00
30
0.0
0
VERTEX
8
1
10
917.40
20
35.00
30
0.0
0
VERTEX
8
1
10
953.40
20
21.00
30
0.0
0
VERTEX
8
1
10
1183.40
20
27.00
30
0.0
0
VERTEX
8
1
10
1463.40
20
31.00
30
0.0
0
VERTEX
8
1
10
1463.40
20
301.00
30
0.0
0
VERTEX
8
1
10
1463.40
20
571.00
30
0.0
0
VERTEX
8
1
10
1183.40
20
575.00
30
0.0
0
VERTEX
8
1
10
953.40
20
581.00
30
0.0
0
VERTEX
8
1
10
917.40
20
567.00
30
0.0
0
VERTEX
8
1
10
873.40
20
549.00
30
0.0
0
VERTEX
8
1
10
833.40
20
537.00
30
0.0
0
VERTEX
8
1
10
793.40
20
527.00
30
0.0
0
VERTEX
8
1
10
757.40
20
511.00
30
0.0
0
VERTEX
8
1
10
723.40
20
397.00
30
0.0
0
VERTEX
8
1
10
733.40
20
376.00
30
0.0
0
VERTEX
8
1
10
740.40
20
346.00
30
0.0
0
SEQEND
8
1
0
TEXT
8
1
10
1110.93
20
301.00
30
0.0
40
5.00
1
Piece Name:Back
0
TEXT
8
1
10
1110.93
20
294.00
30
0.0
40
5.00
1
Size Name:M
0
TEXT
8
1
10
1110.93
20
287.00
30
0.0
40
5.00
1
Quantity:1,0
0
TEXT
8
1
10
1110.93
20
280.00
30
0.0
40
5.00
1
Rotation:180
0
TEXT
8
1
10
745.40
20
301.00
30
0.0
40
0.80
1
# 0
0
TEXT
8
1
10
740.40
20
256.00
30
0.0
40
0.80
1
# 0
0
TEXT
8
1
10
733.40
20
226.00
30
0.0
40
0.80
1
# 0
0
TEXT
8
1
10
723.40
20
205.00
30
0.0
40
0.80
1
# 0
0
TEXT
8
1
10
757.40
20
91.00
30
0.0
40
0.80
1
# 0
0
TEXT
8
1
10
793.40
20
75.00
30
0.0
40
0.80
1
# 0
0
TEXT
8
1
10
833.40
20
65.00
30
0.0
40
0.80
1
# 0
0
TEXT
8
1
10
873.40
20
53.00
30
0.0
40
0.80
1
# 0
0
TEXT
8
1
10
917.40
20
35.00
30
0.0
40
0.80
1
# 0
0
TEXT
8
1
10
953.40
20
21.00
30
0.0
40
0.80
1
# 0
0
TEXT
8
1
10
1183.40
20
27.00
30
0.0
40
0.80
1
# 0
0
TEXT
8
1
10
1463.40
20
31.00
30
0.0
40
0.80
1
# 0
0
TEXT
8
1
10
1463.40
20
301.00
30
0.0
40
0.80
1
# 0
0
TEXT
8
1
10
1463.40
20
571.00
30
0.0
40
0.80
1
# 0
0
TEXT
8
1
10
1183.40
20
575.00
30
0.0
40
0.80
1
# 0
0
TEXT
8
1
10
953.40
20
581.00
30
0.0
40
0.80
1
# 0
0
TEXT
8
1
10
917.40
20
567.00
30
0.0
40
0.80
1
# 0
0
TEXT
8
1
10
873.40
20
549.00
30
0.0
40
0.80
1
# 0
0
TEXT
8
1
10
833.40
20
537.00
30
0.0
40
0.80
1
# 0
0
TEXT
8
1
10
793.40
20
527.00
30
0.0
40
0.80
1
# 0
0
TEXT
8
1
10
757.40
20
511.00
30
0.0
40
0.80
1
# 0
0
TEXT
8
1
10
723.40
20
397.00
30
0.0
40
0.80
1
# 0
0
TEXT
8
1
10
733.40
20
376.00
30
0.0
40
0.80
1
# 0
0
TEXT
8
1
10
740.40
20
346.00
30
0.0
40
0.80
1
# 0
0
LINE
8
5
10
723.40
20
301.00
30
0.0
11
1463.40
21
301.00
31
0.0
0
LINE
8
7
10
834.40
20
301.00
30
0.0
11
1352.40
21
301.00
31
0.0
0
TEXT
8
15
10
1110.93
20
308.50
30
0.0
40
5.00
1
12 Back M b2
0
ENDBLK
8
0
0
BLOCK
8
0
2
M0013_Sleeve
70
0
10
0.0
20
0.0
30
0.0
3
M0013_Sleeve
1

0
POLYLINE
8
1
66
1
10
0.0
20
0.0
30
0.0
70
1
0
VERTEX
8
1
10
988.60
20
1400.00
30
0.0
0
VERTEX
8
1
10
998.60
20
1350.00
30
0.0
0
VERTEX
8
1
10
1020.60
20
1300.00
30
0.0
0
VERTEX
8
1
10
1054.60
20
1250.00
30
0.0
0
VERTEX
8
1
10
1082.60
20
1214.00
30
0.0
0
VERTEX
8
1
10
1100.60
20
1200.00
30
0.0
0
VERTEX
8
1
10
1210.60
20
1208.00
30
0.0
0
VERTEX
8
1
10
1216.60
20
1280.00
30
0.0
0
VERTEX
8
1
10
1220.60
20
1400.00
30
0.0
0
VERTEX
8
1
10
1216.60
20
1520.00
30
0.0
0
VERTEX
8
1
10
1210.60
20
1592.00
30
0.0
0
VERTEX
8
1
10
1100.60
20
1600.00
30
0.0
0
VERTEX
8
1
10
1082.60
20
1586.00
30
0.0
0
VERTEX
8
1
10
1054.60
20
1550.00
30
0.0
0
VERTEX
8
1
10
1020.60
20
1500.00
30
0.0
0
VERTEX
8
1
10
998.60
20
1450.00
30
0.0
0
SEQEND
8
1
0
TEXT
8
1
10
1119.35
20
1400.00
30
0.0
40
5.00
1
Piece Name:Sleeve
0
TEXT
8
1
10
1119.35
20
1393.00
30
0.0
40
5.00
1
Size Name:M
0
TEXT
8
1
10
1119.35
20
1386.00
30
0.0
40
5.00
1
Quantity:1,0
0
TEXT
8
1
10
1119.35
20
1379.00
30
0.0
40
5.00
1
Rotation:180
0
TEXT
8
1
10
988.60
20
1400.00
30
0.0
40
0.80
1
# 0
0
TEXT
8
1
10
998.60
20
1350.00
30
0.0
40
0.80
1
# 0
0
TEXT
8
1
10
1020.60
20
1300.00
30
0.0
40
0.80
1
# 0
0
TEXT
8
1
10
1054.60
20
1250.00
30
0.0
40
0.80
1
# 0
0
TEXT
8
1
10
1082.60
20
1214.00
30
0.0
40
0.80
1
# 0
0
TEXT
8
1
10
1100.60
20
1200.00
30
0.0
40
0.80
1
# 0
0
TEXT
8
1
10
1210.60
20
1208.00
30
0.0
40
0.80
1
# 0
0
TEXT
8
1
10
1216.60
20
1280.00
30
0.0
40
0.80
1
# 0
0
TEXT
8
1
10
1220.60
20
1400.00
30
0.0
40
0.80
1
# 0
0
TEXT
8
1
10
1216.60
20
1520.00
30
0.0
40
0.80
1
# 0
0
TEXT
8
1
10
1210.60
20
1592.00
30
0.0
40
0.80
1
# 0
0
TEXT
8
1
10
1100.60
20
1600.00
30
0.0
40
0.80
1
# 0
0
TEXT
8
1
10
1082.60
20
1586.00
30
0.0
40
0.80
1
# 0
0
TEXT
8
1
10
1054.60
20
1550.00
30
0.0
40
0.80
1
# 0
0
TEXT
8
1
10
1020.60
20
1500.00
30
0.0
40
0.80
1
# 0
0
TEXT
8
1
10
998.60
20
1450.00
30
0.0
40
0.80
1
# 0
0
LINE
8
5
10
988.60
20
1400.00
30
0.0
11
1220.60
21
1400.00
31
0.0
0
LINE
8
7
10
1023.40
20
1400.00
30
0.0
11
1185.80
21
1400.00
31
0.0
0
TEXT
8
15
10
1119.35
20
1407.50
30
0.0
40
5.00
1
13 Sleeve M b2
0
ENDBLK
8
0
0
BLOCK
8
0
2
M0014_Sleeve
70
0
10
0.0
20
0.0
30
0.0
3
M0014_Sleeve
1

0
POLYLINE
8
1
66
1
10
0.0
20
0.0
30
0.0
70
1
0
VERTEX
8
1
10
1450.70
20
1342.90
30
0.0
0
VERTEX
8
1
10
1440.70
20
1392.90
30
0.0
0
VERTEX
8
1
10
1418.70
20
1442.90
30
0.0
0
VERTEX
8
1
10
1384.70
20
1492.90
30
0.0
0
VERTEX
8
1
10
1356.70
20
1528.90
30
0.0
0
VERTEX
8
1
10
1338.70
20
1542.90
30
0.0
0
VERTEX
8
1
10
1228.70
20
1534.90
30
0.0
0
VERTEX
8
1
10
1222.70
20
1462.90
30
0.0
0
VERTEX
8
1
10
1218.70
20
1342.90
30
0.0
0
VERTEX
8
1
10
1222.70
20
1222.90
30
0.0
0
VERTEX
8
1
10
1228.70
20
1150.90
30
0.0
0
VERTEX
8
1
10
1338.70
20
1142.90
30
0.0
0
VERTEX
8
1
10
1356.70
20
1156.90
30
0.0
0
VERTEX
8
1
10
1384.70
20
1192.90
30
0.0
0
VERTEX
8
1
10
1418.70
20
1242.90
30
0.0
0
VERTEX
8
1
10
1440.70
20
1292.90
30
0.0
0
SEQEND
8
1
0
TEXT
8
1
10
1319.95
20
1342.90
30
0.0
40
5.00
1
Piece Name:Sleeve
0
TEXT
8
1
10
1319.95
20
1335.90
30
0.0
40
5.00
1
Size Name:M
0
TEXT
8
1
10
1319.95
20
1328.90
30
0.0
40
5.00
1
Quantity:1,0
0
TEXT
8
1
10
1319.95
20
1321.90
30
0.0
40
5.00
1
Rotation:180
0
TEXT
8
1
10
1450.70
20
1342.90
30
0.0
40
0.80
1
# 0
0
TEXT
8
1
10
1440.70
20
1392.90
30
0.0
40
0.80
1
# 0
0
TEXT
8
1
10
1418.70
20
1442.90
30
0.0
40
0.80
1
# 0
0
TEXT
8
1
10
1384.70
20
1492.90
30
0.0
40
0.80
1
# 0
0
TEXT
8
1
10
1356.70
20
1528.90
30
0.0
40
0.80
1
# 0
0
TEXT
8
1
10
1338.70
20
1542.90
30
0.0
40
0.80
1
# 0
0
TEXT
8
1
10
1228.70
20
1534.90
30
0.0
40
0.80
1
# 0
0
TEXT
8
1
10
1222.70
20
1462.90
30
0.0
40
0.80
1
# 0
0
TEXT
8
1
10
1218.70
20
1342.90
30
0.0
40
0.80
1
# 0
0
TEXT
8
1
10
1222.70
20
1222.90
30
0.0
40
0.80
1
# 0
0
TEXT
8
1
10
1228.70
20
1150.90
30
0.0
40
0.80
1
# 0
0
TEXT
8
1
10
1338.70
20
1142.90
30
0.0
40
0.80
1
# 0
0
TEXT
8
1
10
1356.70
20
1156.90
30
0.0
40
0.80
1
# 0
0
TEXT
8
1
10
1384.70
20
1192.90
30
0.0
40
0.80
1
# 0
0
TEXT
8
1
10
1418.70
20
1242.90
30
0.0
40
0.80
1
# 0
0
TEXT
8
1
10
1440.70
20
1292.90
30
0.0
40
0.80
1
# 0
0
LINE
8
5
10
1218.70
20
1342.90
30
0.0
11
1450.70
21
1342.90
31
0.0
0
LINE
8
7
10
1253.50
20
1342.90
30
0.0
11
1415.90
21
1342.90
31
0.0
0
TEXT
8
15
10
1319.95
20
1350.40
30
0.0
40
5.00
1
14 Sleeve M b2
0
ENDBLK
8
0
0
BLOCK
8
0
2
M0015_Neck-band
70
0
10
0.0
20
0.0
30
0.0
3
M0015_Neck-band
1

0
POLYLINE
8
1
66
1
10
0.0
20
0.0
30
0.0
70
1
0
VERTEX
8
1
10
2103.40
20
98.80
30
0.0
0
VERTEX
8
1
10
1463.40
20
98.80
30
0.0
0
VERTEX
8
1
10
1463.40
20
62.80
30
0.0
0
VERTEX
8
1
10
2103.40
20
62.80
30
0.0
0
SEQEND
8
1
0
TEXT
8
1
10
1783.40
20
80.80
30
0.0
40
5.00
1
Piece Name:Neck band
0
TEXT
8
1
10
1783.40
20
73.80
30
0.0
40
5.00
1
Size Name:M
0
TEXT
8
1
10
1783.40
20
66.80
30
0.0
40
5.00
1
Quantity:1,0
0
TEXT
8
1
10
1783.40
20
59.80
30
0.0
40
5.00
1
Rotation:1
0
TEXT
8
1
10
2103.40
20
98.80
30
0.0
40
0.80
1
# 0
0
TEXT
8
1
10
1463.40
20
98.80
30
0.0
40
0.80
1
# 0
0
TEXT
8
1
10
1463.40
20
62.80
30
0.0
40
0.80
1
# 0
0
TEXT
8
1
10
2103.40
20
62.80
30
0.0
40
0.80
1
# 0
0
LINE
8
5
10
1463.40
20
80.80
30
0.0
11
2103.40
21
80.80
31
0.0
0
LINE
8
7
10
1559.40
20
80.80
30
0.0
11
2007.40
21
80.80
31
0.0
0
TEXT
8
15
10
1783.40
20
88.30
30
0.0
40
5.00
1
15 Neck band M b2
0
ENDBLK
8
0
0
BLOCK
8
0
2
M0016_Front
70
0
10
0.0
20
0.0
30
0.0
3
M0016_Front
1

0
POLYLINE
8
1
66
1
10
0.0
20
0.0
30
0.0
70
1
0
VERTEX
8
1
10
81.80
20
722.20
30
0.0
0
VERTEX
8
1
10
71.60
20
680.40
30
0.0
0
VERTEX
8
1
10
47.00
20
649.10
30
0.0
0
VERTEX
8
1
10
14.30
20
632.30
30
0.0
0
VERTEX
8
1
10
0.00
20
621.90
30
0.0
0
VERTEX
8
1
10
34.80
20
502.80
30
0.0
0
VERTEX
8
1
10
71.60
20
486.00
30
0.0
0
VERTEX
8
1
10
112.50
20
475.60
30
0.0
0
VERTEX
8
1
10
153.40
20
463.00
30
0.0
0
VERTEX
8
1
10
198.40
20
444.20
30
0.0
0
VERTEX
8
1
10
235.20
20
429.60
30
0.0
0
VERTEX
8
1
10
470.30
20
435.90
30
0.0
0
VERTEX
8
1
10
736.20
20
440.10
30
0.0
0
VERTEX
8
1
10
736.20
20
722.20
30
0.0
0
VERTEX
8
1
10
736.20
20
1004.40
30
0.0
0
VERTEX
8
1
10
470.30
20
1008.50
30
0.0
0
VERTEX
8
1
10
235.20
20
1014.80
30
0.0
0
VERTEX
8
1
10
198.40
20
1000.20
30
0.0
0
VERTEX
8
1
10
153.40
20
981.40
30
0.0
0
VERTEX
8
1
10
112.50
20
968.80
30
0.0
0
VERTEX
8
1
10
71.60
20
958.40
30
0.0
0
VERTEX
8
1
10
34.80
20
941.70
30
0.0
0
VERTEX
8
1
10
0.00
20
822.50
30
0.0
0
VERTEX
8
1
10
14.30
20
812.10
30
0.0
0
VERTEX
8
1
10
47.00
20
795.30
30
0.0
0
VERTEX
8
1
10
71.60
20
764.00
30
0.0
0
SEQEND
8
1
0
TEXT
8
1
10
393.40
20
722.21
30
0.0
40
5.00
1
Piece Name:Front
0
TEXT
8
1
10
393.40
20
715.21
30
0.0
40
5.00
1
Size Name:L
0
TEXT
8
1
10
393.40
20
708.21
30
0.0
40
5.00
1
Quantity:1,0
0
TEXT
8
1
10
393.40
20
701.21
30
0.0
40
5.00
1
Rotation:180
0
TEXT
8
1
10
81.80
20
722.20
30
0.0
40
0.80
1
# 0
0
TEXT
8
1
10
71.60
20
680.40
30
0.0
40
0.80
1
# 0
0
TEXT
8
1
10
47.00
20
649.10
30
0.0
40
0.80
1
# 0
0
TEXT
8
1
10
14.30
20
632.30
30
0.0
40
0.80
1
# 0
0
TEXT
8
1
10
0.00
20
621.90
30
0.0
40
0.80
1
# 0
0
TEXT
8
1
10
34.80
20
502.80
30
0.0
40
0.80
1
# 0
0
TEXT
8
1
10
71.60
20
486.00
30
0.0
40
0.80
1
# 0
0
TEXT
8
1
10
112.50
20
475.60
30
0.0
40
0.80
1
# 0
0
TEXT
8
1
10
153.40
20
463.00
30
0.0
40
0.80
1
# 0
0
TEXT
8
1
10
198.40
20
444.20
30
0.0
40
0.80
1
# 0
0
TEXT
8
1
10
235.20
20
429.60
30
0.0
40
0.80
1
# 0
0
TEXT
8
1
10
470.30
20
435.90
30
0.0
40
0.80
1
# 0
0
TEXT
8
1
10
736.20
20
440.10
30
0.0
40
0.80
1
# 0
0
TEXT
8
1
10
736.20
20
722.20
30
0.0
40
0.80
1
# 0
0
TEXT
8
1
10
736.20
20
1004.40
30
0.0
40
0.80
1
# 0
0
TEXT
8
1
10
470.30
20
1008.50
30
0.0
40
0.80
1
# 0
0
TEXT
8
1
10
235.20
20
1014.80
30
0.0
40
0.80
1
# 0
0
TEXT
8
1
10
198.40
20
1000.20
30
0.0
40
0.80
1
# 0
0
TEXT
8
1
10
153.40
20
981.40
30
0.0
40
0.80
1
# 0
0
TEXT
8
1
10
112.50
20
968.80
30
0.0
40
0.80
1
# 0
0
TEXT
8
1
10
71.60
20
958.40
30
0.0
40
0.80
1
# 0
0
TEXT
8
1
10
34.80
20
941.70
30
0.0
40
0.80
1
# 0
0
TEXT
8
1
10
0.00
20
822.50
30
0.0
40
0.80
1
# 0
0
TEXT
8
1
10
14.30
20
812.10
30
0.0
40
0.80
1
# 0
0
TEXT
8
1
10
47.00
20
795.30
30
0.0
40
0.80
1
# 0
0
TEXT
8
1
10
71.60
20
764.00
30
0.0
40
0.80
1
# 0
0
LINE
8
5
10
0.00
20
722.21
30
0.0
11
736.20
21
722.21
31
0.0
0
LINE
8
7
10
110.43
20
722.21
30
0.0
11
625.77
21
722.21
31
0.0
0
TEXT
8
15
10
393.40
20
729.71
30
0.0
40
5.00
1
16 Front L b1
0
ENDBLK
8
0
0
BLOCK
8
0
2
M0017_Back
70
0
10
0.0
20
0.0
30
0.0
3
M0017_Back
1

0
POLYLINE
8
1
66
1
10
0.0
20
0.0
30
0.0
70
1
0
VERTEX
8
1
10
22.50
20
1307.40
30
0.0
0
VERTEX
8
1
10
17.40
20
1260.40
30
0.0
0
VERTEX
8
1
10
10.20
20
1229.00
30
0.0
0
VERTEX
8
1
10
0.00
20
1207.10
30
0.0
0
VERTEX
8
1
10
34.80
20
1088.00
30
0.0
0
VERTEX
8
1
10
71.60
20
1071.20
30
0.0
0
VERTEX
8
1
10
112.50
20
1060.80
30
0.0
0
VERTEX
8
1
10
153.40
20
1048.20
30
0.0
0
VERTEX
8
1
10
198.40
20
1029.40
30
0.0
0
VERTEX
8
1
10
235.20
20
1014.80
30
0.0
0
VERTEX
8
1
10
470.30
20
1021.10
30
0.0
0
VERTEX
8
1
10
756.60
20
1025.30
30
0.0
0
VERTEX
8
1
10
756.60
20
1307.40
30
0.0
0
VERTEX
8
1
10
756.60
20
1589.60
30
0.0
0
VERTEX
8
1
10
470.30
20
1593.70
30
0.0
0
VERTEX
8
1
10
235.20
20
1600.00
30
0.0
0
VERTEX
8
1
10
198.40
20
1585.40
30
0.0
0
VERTEX
8
1
10
153.40
20
1566.60
30
0.0
0
VERTEX
8
1
10
112.50
20
1554.00
30
0.0
0
VERTEX
8
1
10
71.60
20
1543.60
30
0.0
0
VERTEX
8
1
10
34.80
20
1526.90
30
0.0
0
VERTEX
8
1
10
0.00
20
1407.70
30
0.0
0
VERTEX
8
1
10
10.20
20
1385.80
30
0.0
0
VERTEX
8
1
10
17.40
20
1354.40
30
0.0
0
SEQEND
8
1
0
TEXT
8
1
10
396.23
20
1307.41
30
0.0
40
5.00
1
Piece Name:Back
0
TEXT
8
1
10
396.23
20
1300.41
30
0.0
40
5.00
1
Size Name:L
0
TEXT
8
1
10
396.23
20
1293.41
30
0.0
40
5.00
1
Quantity:1,0
0
TEXT
8
1
10
396.23
20
1286.41
30
0.0
40
5.00
1
Rotation:180
0
TEXT
8
1
10
22.50
20
1307.40
30
0.0
40
0.80
1
# 0
0
TEXT
8
1
10
17.40
20
1260.40
30
0.0
40
0.80
1
# 0
0
TEXT
8
1
10
10.20
20
1229.00
30
0.0
40
0.80
1
# 0
0
TEXT
8
1
10
0.00
20
1207.10
30
0.0
40
0.80
1
# 0
0
TEXT
8
1
10
34.80
20
1088.00
30
0.0
40
0.80
1
# 0
0
TEXT
8
1
10
71.60
20
1071.20
30
0.0
40
0.80
1
# 0
0
TEXT
8
1
10
112.50
20
1060.80
30
0.0
40
0.80
1
# 0
0
TEXT
8
1
10
153.40
20
1048.20
30
0.0
40
0.80
1
# 0
0
TEXT
8
1
10
198.40
20
1029.40
30
0.0
40
0.80
1
# 0
0
TEXT
8
1
10
235.20
20
1014.80
30
0.0
40
0.80
1
# 0
0
TEXT
8
1
10
470.30
20
1021.10
30
0.0
40
0.80
1
# 0
0
TEXT
8
1
10
756.60
20
1025.30
30
0.0
40
0.80
1
# 0
0
TEXT
8
1
10
756.60
20
1307.40
30
0.0
40
0.80
1
# 0
0
TEXT
8
1
10
756.60
20
1589.60
30
0.0
40
0.80
1
# 0
0
TEXT
8
1
10
470.30
20
1593.70
30
0.0
40
0.80
1
# 0
0
TEXT
8
1
10
235.20
20
1600.00
30
0.0
40
0.80
1
# 0
0
TEXT
8
1
10
198.40
20
1585.40
30
0.0
40
0.80
1
# 0
0
TEXT
8
1
10
153.40
20
1566.60
30
0.0
40
0.80
1
# 0
0
TEXT
8
1
10
112.50
20
1554.00
30
0.0
40
0.80
1
# 0
0
TEXT
8
1
10
71.60
20
1543.60
30
0.0
40
0.80
1
# 0
0
TEXT
8
1
10
34.80
20
1526.90
30
0.0
40
0.80
1
# 0
0
TEXT
8
1
10
0.00
20
1407.70
30
0.0
40
0.80
1
# 0
0
TEXT
8
1
10
10.20
20
1385.80
30
0.0
40
0.80
1
# 0
0
TEXT
8
1
10
17.40
20
1354.40
30
0.0
40
0.80
1
# 0
0
LINE
8
5
10
0.00
20
1307.41
30
0.0
11
756.60
21
1307.41
31
0.0
0
LINE
8
7
10
113.49
20
1307.41
30
0.0
11
643.11
21
1307.41
31
0.0
0
TEXT
8
15
10
396.23
20
1314.91
30
0.0
40
5.00
1
17 Back L b1
0
ENDBLK
8
0
0
BLOCK
8
0
2
M0018_Sleeve
70
0
10
0.0
20
0.0
30
0.0
3
M0018_Sleeve
1

0
POLYLINE
8
1
66
1
10
0.0
20
0.0
30
0.0
70
1
0
VERTEX
8
1
10
0.00
20
232.20
30
0.0
0
VERTEX
8
1
10
10.20
20
179.90
30
0.0
0
VERTEX
8
1
10
32.70
20
127.70
30
0.0
0
VERTEX
8
1
10
67.50
20
75.50
30
0.0
0
VERTEX
8
1
10
96.10
20
37.80
30
0.0
0
VERTEX
8
1
10
114.50
20
23.20
30
0.0
0
VERTEX
8
1
10
227.00
20
31.60
30
0.0
0
VERTEX
8
1
10
233.10
20
106.80
30
0.0
0
VERTEX
8
1
10
237.20
20
232.20
30
0.0
0
VERTEX
8
1
10
233.10
20
357.60
30
0.0
0
VERTEX
8
1
10
227.00
20
432.80
30
0.0
0
VERTEX
8
1
10
114.50
20
441.20
30
0.0
0
VERTEX
8
1
10
96.10
20
426.60
30
0.0
0
VERTEX
8
1
10
67.50
20
389.00
30
0.0
0
VERTEX
8
1
10
32.70
20
336.70
30
0.0
0
VERTEX
8
1
10
10.20
20
284.50
30
0.0
0
SEQEND
8
1
0
TEXT
8
1
10
133.67
20
232.21
30
0.0
40
5.00
1
Piece Name:Sleeve
0
TEXT
8
1
10
133.67
20
225.21
30
0.0
40
5.00
1
Size Name:L
0
TEXT
8
1
10
133.67
20
218.21
30
0.0
40
5.00
1
Quantity:1,0
0
TEXT
8
1
10
133.67
20
211.21
30
0.0
40
5.00
1
Rotation:180
0
TEXT
8
1
10
0.00
20
232.20
30
0.0
40
0.80
1
# 0
0
TEXT
8
1
10
10.20
20
179.90
30
0.0
40
0.80
1
# 0
0
TEXT
8
1
10
32.70
20
127.70
30
0.0
40
0.80
1
# 0
0
TEXT
8
1
10
67.50
20
75.50
30
0.0
40
0.80
1
# 0
0
TEXT
8
1
10
96.10
20
37.80
30
0.0
40
0.80
1
# 0
0
TEXT
8
1
10
114.50
20
23.20
30
0.0
40
0.80
1
# 0
0
TEXT
8
1
10
227.00
20
31.60
30
0.0
40
0.80
1
# 0
0
TEXT
8
1
10
233.10
20
106.80
30
0.0
40
0.80
1
# 0
0
TEXT
8
1
10
237.20
20
232.20
30
0.0
40
0.80
1
# 0
0
TEXT
8
1
10
233.10
20
357.60
30
0.0
40
0.80
1
# 0
0
TEXT
8
1
10
227.00
20
432.80
30
0.0
40
0.80
1
# 0
0
TEXT
8
1
10
114.50
20
441.20
30
0.0
40
0.80
1
# 0
0
TEXT
8
1
10
96.10
20
426.60
30
0.0
40
0.80
1
# 0
0
TEXT
8
1
10
67.50
20
389.00
30
0.0
40
0.80
1
# 0
0
TEXT
8
1
10
32.70
20
336.70
30
0.0
40
0.80
1
# 0
0
TEXT
8
1
10
10.20
20
284.50
30
0.0
40
0.80
1
# 0
0
LINE
8
5
10
0.00
20
232.21
30
0.0
11
237.20
21
232.21
31
0.0
0
LINE
8
7
10
35.58
20
232.21
30
0.0
11
201.62
21
232.21
31
0.0
0
TEXT
8
15
10
133.67
20
239.71
30
0.0
40
5.00
1
18 Sleeve L b1
0
ENDBLK
8
0
0
BLOCK
8
0
2
M0019_Sleeve
70
0
10
0.0
20
0.0
30
0.0
3
M0019_Sleeve
1

0
POLYLINE
8
1
66
1
10
0.0
20
0.0
30
0.0
70
1
0
VERTEX
8
1
10
236.90
20
222.80
30
0.0
0
VERTEX
8
1
10
247.10
20
170.50
30
0.0
0
VERTEX
8
1
10
269.60
20
118.30
30
0.0
0
VERTEX
8
1
10
304.40
20
66.10
30
0.0
0
VERTEX
8
1
10
333.00
20
28.40
30
0.0
0
VERTEX
8
1
10
351.40
20
13.80
30
0.0
0
VERTEX
8
1
10
463.90
20
22.20
30
0.0
0
VERTEX
8
1
10
470.00
20
97.40
30
0.0
0
VERTEX
8
1
10
474.10
20
222.80
30
0.0
0
VERTEX
8
1
10
470.00
20
348.20
30
0.0
0
VERTEX
8
1
10
463.90
20
423.40
30
0.0
0
VERTEX
8
1
10
351.40
20
431.80
30
0.0
0
VERTEX
8
1
10
333.00
20
417.20
30
0.0
0
VERTEX
8
1
10
304.40
20
379.60
30
0.0
0
VERTEX
8
1
10
269.60
20
327.30
30
0.0
0
VERTEX
8
1
10
247.10
20
275.10
30
0.0
0
SEQEND
8
1
0
TEXT
8
1
10
370.57
20
222.81
30
0.0
40
5.00
1
Piece Name:Sleeve
0
TEXT
8
1
10
370.57
20
215.81
30
0.0
40
5.00
1
Size Name:L
0
TEXT
8
1
10
370.57
20
208.81
30
0.0
40
5.00
1
Quantity:1,0
0
TEXT
8
1
10
370.57
20
201.81
30
0.0
40
5.00
1
Rotation:180
0
TEXT
8
1
10
236.90
20
222.80
30
0.0
40
0.80
1
# 0
0
TEXT
8
1
10
247.10
20
170.50
30
0.0
40
0.80
1
# 0
0
TEXT
8
1
10
269.60
20
118.30
30
0.0
40
0.80
1
# 0
0
TEXT
8
1
10
304.40
20
66.10
30
0.0
40
0.80
1
# 0
0
TEXT
8
1
10
333.00
20
28.40
30
0.0
40
0.80
1
# 0
0
TEXT
8
1
10
351.40
20
13.80
30
0.0
40
0.80
1
# 0
0
TEXT
8
1
10
463.90
20
22.20
30
0.0
40
0.80
1
# 0
0
TEXT
8
1
10
470.00
20
97.40
30
0.0
40
0.80
1
# 0
0
TEXT
8
1
10
474.10
20
222.80
30
0.0
40
0.80
1
# 0
0
TEXT
8
1
10
470.00
20
348.20
30
0.0
40
0.80
1
# 0
0
TEXT
8
1
10
463.90
20
423.40
30
0.0
40
0.80
1
# 0
0
TEXT
8
1
10
351.40
20
431.80
30
0.0
40
0.80
1
# 0
0
TEXT
8
1
10
333.00
20
417.20
30
0.0
40
0.80
1
# 0
0
TEXT
8
1
10
304.40
20
379.60
30
0.0
40
0.80
1
# 0
0
TEXT
8
1
10
269.60
20
327.30
30
0.0
40
0.80
1
# 0
0
TEXT
8
1
10
247.10
20
275.10
30
0.0
40
0.80
1
# 0
0
LINE
8
5
10
236.90
20
222.81
30
0.0
11
474.10
21
222.81
31
0.0
0
LINE
8
7
10
272.48
20
222.81
30
0.0
11
438.52
21
222.81
31
0.0
0
TEXT
8
15
10
370.57
20
230.31
30
0.0
40
5.00
1
19 Sleeve L b1
0
ENDBLK
8
0
0
BLOCK
8
0
2
M0020_Neck-band
70
0
10
0.0
20
0.0
30
0.0
3
M0020_Neck-band
1

0
POLYLINE
8
1
66
1
10
0.0
20
0.0
30
0.0
70
1
0
VERTEX
8
1
10
2132.20
20
171.60
30
0.0
0
VERTEX
8
1
10
1463.40
20
171.60
30
0.0
0
VERTEX
8
1
10
1463.40
20
134.80
30
0.0
0
VERTEX
8
1
10
2132.20
20
134.80
30
0.0
0
SEQEND
8
1
0
TEXT
8
1
10
1797.80
20
153.20
30
0.0
40
5.00
1
Piece Name:Neck band
0
TEXT
8
1
10
1797.80
20
146.20
30
0.0
40
5.00
1
Size Name:L
0
TEXT
8
1
10
1797.80
20
139.20
30
0.0
40
5.00
1
Quantity:1,0
0
TEXT
8
1
10
1797.80
20
132.20
30
0.0
40
5.00
1
Rotation:1
0
TEXT
8
1
10
2132.20
20
171.60
30
0.0
40
0.80
1
# 0
0
TEXT
8
1
10
1463.40
20
171.60
30
0.0
40
0.80
1
# 0
0
TEXT
8
1
10
1463.40
20
134.80
30
0.0
40
0.80
1
# 0
0
TEXT
8
1
10
2132.20
20
134.80
30
0.0
40
0.80
1
# 0
0
LINE
8
5
10
1463.40
20
153.20
30
0.0
11
2132.20
21
153.20
31
0.0
0
LINE
8
7
10
1563.72
20
153.20
30
0.0
11
2031.88
21
153.20
31
0.0
0
TEXT
8
15
10
1797.80
20
160.70
30
0.0
40
5.00
1
20 Neck band L b1
0
ENDBLK
8
0
0
ENDSEC
0
SECTION
2
ENTITIES
0
TEXT
8
1
10
0.00
20
1600.00
30
0.0
40
2.20
1
Style Name:TSHIRT-DEMO
0
TEXT
8
1
10
0.00
20
1596.50
30
0.0
40
2.20
1
Creation Date:2026-07-21
0
TEXT
8
1
10
0.00
20
1593.00
30
0.0
40
2.20
1
Author:Seamline;Marker;2
0
TEXT
8
1
10
0.00
20
1589.50
30
0.0
40
2.20
1
Sample Size:XS
0
TEXT
8
1
10
0.00
20
1586.00
30
0.0
40
2.20
1
Grade Rule Table:TSHIRT-DEMO-RULES
0
TEXT
8
1
10
0.00
20
1582.50
30
0.0
40
2.20
1
Units:METRIC
0
TEXT
8
1
10
0.00
20
1579.00
30
0.0
40
2.20
1
ASTM/D13Proposal 1 Version:D 6673-04
0
INSERT
8
0
2
M0001_Front
10
0.0
20
0.0
30
0.0
0
INSERT
8
0
2
M0002_Back
10
0.0
20
0.0
30
0.0
0
INSERT
8
0
2
M0003_Sleeve
10
0.0
20
0.0
30
0.0
0
INSERT
8
0
2
M0004_Sleeve
10
0.0
20
0.0
30
0.0
0
INSERT
8
0
2
M0005_Neck-band
10
0.0
20
0.0
30
0.0
0
INSERT
8
0
2
M0006_Front
10
0.0
20
0.0
30
0.0
0
INSERT
8
0
2
M0007_Back
10
0.0
20
0.0
30
0.0
0
INSERT
8
0
2
M0008_Sleeve
10
0.0
20
0.0
30
0.0
0
INSERT
8
0
2
M0009_Sleeve
10
0.0
20
0.0
30
0.0
0
INSERT
8
0
2
M0010_Neck-band
10
0.0
20
0.0
30
0.0
0
INSERT
8
0
2
M0011_Front
10
0.0
20
0.0
30
0.0
0
INSERT
8
0
2
M0012_Back
10
0.0
20
0.0
30
0.0
0
INSERT
8
0
2
M0013_Sleeve
10
0.0
20
0.0
30
0.0
0
INSERT
8
0
2
M0014_Sleeve
10
0.0
20
0.0
30
0.0
0
INSERT
8
0
2
M0015_Neck-band
10
0.0
20
0.0
30
0.0
0
INSERT
8
0
2
M0016_Front
10
0.0
20
0.0
30
0.0
0
INSERT
8
0
2
M0017_Back
10
0.0
20
0.0
30
0.0
0
INSERT
8
0
2
M0018_Sleeve
10
0.0
20
0.0
30
0.0
0
INSERT
8
0
2
M0019_Sleeve
10
0.0
20
0.0
30
0.0
0
INSERT
8
0
2
M0020_Neck-band
10
0.0
20
0.0
30
0.0
0
ENDSEC
0
EOF
